<mxfile host="app.diagrams.net" modified="2024-03-12T17:13:08.387Z" agent="Mozilla/5.0 (Windows NT 10.0; Win64; x64) AppleWebKit/537.36 (KHTML, like Gecko) Chrome/122.0.0.0 Safari/537.36" etag="Qhas8aPovgnONoAYg1w2" version="24.0.1" type="device">
  <diagram name="Page-1" id="G41nDcQsJbzzBf74zmB0">
    <mxGraphModel dx="1194" dy="708" grid="0" gridSize="10" guides="1" tooltips="1" connect="1" arrows="1" fold="1" page="1" pageScale="1" pageWidth="850" pageHeight="1100" math="0" shadow="0">
      <root>
        <mxCell id="0" />
        <mxCell id="1" parent="0" />
        <mxCell id="be3Qgi7hEzFIGp2nB2z0-1" value="Fafsa" style="shape=table;startSize=30;container=1;collapsible=1;childLayout=tableLayout;fixedRows=1;rowLines=0;fontStyle=1;align=center;resizeLast=1;html=1;whiteSpace=wrap;fillColor=none;strokeWidth=3;" vertex="1" parent="1">
          <mxGeometry x="40" y="80" width="180" height="270" as="geometry" />
        </mxCell>
        <mxCell id="be3Qgi7hEzFIGp2nB2z0-2" value="" style="shape=tableRow;horizontal=0;startSize=0;swimlaneHead=0;swimlaneBody=0;fillColor=none;collapsible=0;dropTarget=0;points=[[0,0.5],[1,0.5]];portConstraint=eastwest;top=0;left=0;right=0;bottom=0;html=1;strokeWidth=3;" vertex="1" parent="be3Qgi7hEzFIGp2nB2z0-1">
          <mxGeometry y="30" width="180" height="30" as="geometry" />
        </mxCell>
        <mxCell id="be3Qgi7hEzFIGp2nB2z0-3" value="PK" style="shape=partialRectangle;connectable=0;fillColor=none;top=0;left=0;bottom=0;right=0;fontStyle=1;overflow=hidden;html=1;whiteSpace=wrap;strokeWidth=3;perimeterSpacing=0;" vertex="1" parent="be3Qgi7hEzFIGp2nB2z0-2">
          <mxGeometry width="60" height="30" as="geometry">
            <mxRectangle width="60" height="30" as="alternateBounds" />
          </mxGeometry>
        </mxCell>
        <mxCell id="be3Qgi7hEzFIGp2nB2z0-4" value="fafsa_id" style="shape=partialRectangle;connectable=0;fillColor=none;top=0;left=0;bottom=0;right=0;align=left;spacingLeft=6;fontStyle=5;overflow=hidden;html=1;whiteSpace=wrap;strokeWidth=3;" vertex="1" parent="be3Qgi7hEzFIGp2nB2z0-2">
          <mxGeometry x="60" width="120" height="30" as="geometry">
            <mxRectangle width="120" height="30" as="alternateBounds" />
          </mxGeometry>
        </mxCell>
        <mxCell id="be3Qgi7hEzFIGp2nB2z0-5" value="" style="shape=tableRow;horizontal=0;startSize=0;swimlaneHead=0;swimlaneBody=0;fillColor=none;collapsible=0;dropTarget=0;points=[[0,0.5],[1,0.5]];portConstraint=eastwest;top=0;left=0;right=0;bottom=1;html=1;strokeWidth=3;" vertex="1" parent="be3Qgi7hEzFIGp2nB2z0-1">
          <mxGeometry y="60" width="180" height="30" as="geometry" />
        </mxCell>
        <mxCell id="be3Qgi7hEzFIGp2nB2z0-6" value="FK1" style="shape=partialRectangle;connectable=0;fillColor=none;top=0;left=0;bottom=0;right=0;fontStyle=1;overflow=hidden;html=1;whiteSpace=wrap;strokeWidth=3;" vertex="1" parent="be3Qgi7hEzFIGp2nB2z0-5">
          <mxGeometry width="60" height="30" as="geometry">
            <mxRectangle width="60" height="30" as="alternateBounds" />
          </mxGeometry>
        </mxCell>
        <mxCell id="be3Qgi7hEzFIGp2nB2z0-7" value="account_id" style="shape=partialRectangle;connectable=0;fillColor=none;top=0;left=0;bottom=0;right=0;align=left;spacingLeft=6;fontStyle=5;overflow=hidden;html=1;whiteSpace=wrap;strokeWidth=3;" vertex="1" parent="be3Qgi7hEzFIGp2nB2z0-5">
          <mxGeometry x="60" width="120" height="30" as="geometry">
            <mxRectangle width="120" height="30" as="alternateBounds" />
          </mxGeometry>
        </mxCell>
        <mxCell id="be3Qgi7hEzFIGp2nB2z0-26" value="" style="shape=tableRow;horizontal=0;startSize=0;swimlaneHead=0;swimlaneBody=0;fillColor=none;collapsible=0;dropTarget=0;points=[[0,0.5],[1,0.5]];portConstraint=eastwest;top=0;left=0;right=0;bottom=0;html=1;strokeWidth=3;" vertex="1" parent="be3Qgi7hEzFIGp2nB2z0-1">
          <mxGeometry y="90" width="180" height="30" as="geometry" />
        </mxCell>
        <mxCell id="be3Qgi7hEzFIGp2nB2z0-27" value="" style="shape=partialRectangle;connectable=0;fillColor=none;top=0;left=0;bottom=0;right=0;editable=1;overflow=hidden;html=1;whiteSpace=wrap;strokeWidth=3;" vertex="1" parent="be3Qgi7hEzFIGp2nB2z0-26">
          <mxGeometry width="60" height="30" as="geometry">
            <mxRectangle width="60" height="30" as="alternateBounds" />
          </mxGeometry>
        </mxCell>
        <mxCell id="be3Qgi7hEzFIGp2nB2z0-28" value="schools_id" style="shape=partialRectangle;connectable=0;fillColor=none;top=0;left=0;bottom=0;right=0;align=left;spacingLeft=6;overflow=hidden;html=1;whiteSpace=wrap;strokeWidth=3;" vertex="1" parent="be3Qgi7hEzFIGp2nB2z0-26">
          <mxGeometry x="60" width="120" height="30" as="geometry">
            <mxRectangle width="120" height="30" as="alternateBounds" />
          </mxGeometry>
        </mxCell>
        <mxCell id="be3Qgi7hEzFIGp2nB2z0-29" value="" style="shape=tableRow;horizontal=0;startSize=0;swimlaneHead=0;swimlaneBody=0;fillColor=none;collapsible=0;dropTarget=0;points=[[0,0.5],[1,0.5]];portConstraint=eastwest;top=0;left=0;right=0;bottom=0;html=1;strokeWidth=3;" vertex="1" parent="be3Qgi7hEzFIGp2nB2z0-1">
          <mxGeometry y="120" width="180" height="30" as="geometry" />
        </mxCell>
        <mxCell id="be3Qgi7hEzFIGp2nB2z0-30" value="" style="shape=partialRectangle;connectable=0;fillColor=none;top=0;left=0;bottom=0;right=0;editable=1;overflow=hidden;html=1;whiteSpace=wrap;strokeWidth=3;" vertex="1" parent="be3Qgi7hEzFIGp2nB2z0-29">
          <mxGeometry width="60" height="30" as="geometry">
            <mxRectangle width="60" height="30" as="alternateBounds" />
          </mxGeometry>
        </mxCell>
        <mxCell id="be3Qgi7hEzFIGp2nB2z0-31" value="css_id" style="shape=partialRectangle;connectable=0;fillColor=none;top=0;left=0;bottom=0;right=0;align=left;spacingLeft=6;overflow=hidden;html=1;whiteSpace=wrap;strokeWidth=3;" vertex="1" parent="be3Qgi7hEzFIGp2nB2z0-29">
          <mxGeometry x="60" width="120" height="30" as="geometry">
            <mxRectangle width="120" height="30" as="alternateBounds" />
          </mxGeometry>
        </mxCell>
        <mxCell id="be3Qgi7hEzFIGp2nB2z0-66" value="" style="shape=tableRow;horizontal=0;startSize=0;swimlaneHead=0;swimlaneBody=0;fillColor=none;collapsible=0;dropTarget=0;points=[[0,0.5],[1,0.5]];portConstraint=eastwest;top=0;left=0;right=0;bottom=0;html=1;strokeWidth=3;" vertex="1" parent="be3Qgi7hEzFIGp2nB2z0-1">
          <mxGeometry y="150" width="180" height="30" as="geometry" />
        </mxCell>
        <mxCell id="be3Qgi7hEzFIGp2nB2z0-67" value="" style="shape=partialRectangle;connectable=0;fillColor=none;top=0;left=0;bottom=0;right=0;editable=1;overflow=hidden;html=1;whiteSpace=wrap;strokeWidth=3;" vertex="1" parent="be3Qgi7hEzFIGp2nB2z0-66">
          <mxGeometry width="60" height="30" as="geometry">
            <mxRectangle width="60" height="30" as="alternateBounds" />
          </mxGeometry>
        </mxCell>
        <mxCell id="be3Qgi7hEzFIGp2nB2z0-68" value="confirmation_msg" style="shape=partialRectangle;connectable=0;fillColor=none;top=0;left=0;bottom=0;right=0;align=left;spacingLeft=6;overflow=hidden;html=1;whiteSpace=wrap;strokeWidth=3;" vertex="1" parent="be3Qgi7hEzFIGp2nB2z0-66">
          <mxGeometry x="60" width="120" height="30" as="geometry">
            <mxRectangle width="120" height="30" as="alternateBounds" />
          </mxGeometry>
        </mxCell>
        <mxCell id="be3Qgi7hEzFIGp2nB2z0-35" value="" style="shape=tableRow;horizontal=0;startSize=0;swimlaneHead=0;swimlaneBody=0;fillColor=none;collapsible=0;dropTarget=0;points=[[0,0.5],[1,0.5]];portConstraint=eastwest;top=0;left=0;right=0;bottom=0;html=1;strokeWidth=3;" vertex="1" parent="be3Qgi7hEzFIGp2nB2z0-1">
          <mxGeometry y="180" width="180" height="30" as="geometry" />
        </mxCell>
        <mxCell id="be3Qgi7hEzFIGp2nB2z0-36" value="" style="shape=partialRectangle;connectable=0;fillColor=none;top=0;left=0;bottom=0;right=0;editable=1;overflow=hidden;html=1;whiteSpace=wrap;strokeWidth=3;" vertex="1" parent="be3Qgi7hEzFIGp2nB2z0-35">
          <mxGeometry width="60" height="30" as="geometry">
            <mxRectangle width="60" height="30" as="alternateBounds" />
          </mxGeometry>
        </mxCell>
        <mxCell id="be3Qgi7hEzFIGp2nB2z0-37" value="createdAt" style="shape=partialRectangle;connectable=0;fillColor=none;top=0;left=0;bottom=0;right=0;align=left;spacingLeft=6;overflow=hidden;html=1;whiteSpace=wrap;strokeWidth=3;" vertex="1" parent="be3Qgi7hEzFIGp2nB2z0-35">
          <mxGeometry x="60" width="120" height="30" as="geometry">
            <mxRectangle width="120" height="30" as="alternateBounds" />
          </mxGeometry>
        </mxCell>
        <mxCell id="be3Qgi7hEzFIGp2nB2z0-32" value="" style="shape=tableRow;horizontal=0;startSize=0;swimlaneHead=0;swimlaneBody=0;fillColor=none;collapsible=0;dropTarget=0;points=[[0,0.5],[1,0.5]];portConstraint=eastwest;top=0;left=0;right=0;bottom=0;html=1;strokeWidth=3;" vertex="1" parent="be3Qgi7hEzFIGp2nB2z0-1">
          <mxGeometry y="210" width="180" height="30" as="geometry" />
        </mxCell>
        <mxCell id="be3Qgi7hEzFIGp2nB2z0-33" value="" style="shape=partialRectangle;connectable=0;fillColor=none;top=0;left=0;bottom=0;right=0;editable=1;overflow=hidden;html=1;whiteSpace=wrap;strokeWidth=3;" vertex="1" parent="be3Qgi7hEzFIGp2nB2z0-32">
          <mxGeometry width="60" height="30" as="geometry">
            <mxRectangle width="60" height="30" as="alternateBounds" />
          </mxGeometry>
        </mxCell>
        <mxCell id="be3Qgi7hEzFIGp2nB2z0-34" value="last_updated" style="shape=partialRectangle;connectable=0;fillColor=none;top=0;left=0;bottom=0;right=0;align=left;spacingLeft=6;overflow=hidden;html=1;whiteSpace=wrap;strokeWidth=3;" vertex="1" parent="be3Qgi7hEzFIGp2nB2z0-32">
          <mxGeometry x="60" width="120" height="30" as="geometry">
            <mxRectangle width="120" height="30" as="alternateBounds" />
          </mxGeometry>
        </mxCell>
        <mxCell id="be3Qgi7hEzFIGp2nB2z0-248" value="" style="shape=tableRow;horizontal=0;startSize=0;swimlaneHead=0;swimlaneBody=0;fillColor=none;collapsible=0;dropTarget=0;points=[[0,0.5],[1,0.5]];portConstraint=eastwest;top=0;left=0;right=0;bottom=0;html=1;strokeWidth=3;" vertex="1" parent="be3Qgi7hEzFIGp2nB2z0-1">
          <mxGeometry y="240" width="180" height="30" as="geometry" />
        </mxCell>
        <mxCell id="be3Qgi7hEzFIGp2nB2z0-249" value="" style="shape=partialRectangle;connectable=0;fillColor=none;top=0;left=0;bottom=0;right=0;editable=1;overflow=hidden;html=1;whiteSpace=wrap;strokeWidth=3;" vertex="1" parent="be3Qgi7hEzFIGp2nB2z0-248">
          <mxGeometry width="60" height="30" as="geometry">
            <mxRectangle width="60" height="30" as="alternateBounds" />
          </mxGeometry>
        </mxCell>
        <mxCell id="be3Qgi7hEzFIGp2nB2z0-250" value="isDeleted" style="shape=partialRectangle;connectable=0;fillColor=none;top=0;left=0;bottom=0;right=0;align=left;spacingLeft=6;overflow=hidden;html=1;whiteSpace=wrap;strokeWidth=3;" vertex="1" parent="be3Qgi7hEzFIGp2nB2z0-248">
          <mxGeometry x="60" width="120" height="30" as="geometry">
            <mxRectangle width="120" height="30" as="alternateBounds" />
          </mxGeometry>
        </mxCell>
        <mxCell id="be3Qgi7hEzFIGp2nB2z0-137" value="FafsaStudentDetails" style="shape=table;startSize=30;container=1;collapsible=1;childLayout=tableLayout;fixedRows=1;rowLines=0;fontStyle=1;align=center;resizeLast=1;html=1;whiteSpace=wrap;fillColor=none;strokeWidth=3;" vertex="1" parent="1">
          <mxGeometry x="560.87" y="81" width="208.8800000000001" height="900" as="geometry" />
        </mxCell>
        <mxCell id="be3Qgi7hEzFIGp2nB2z0-138" value="" style="shape=tableRow;horizontal=0;startSize=0;swimlaneHead=0;swimlaneBody=0;fillColor=none;collapsible=0;dropTarget=0;points=[[0,0.5],[1,0.5]];portConstraint=eastwest;top=0;left=0;right=0;bottom=0;html=1;strokeWidth=3;" vertex="1" parent="be3Qgi7hEzFIGp2nB2z0-137">
          <mxGeometry y="30" width="208.8800000000001" height="30" as="geometry" />
        </mxCell>
        <mxCell id="be3Qgi7hEzFIGp2nB2z0-139" value="PK" style="shape=partialRectangle;connectable=0;fillColor=none;top=0;left=0;bottom=0;right=0;fontStyle=1;overflow=hidden;html=1;whiteSpace=wrap;strokeWidth=3;perimeterSpacing=0;" vertex="1" parent="be3Qgi7hEzFIGp2nB2z0-138">
          <mxGeometry width="60" height="30" as="geometry">
            <mxRectangle width="60" height="30" as="alternateBounds" />
          </mxGeometry>
        </mxCell>
        <mxCell id="be3Qgi7hEzFIGp2nB2z0-140" value="fafsaStudentDetails_id" style="shape=partialRectangle;connectable=0;fillColor=none;top=0;left=0;bottom=0;right=0;align=left;spacingLeft=6;fontStyle=5;overflow=hidden;html=1;whiteSpace=wrap;strokeWidth=3;" vertex="1" parent="be3Qgi7hEzFIGp2nB2z0-138">
          <mxGeometry x="60" width="148.8800000000001" height="30" as="geometry">
            <mxRectangle width="148.8800000000001" height="30" as="alternateBounds" />
          </mxGeometry>
        </mxCell>
        <mxCell id="be3Qgi7hEzFIGp2nB2z0-147" value="" style="shape=tableRow;horizontal=0;startSize=0;swimlaneHead=0;swimlaneBody=0;fillColor=none;collapsible=0;dropTarget=0;points=[[0,0.5],[1,0.5]];portConstraint=eastwest;top=0;left=0;right=0;bottom=0;html=1;strokeWidth=3;" vertex="1" parent="be3Qgi7hEzFIGp2nB2z0-137">
          <mxGeometry y="60" width="208.8800000000001" height="30" as="geometry" />
        </mxCell>
        <mxCell id="be3Qgi7hEzFIGp2nB2z0-148" value="&lt;b&gt;FK1&lt;/b&gt;" style="shape=partialRectangle;connectable=0;fillColor=none;top=0;left=0;bottom=0;right=0;editable=1;overflow=hidden;html=1;whiteSpace=wrap;strokeWidth=3;" vertex="1" parent="be3Qgi7hEzFIGp2nB2z0-147">
          <mxGeometry width="60" height="30" as="geometry">
            <mxRectangle width="60" height="30" as="alternateBounds" />
          </mxGeometry>
        </mxCell>
        <mxCell id="be3Qgi7hEzFIGp2nB2z0-149" value="&lt;b&gt;&lt;u&gt;address_id&lt;/u&gt;&lt;/b&gt;" style="shape=partialRectangle;connectable=0;fillColor=none;top=0;left=0;bottom=0;right=0;align=left;spacingLeft=6;overflow=hidden;html=1;whiteSpace=wrap;strokeWidth=3;" vertex="1" parent="be3Qgi7hEzFIGp2nB2z0-147">
          <mxGeometry x="60" width="148.8800000000001" height="30" as="geometry">
            <mxRectangle width="148.8800000000001" height="30" as="alternateBounds" />
          </mxGeometry>
        </mxCell>
        <mxCell id="be3Qgi7hEzFIGp2nB2z0-159" value="" style="shape=tableRow;horizontal=0;startSize=0;swimlaneHead=0;swimlaneBody=0;fillColor=none;collapsible=0;dropTarget=0;points=[[0,0.5],[1,0.5]];portConstraint=eastwest;top=0;left=0;right=0;bottom=0;html=1;strokeWidth=3;" vertex="1" parent="be3Qgi7hEzFIGp2nB2z0-137">
          <mxGeometry y="90" width="208.8800000000001" height="30" as="geometry" />
        </mxCell>
        <mxCell id="be3Qgi7hEzFIGp2nB2z0-160" value="&lt;b&gt;FK2&lt;/b&gt;" style="shape=partialRectangle;connectable=0;fillColor=none;top=0;left=0;bottom=0;right=0;editable=1;overflow=hidden;html=1;whiteSpace=wrap;strokeWidth=3;" vertex="1" parent="be3Qgi7hEzFIGp2nB2z0-159">
          <mxGeometry width="60" height="30" as="geometry">
            <mxRectangle width="60" height="30" as="alternateBounds" />
          </mxGeometry>
        </mxCell>
        <mxCell id="be3Qgi7hEzFIGp2nB2z0-161" value="&lt;b&gt;&lt;u&gt;asset_id&lt;/u&gt;&lt;/b&gt;" style="shape=partialRectangle;connectable=0;fillColor=none;top=0;left=0;bottom=0;right=0;align=left;spacingLeft=6;overflow=hidden;html=1;whiteSpace=wrap;strokeWidth=3;" vertex="1" parent="be3Qgi7hEzFIGp2nB2z0-159">
          <mxGeometry x="60" width="148.8800000000001" height="30" as="geometry">
            <mxRectangle width="148.8800000000001" height="30" as="alternateBounds" />
          </mxGeometry>
        </mxCell>
        <mxCell id="be3Qgi7hEzFIGp2nB2z0-141" value="" style="shape=tableRow;horizontal=0;startSize=0;swimlaneHead=0;swimlaneBody=0;fillColor=none;collapsible=0;dropTarget=0;points=[[0,0.5],[1,0.5]];portConstraint=eastwest;top=0;left=0;right=0;bottom=1;html=1;strokeWidth=3;" vertex="1" parent="be3Qgi7hEzFIGp2nB2z0-137">
          <mxGeometry y="120" width="208.8800000000001" height="30" as="geometry" />
        </mxCell>
        <mxCell id="be3Qgi7hEzFIGp2nB2z0-142" value="FK3" style="shape=partialRectangle;connectable=0;fillColor=none;top=0;left=0;bottom=0;right=0;fontStyle=1;overflow=hidden;html=1;whiteSpace=wrap;strokeWidth=3;" vertex="1" parent="be3Qgi7hEzFIGp2nB2z0-141">
          <mxGeometry width="60" height="30" as="geometry">
            <mxRectangle width="60" height="30" as="alternateBounds" />
          </mxGeometry>
        </mxCell>
        <mxCell id="be3Qgi7hEzFIGp2nB2z0-143" value="user_id" style="shape=partialRectangle;connectable=0;fillColor=none;top=0;left=0;bottom=0;right=0;align=left;spacingLeft=6;fontStyle=5;overflow=hidden;html=1;whiteSpace=wrap;strokeWidth=3;" vertex="1" parent="be3Qgi7hEzFIGp2nB2z0-141">
          <mxGeometry x="60" width="148.8800000000001" height="30" as="geometry">
            <mxRectangle width="148.8800000000001" height="30" as="alternateBounds" />
          </mxGeometry>
        </mxCell>
        <mxCell id="be3Qgi7hEzFIGp2nB2z0-144" value="" style="shape=tableRow;horizontal=0;startSize=0;swimlaneHead=0;swimlaneBody=0;fillColor=none;collapsible=0;dropTarget=0;points=[[0,0.5],[1,0.5]];portConstraint=eastwest;top=0;left=0;right=0;bottom=0;html=1;strokeWidth=3;" vertex="1" parent="be3Qgi7hEzFIGp2nB2z0-137">
          <mxGeometry y="150" width="208.8800000000001" height="30" as="geometry" />
        </mxCell>
        <mxCell id="be3Qgi7hEzFIGp2nB2z0-145" value="" style="shape=partialRectangle;connectable=0;fillColor=none;top=0;left=0;bottom=0;right=0;editable=1;overflow=hidden;html=1;whiteSpace=wrap;strokeWidth=3;" vertex="1" parent="be3Qgi7hEzFIGp2nB2z0-144">
          <mxGeometry width="60" height="30" as="geometry">
            <mxRectangle width="60" height="30" as="alternateBounds" />
          </mxGeometry>
        </mxCell>
        <mxCell id="be3Qgi7hEzFIGp2nB2z0-146" value="academic_year" style="shape=partialRectangle;connectable=0;fillColor=none;top=0;left=0;bottom=0;right=0;align=left;spacingLeft=6;overflow=hidden;html=1;whiteSpace=wrap;strokeWidth=3;" vertex="1" parent="be3Qgi7hEzFIGp2nB2z0-144">
          <mxGeometry x="60" width="148.8800000000001" height="30" as="geometry">
            <mxRectangle width="148.8800000000001" height="30" as="alternateBounds" />
          </mxGeometry>
        </mxCell>
        <mxCell id="be3Qgi7hEzFIGp2nB2z0-150" value="" style="shape=tableRow;horizontal=0;startSize=0;swimlaneHead=0;swimlaneBody=0;fillColor=none;collapsible=0;dropTarget=0;points=[[0,0.5],[1,0.5]];portConstraint=eastwest;top=0;left=0;right=0;bottom=0;html=1;strokeWidth=3;" vertex="1" parent="be3Qgi7hEzFIGp2nB2z0-137">
          <mxGeometry y="180" width="208.8800000000001" height="30" as="geometry" />
        </mxCell>
        <mxCell id="be3Qgi7hEzFIGp2nB2z0-151" value="" style="shape=partialRectangle;connectable=0;fillColor=none;top=0;left=0;bottom=0;right=0;editable=1;overflow=hidden;html=1;whiteSpace=wrap;strokeWidth=3;" vertex="1" parent="be3Qgi7hEzFIGp2nB2z0-150">
          <mxGeometry width="60" height="30" as="geometry">
            <mxRectangle width="60" height="30" as="alternateBounds" />
          </mxGeometry>
        </mxCell>
        <mxCell id="be3Qgi7hEzFIGp2nB2z0-152" value="social_security" style="shape=partialRectangle;connectable=0;fillColor=none;top=0;left=0;bottom=0;right=0;align=left;spacingLeft=6;overflow=hidden;html=1;whiteSpace=wrap;strokeWidth=3;" vertex="1" parent="be3Qgi7hEzFIGp2nB2z0-150">
          <mxGeometry x="60" width="148.8800000000001" height="30" as="geometry">
            <mxRectangle width="148.8800000000001" height="30" as="alternateBounds" />
          </mxGeometry>
        </mxCell>
        <mxCell id="be3Qgi7hEzFIGp2nB2z0-153" value="" style="shape=tableRow;horizontal=0;startSize=0;swimlaneHead=0;swimlaneBody=0;fillColor=none;collapsible=0;dropTarget=0;points=[[0,0.5],[1,0.5]];portConstraint=eastwest;top=0;left=0;right=0;bottom=0;html=1;strokeWidth=3;" vertex="1" parent="be3Qgi7hEzFIGp2nB2z0-137">
          <mxGeometry y="210" width="208.8800000000001" height="30" as="geometry" />
        </mxCell>
        <mxCell id="be3Qgi7hEzFIGp2nB2z0-154" value="" style="shape=partialRectangle;connectable=0;fillColor=none;top=0;left=0;bottom=0;right=0;editable=1;overflow=hidden;html=1;whiteSpace=wrap;strokeWidth=3;" vertex="1" parent="be3Qgi7hEzFIGp2nB2z0-153">
          <mxGeometry width="60" height="30" as="geometry">
            <mxRectangle width="60" height="30" as="alternateBounds" />
          </mxGeometry>
        </mxCell>
        <mxCell id="be3Qgi7hEzFIGp2nB2z0-155" value="phone" style="shape=partialRectangle;connectable=0;fillColor=none;top=0;left=0;bottom=0;right=0;align=left;spacingLeft=6;overflow=hidden;html=1;whiteSpace=wrap;strokeWidth=3;" vertex="1" parent="be3Qgi7hEzFIGp2nB2z0-153">
          <mxGeometry x="60" width="148.8800000000001" height="30" as="geometry">
            <mxRectangle width="148.8800000000001" height="30" as="alternateBounds" />
          </mxGeometry>
        </mxCell>
        <mxCell id="be3Qgi7hEzFIGp2nB2z0-156" value="" style="shape=tableRow;horizontal=0;startSize=0;swimlaneHead=0;swimlaneBody=0;fillColor=none;collapsible=0;dropTarget=0;points=[[0,0.5],[1,0.5]];portConstraint=eastwest;top=0;left=0;right=0;bottom=0;html=1;strokeWidth=3;" vertex="1" parent="be3Qgi7hEzFIGp2nB2z0-137">
          <mxGeometry y="240" width="208.8800000000001" height="30" as="geometry" />
        </mxCell>
        <mxCell id="be3Qgi7hEzFIGp2nB2z0-157" value="" style="shape=partialRectangle;connectable=0;fillColor=none;top=0;left=0;bottom=0;right=0;editable=1;overflow=hidden;html=1;whiteSpace=wrap;strokeWidth=3;" vertex="1" parent="be3Qgi7hEzFIGp2nB2z0-156">
          <mxGeometry width="60" height="30" as="geometry">
            <mxRectangle width="60" height="30" as="alternateBounds" />
          </mxGeometry>
        </mxCell>
        <mxCell id="be3Qgi7hEzFIGp2nB2z0-158" value="email" style="shape=partialRectangle;connectable=0;fillColor=none;top=0;left=0;bottom=0;right=0;align=left;spacingLeft=6;overflow=hidden;html=1;whiteSpace=wrap;strokeWidth=3;" vertex="1" parent="be3Qgi7hEzFIGp2nB2z0-156">
          <mxGeometry x="60" width="148.8800000000001" height="30" as="geometry">
            <mxRectangle width="148.8800000000001" height="30" as="alternateBounds" />
          </mxGeometry>
        </mxCell>
        <mxCell id="be3Qgi7hEzFIGp2nB2z0-480" value="" style="shape=tableRow;horizontal=0;startSize=0;swimlaneHead=0;swimlaneBody=0;fillColor=none;collapsible=0;dropTarget=0;points=[[0,0.5],[1,0.5]];portConstraint=eastwest;top=0;left=0;right=0;bottom=0;html=1;strokeWidth=3;" vertex="1" parent="be3Qgi7hEzFIGp2nB2z0-137">
          <mxGeometry y="270" width="208.8800000000001" height="30" as="geometry" />
        </mxCell>
        <mxCell id="be3Qgi7hEzFIGp2nB2z0-481" value="" style="shape=partialRectangle;connectable=0;fillColor=none;top=0;left=0;bottom=0;right=0;editable=1;overflow=hidden;html=1;whiteSpace=wrap;strokeWidth=3;" vertex="1" parent="be3Qgi7hEzFIGp2nB2z0-480">
          <mxGeometry width="60" height="30" as="geometry">
            <mxRectangle width="60" height="30" as="alternateBounds" />
          </mxGeometry>
        </mxCell>
        <mxCell id="be3Qgi7hEzFIGp2nB2z0-482" value="fafsa_username" style="shape=partialRectangle;connectable=0;fillColor=none;top=0;left=0;bottom=0;right=0;align=left;spacingLeft=6;overflow=hidden;html=1;whiteSpace=wrap;strokeWidth=3;" vertex="1" parent="be3Qgi7hEzFIGp2nB2z0-480">
          <mxGeometry x="60" width="148.8800000000001" height="30" as="geometry">
            <mxRectangle width="148.8800000000001" height="30" as="alternateBounds" />
          </mxGeometry>
        </mxCell>
        <mxCell id="be3Qgi7hEzFIGp2nB2z0-477" value="" style="shape=tableRow;horizontal=0;startSize=0;swimlaneHead=0;swimlaneBody=0;fillColor=none;collapsible=0;dropTarget=0;points=[[0,0.5],[1,0.5]];portConstraint=eastwest;top=0;left=0;right=0;bottom=0;html=1;strokeWidth=3;" vertex="1" parent="be3Qgi7hEzFIGp2nB2z0-137">
          <mxGeometry y="300" width="208.8800000000001" height="30" as="geometry" />
        </mxCell>
        <mxCell id="be3Qgi7hEzFIGp2nB2z0-478" value="" style="shape=partialRectangle;connectable=0;fillColor=none;top=0;left=0;bottom=0;right=0;editable=1;overflow=hidden;html=1;whiteSpace=wrap;strokeWidth=3;" vertex="1" parent="be3Qgi7hEzFIGp2nB2z0-477">
          <mxGeometry width="60" height="30" as="geometry">
            <mxRectangle width="60" height="30" as="alternateBounds" />
          </mxGeometry>
        </mxCell>
        <mxCell id="be3Qgi7hEzFIGp2nB2z0-479" value="fafsa_password" style="shape=partialRectangle;connectable=0;fillColor=none;top=0;left=0;bottom=0;right=0;align=left;spacingLeft=6;overflow=hidden;html=1;whiteSpace=wrap;strokeWidth=3;" vertex="1" parent="be3Qgi7hEzFIGp2nB2z0-477">
          <mxGeometry x="60" width="148.8800000000001" height="30" as="geometry">
            <mxRectangle width="148.8800000000001" height="30" as="alternateBounds" />
          </mxGeometry>
        </mxCell>
        <mxCell id="be3Qgi7hEzFIGp2nB2z0-162" value="" style="shape=tableRow;horizontal=0;startSize=0;swimlaneHead=0;swimlaneBody=0;fillColor=none;collapsible=0;dropTarget=0;points=[[0,0.5],[1,0.5]];portConstraint=eastwest;top=0;left=0;right=0;bottom=0;html=1;strokeWidth=3;" vertex="1" parent="be3Qgi7hEzFIGp2nB2z0-137">
          <mxGeometry y="330" width="208.8800000000001" height="30" as="geometry" />
        </mxCell>
        <mxCell id="be3Qgi7hEzFIGp2nB2z0-163" value="" style="shape=partialRectangle;connectable=0;fillColor=none;top=0;left=0;bottom=0;right=0;editable=1;overflow=hidden;html=1;whiteSpace=wrap;strokeWidth=3;" vertex="1" parent="be3Qgi7hEzFIGp2nB2z0-162">
          <mxGeometry width="60" height="30" as="geometry">
            <mxRectangle width="60" height="30" as="alternateBounds" />
          </mxGeometry>
        </mxCell>
        <mxCell id="be3Qgi7hEzFIGp2nB2z0-164" value="citizen_status" style="shape=partialRectangle;connectable=0;fillColor=none;top=0;left=0;bottom=0;right=0;align=left;spacingLeft=6;overflow=hidden;html=1;whiteSpace=wrap;strokeWidth=3;" vertex="1" parent="be3Qgi7hEzFIGp2nB2z0-162">
          <mxGeometry x="60" width="148.8800000000001" height="30" as="geometry">
            <mxRectangle width="148.8800000000001" height="30" as="alternateBounds" />
          </mxGeometry>
        </mxCell>
        <mxCell id="be3Qgi7hEzFIGp2nB2z0-165" value="" style="shape=tableRow;horizontal=0;startSize=0;swimlaneHead=0;swimlaneBody=0;fillColor=none;collapsible=0;dropTarget=0;points=[[0,0.5],[1,0.5]];portConstraint=eastwest;top=0;left=0;right=0;bottom=0;html=1;strokeWidth=3;" vertex="1" parent="be3Qgi7hEzFIGp2nB2z0-137">
          <mxGeometry y="360" width="208.8800000000001" height="30" as="geometry" />
        </mxCell>
        <mxCell id="be3Qgi7hEzFIGp2nB2z0-166" value="" style="shape=partialRectangle;connectable=0;fillColor=none;top=0;left=0;bottom=0;right=0;editable=1;overflow=hidden;html=1;whiteSpace=wrap;strokeWidth=3;" vertex="1" parent="be3Qgi7hEzFIGp2nB2z0-165">
          <mxGeometry width="60" height="30" as="geometry">
            <mxRectangle width="60" height="30" as="alternateBounds" />
          </mxGeometry>
        </mxCell>
        <mxCell id="be3Qgi7hEzFIGp2nB2z0-167" value="alien_number" style="shape=partialRectangle;connectable=0;fillColor=none;top=0;left=0;bottom=0;right=0;align=left;spacingLeft=6;overflow=hidden;html=1;whiteSpace=wrap;strokeWidth=3;" vertex="1" parent="be3Qgi7hEzFIGp2nB2z0-165">
          <mxGeometry x="60" width="148.8800000000001" height="30" as="geometry">
            <mxRectangle width="148.8800000000001" height="30" as="alternateBounds" />
          </mxGeometry>
        </mxCell>
        <mxCell id="be3Qgi7hEzFIGp2nB2z0-168" value="" style="shape=tableRow;horizontal=0;startSize=0;swimlaneHead=0;swimlaneBody=0;fillColor=none;collapsible=0;dropTarget=0;points=[[0,0.5],[1,0.5]];portConstraint=eastwest;top=0;left=0;right=0;bottom=0;html=1;strokeWidth=3;" vertex="1" parent="be3Qgi7hEzFIGp2nB2z0-137">
          <mxGeometry y="390" width="208.8800000000001" height="30" as="geometry" />
        </mxCell>
        <mxCell id="be3Qgi7hEzFIGp2nB2z0-169" value="" style="shape=partialRectangle;connectable=0;fillColor=none;top=0;left=0;bottom=0;right=0;editable=1;overflow=hidden;html=1;whiteSpace=wrap;strokeWidth=3;" vertex="1" parent="be3Qgi7hEzFIGp2nB2z0-168">
          <mxGeometry width="60" height="30" as="geometry">
            <mxRectangle width="60" height="30" as="alternateBounds" />
          </mxGeometry>
        </mxCell>
        <mxCell id="be3Qgi7hEzFIGp2nB2z0-170" value="marital_status" style="shape=partialRectangle;connectable=0;fillColor=none;top=0;left=0;bottom=0;right=0;align=left;spacingLeft=6;overflow=hidden;html=1;whiteSpace=wrap;strokeWidth=3;" vertex="1" parent="be3Qgi7hEzFIGp2nB2z0-168">
          <mxGeometry x="60" width="148.8800000000001" height="30" as="geometry">
            <mxRectangle width="148.8800000000001" height="30" as="alternateBounds" />
          </mxGeometry>
        </mxCell>
        <mxCell id="be3Qgi7hEzFIGp2nB2z0-171" value="" style="shape=tableRow;horizontal=0;startSize=0;swimlaneHead=0;swimlaneBody=0;fillColor=none;collapsible=0;dropTarget=0;points=[[0,0.5],[1,0.5]];portConstraint=eastwest;top=0;left=0;right=0;bottom=0;html=1;strokeWidth=3;" vertex="1" parent="be3Qgi7hEzFIGp2nB2z0-137">
          <mxGeometry y="420" width="208.8800000000001" height="30" as="geometry" />
        </mxCell>
        <mxCell id="be3Qgi7hEzFIGp2nB2z0-172" value="" style="shape=partialRectangle;connectable=0;fillColor=none;top=0;left=0;bottom=0;right=0;editable=1;overflow=hidden;html=1;whiteSpace=wrap;strokeWidth=3;" vertex="1" parent="be3Qgi7hEzFIGp2nB2z0-171">
          <mxGeometry width="60" height="30" as="geometry">
            <mxRectangle width="60" height="30" as="alternateBounds" />
          </mxGeometry>
        </mxCell>
        <mxCell id="be3Qgi7hEzFIGp2nB2z0-173" value="legal_residence_date" style="shape=partialRectangle;connectable=0;fillColor=none;top=0;left=0;bottom=0;right=0;align=left;spacingLeft=6;overflow=hidden;html=1;whiteSpace=wrap;strokeWidth=3;" vertex="1" parent="be3Qgi7hEzFIGp2nB2z0-171">
          <mxGeometry x="60" width="148.8800000000001" height="30" as="geometry">
            <mxRectangle width="148.8800000000001" height="30" as="alternateBounds" />
          </mxGeometry>
        </mxCell>
        <mxCell id="be3Qgi7hEzFIGp2nB2z0-174" value="" style="shape=tableRow;horizontal=0;startSize=0;swimlaneHead=0;swimlaneBody=0;fillColor=none;collapsible=0;dropTarget=0;points=[[0,0.5],[1,0.5]];portConstraint=eastwest;top=0;left=0;right=0;bottom=0;html=1;strokeWidth=3;" vertex="1" parent="be3Qgi7hEzFIGp2nB2z0-137">
          <mxGeometry y="450" width="208.8800000000001" height="30" as="geometry" />
        </mxCell>
        <mxCell id="be3Qgi7hEzFIGp2nB2z0-175" value="" style="shape=partialRectangle;connectable=0;fillColor=none;top=0;left=0;bottom=0;right=0;editable=1;overflow=hidden;html=1;whiteSpace=wrap;strokeWidth=3;" vertex="1" parent="be3Qgi7hEzFIGp2nB2z0-174">
          <mxGeometry width="60" height="30" as="geometry">
            <mxRectangle width="60" height="30" as="alternateBounds" />
          </mxGeometry>
        </mxCell>
        <mxCell id="be3Qgi7hEzFIGp2nB2z0-176" value="highschool_status" style="shape=partialRectangle;connectable=0;fillColor=none;top=0;left=0;bottom=0;right=0;align=left;spacingLeft=6;overflow=hidden;html=1;whiteSpace=wrap;strokeWidth=3;" vertex="1" parent="be3Qgi7hEzFIGp2nB2z0-174">
          <mxGeometry x="60" width="148.8800000000001" height="30" as="geometry">
            <mxRectangle width="148.8800000000001" height="30" as="alternateBounds" />
          </mxGeometry>
        </mxCell>
        <mxCell id="be3Qgi7hEzFIGp2nB2z0-177" value="" style="shape=tableRow;horizontal=0;startSize=0;swimlaneHead=0;swimlaneBody=0;fillColor=none;collapsible=0;dropTarget=0;points=[[0,0.5],[1,0.5]];portConstraint=eastwest;top=0;left=0;right=0;bottom=0;html=1;strokeWidth=3;" vertex="1" parent="be3Qgi7hEzFIGp2nB2z0-137">
          <mxGeometry y="480" width="208.8800000000001" height="30" as="geometry" />
        </mxCell>
        <mxCell id="be3Qgi7hEzFIGp2nB2z0-178" value="" style="shape=partialRectangle;connectable=0;fillColor=none;top=0;left=0;bottom=0;right=0;editable=1;overflow=hidden;html=1;whiteSpace=wrap;strokeWidth=3;" vertex="1" parent="be3Qgi7hEzFIGp2nB2z0-177">
          <mxGeometry width="60" height="30" as="geometry">
            <mxRectangle width="60" height="30" as="alternateBounds" />
          </mxGeometry>
        </mxCell>
        <mxCell id="be3Qgi7hEzFIGp2nB2z0-179" value="highschool_name" style="shape=partialRectangle;connectable=0;fillColor=none;top=0;left=0;bottom=0;right=0;align=left;spacingLeft=6;overflow=hidden;html=1;whiteSpace=wrap;strokeWidth=3;" vertex="1" parent="be3Qgi7hEzFIGp2nB2z0-177">
          <mxGeometry x="60" width="148.8800000000001" height="30" as="geometry">
            <mxRectangle width="148.8800000000001" height="30" as="alternateBounds" />
          </mxGeometry>
        </mxCell>
        <mxCell id="be3Qgi7hEzFIGp2nB2z0-180" value="" style="shape=tableRow;horizontal=0;startSize=0;swimlaneHead=0;swimlaneBody=0;fillColor=none;collapsible=0;dropTarget=0;points=[[0,0.5],[1,0.5]];portConstraint=eastwest;top=0;left=0;right=0;bottom=0;html=1;strokeWidth=3;" vertex="1" parent="be3Qgi7hEzFIGp2nB2z0-137">
          <mxGeometry y="510" width="208.8800000000001" height="30" as="geometry" />
        </mxCell>
        <mxCell id="be3Qgi7hEzFIGp2nB2z0-181" value="" style="shape=partialRectangle;connectable=0;fillColor=none;top=0;left=0;bottom=0;right=0;editable=1;overflow=hidden;html=1;whiteSpace=wrap;strokeWidth=3;" vertex="1" parent="be3Qgi7hEzFIGp2nB2z0-180">
          <mxGeometry width="60" height="30" as="geometry">
            <mxRectangle width="60" height="30" as="alternateBounds" />
          </mxGeometry>
        </mxCell>
        <mxCell id="be3Qgi7hEzFIGp2nB2z0-182" value="highschool_city" style="shape=partialRectangle;connectable=0;fillColor=none;top=0;left=0;bottom=0;right=0;align=left;spacingLeft=6;overflow=hidden;html=1;whiteSpace=wrap;strokeWidth=3;" vertex="1" parent="be3Qgi7hEzFIGp2nB2z0-180">
          <mxGeometry x="60" width="148.8800000000001" height="30" as="geometry">
            <mxRectangle width="148.8800000000001" height="30" as="alternateBounds" />
          </mxGeometry>
        </mxCell>
        <mxCell id="be3Qgi7hEzFIGp2nB2z0-183" value="" style="shape=tableRow;horizontal=0;startSize=0;swimlaneHead=0;swimlaneBody=0;fillColor=none;collapsible=0;dropTarget=0;points=[[0,0.5],[1,0.5]];portConstraint=eastwest;top=0;left=0;right=0;bottom=0;html=1;strokeWidth=3;" vertex="1" parent="be3Qgi7hEzFIGp2nB2z0-137">
          <mxGeometry y="540" width="208.8800000000001" height="30" as="geometry" />
        </mxCell>
        <mxCell id="be3Qgi7hEzFIGp2nB2z0-184" value="" style="shape=partialRectangle;connectable=0;fillColor=none;top=0;left=0;bottom=0;right=0;editable=1;overflow=hidden;html=1;whiteSpace=wrap;strokeWidth=3;" vertex="1" parent="be3Qgi7hEzFIGp2nB2z0-183">
          <mxGeometry width="60" height="30" as="geometry">
            <mxRectangle width="60" height="30" as="alternateBounds" />
          </mxGeometry>
        </mxCell>
        <mxCell id="be3Qgi7hEzFIGp2nB2z0-185" value="highschool_state" style="shape=partialRectangle;connectable=0;fillColor=none;top=0;left=0;bottom=0;right=0;align=left;spacingLeft=6;overflow=hidden;html=1;whiteSpace=wrap;strokeWidth=3;" vertex="1" parent="be3Qgi7hEzFIGp2nB2z0-183">
          <mxGeometry x="60" width="148.8800000000001" height="30" as="geometry">
            <mxRectangle width="148.8800000000001" height="30" as="alternateBounds" />
          </mxGeometry>
        </mxCell>
        <mxCell id="be3Qgi7hEzFIGp2nB2z0-186" value="" style="shape=tableRow;horizontal=0;startSize=0;swimlaneHead=0;swimlaneBody=0;fillColor=none;collapsible=0;dropTarget=0;points=[[0,0.5],[1,0.5]];portConstraint=eastwest;top=0;left=0;right=0;bottom=0;html=1;strokeWidth=3;" vertex="1" parent="be3Qgi7hEzFIGp2nB2z0-137">
          <mxGeometry y="570" width="208.8800000000001" height="30" as="geometry" />
        </mxCell>
        <mxCell id="be3Qgi7hEzFIGp2nB2z0-187" value="" style="shape=partialRectangle;connectable=0;fillColor=none;top=0;left=0;bottom=0;right=0;editable=1;overflow=hidden;html=1;whiteSpace=wrap;strokeWidth=3;" vertex="1" parent="be3Qgi7hEzFIGp2nB2z0-186">
          <mxGeometry width="60" height="30" as="geometry">
            <mxRectangle width="60" height="30" as="alternateBounds" />
          </mxGeometry>
        </mxCell>
        <mxCell id="be3Qgi7hEzFIGp2nB2z0-188" value="grade_level" style="shape=partialRectangle;connectable=0;fillColor=none;top=0;left=0;bottom=0;right=0;align=left;spacingLeft=6;overflow=hidden;html=1;whiteSpace=wrap;strokeWidth=3;" vertex="1" parent="be3Qgi7hEzFIGp2nB2z0-186">
          <mxGeometry x="60" width="148.8800000000001" height="30" as="geometry">
            <mxRectangle width="148.8800000000001" height="30" as="alternateBounds" />
          </mxGeometry>
        </mxCell>
        <mxCell id="be3Qgi7hEzFIGp2nB2z0-189" value="" style="shape=tableRow;horizontal=0;startSize=0;swimlaneHead=0;swimlaneBody=0;fillColor=none;collapsible=0;dropTarget=0;points=[[0,0.5],[1,0.5]];portConstraint=eastwest;top=0;left=0;right=0;bottom=0;html=1;strokeWidth=3;" vertex="1" parent="be3Qgi7hEzFIGp2nB2z0-137">
          <mxGeometry y="600" width="208.8800000000001" height="30" as="geometry" />
        </mxCell>
        <mxCell id="be3Qgi7hEzFIGp2nB2z0-190" value="" style="shape=partialRectangle;connectable=0;fillColor=none;top=0;left=0;bottom=0;right=0;editable=1;overflow=hidden;html=1;whiteSpace=wrap;strokeWidth=3;" vertex="1" parent="be3Qgi7hEzFIGp2nB2z0-189">
          <mxGeometry width="60" height="30" as="geometry">
            <mxRectangle width="60" height="30" as="alternateBounds" />
          </mxGeometry>
        </mxCell>
        <mxCell id="be3Qgi7hEzFIGp2nB2z0-191" value="active_duty" style="shape=partialRectangle;connectable=0;fillColor=none;top=0;left=0;bottom=0;right=0;align=left;spacingLeft=6;overflow=hidden;html=1;whiteSpace=wrap;strokeWidth=3;" vertex="1" parent="be3Qgi7hEzFIGp2nB2z0-189">
          <mxGeometry x="60" width="148.8800000000001" height="30" as="geometry">
            <mxRectangle width="148.8800000000001" height="30" as="alternateBounds" />
          </mxGeometry>
        </mxCell>
        <mxCell id="be3Qgi7hEzFIGp2nB2z0-192" value="" style="shape=tableRow;horizontal=0;startSize=0;swimlaneHead=0;swimlaneBody=0;fillColor=none;collapsible=0;dropTarget=0;points=[[0,0.5],[1,0.5]];portConstraint=eastwest;top=0;left=0;right=0;bottom=0;html=1;strokeWidth=3;" vertex="1" parent="be3Qgi7hEzFIGp2nB2z0-137">
          <mxGeometry y="630" width="208.8800000000001" height="30" as="geometry" />
        </mxCell>
        <mxCell id="be3Qgi7hEzFIGp2nB2z0-193" value="" style="shape=partialRectangle;connectable=0;fillColor=none;top=0;left=0;bottom=0;right=0;editable=1;overflow=hidden;html=1;whiteSpace=wrap;strokeWidth=3;" vertex="1" parent="be3Qgi7hEzFIGp2nB2z0-192">
          <mxGeometry width="60" height="30" as="geometry">
            <mxRectangle width="60" height="30" as="alternateBounds" />
          </mxGeometry>
        </mxCell>
        <mxCell id="be3Qgi7hEzFIGp2nB2z0-194" value="is_veteran" style="shape=partialRectangle;connectable=0;fillColor=none;top=0;left=0;bottom=0;right=0;align=left;spacingLeft=6;overflow=hidden;html=1;whiteSpace=wrap;strokeWidth=3;" vertex="1" parent="be3Qgi7hEzFIGp2nB2z0-192">
          <mxGeometry x="60" width="148.8800000000001" height="30" as="geometry">
            <mxRectangle width="148.8800000000001" height="30" as="alternateBounds" />
          </mxGeometry>
        </mxCell>
        <mxCell id="be3Qgi7hEzFIGp2nB2z0-195" value="" style="shape=tableRow;horizontal=0;startSize=0;swimlaneHead=0;swimlaneBody=0;fillColor=none;collapsible=0;dropTarget=0;points=[[0,0.5],[1,0.5]];portConstraint=eastwest;top=0;left=0;right=0;bottom=0;html=1;strokeWidth=3;" vertex="1" parent="be3Qgi7hEzFIGp2nB2z0-137">
          <mxGeometry y="660" width="208.8800000000001" height="30" as="geometry" />
        </mxCell>
        <mxCell id="be3Qgi7hEzFIGp2nB2z0-196" value="" style="shape=partialRectangle;connectable=0;fillColor=none;top=0;left=0;bottom=0;right=0;editable=1;overflow=hidden;html=1;whiteSpace=wrap;strokeWidth=3;" vertex="1" parent="be3Qgi7hEzFIGp2nB2z0-195">
          <mxGeometry width="60" height="30" as="geometry">
            <mxRectangle width="60" height="30" as="alternateBounds" />
          </mxGeometry>
        </mxCell>
        <mxCell id="be3Qgi7hEzFIGp2nB2z0-197" value="has_children" style="shape=partialRectangle;connectable=0;fillColor=none;top=0;left=0;bottom=0;right=0;align=left;spacingLeft=6;overflow=hidden;html=1;whiteSpace=wrap;strokeWidth=3;" vertex="1" parent="be3Qgi7hEzFIGp2nB2z0-195">
          <mxGeometry x="60" width="148.8800000000001" height="30" as="geometry">
            <mxRectangle width="148.8800000000001" height="30" as="alternateBounds" />
          </mxGeometry>
        </mxCell>
        <mxCell id="be3Qgi7hEzFIGp2nB2z0-198" value="" style="shape=tableRow;horizontal=0;startSize=0;swimlaneHead=0;swimlaneBody=0;fillColor=none;collapsible=0;dropTarget=0;points=[[0,0.5],[1,0.5]];portConstraint=eastwest;top=0;left=0;right=0;bottom=0;html=1;strokeWidth=3;" vertex="1" parent="be3Qgi7hEzFIGp2nB2z0-137">
          <mxGeometry y="690" width="208.8800000000001" height="30" as="geometry" />
        </mxCell>
        <mxCell id="be3Qgi7hEzFIGp2nB2z0-199" value="" style="shape=partialRectangle;connectable=0;fillColor=none;top=0;left=0;bottom=0;right=0;editable=1;overflow=hidden;html=1;whiteSpace=wrap;strokeWidth=3;" vertex="1" parent="be3Qgi7hEzFIGp2nB2z0-198">
          <mxGeometry width="60" height="30" as="geometry">
            <mxRectangle width="60" height="30" as="alternateBounds" />
          </mxGeometry>
        </mxCell>
        <mxCell id="be3Qgi7hEzFIGp2nB2z0-200" value="has_dependents" style="shape=partialRectangle;connectable=0;fillColor=none;top=0;left=0;bottom=0;right=0;align=left;spacingLeft=6;overflow=hidden;html=1;whiteSpace=wrap;strokeWidth=3;" vertex="1" parent="be3Qgi7hEzFIGp2nB2z0-198">
          <mxGeometry x="60" width="148.8800000000001" height="30" as="geometry">
            <mxRectangle width="148.8800000000001" height="30" as="alternateBounds" />
          </mxGeometry>
        </mxCell>
        <mxCell id="be3Qgi7hEzFIGp2nB2z0-201" value="" style="shape=tableRow;horizontal=0;startSize=0;swimlaneHead=0;swimlaneBody=0;fillColor=none;collapsible=0;dropTarget=0;points=[[0,0.5],[1,0.5]];portConstraint=eastwest;top=0;left=0;right=0;bottom=0;html=1;strokeWidth=3;" vertex="1" parent="be3Qgi7hEzFIGp2nB2z0-137">
          <mxGeometry y="720" width="208.8800000000001" height="30" as="geometry" />
        </mxCell>
        <mxCell id="be3Qgi7hEzFIGp2nB2z0-202" value="" style="shape=partialRectangle;connectable=0;fillColor=none;top=0;left=0;bottom=0;right=0;editable=1;overflow=hidden;html=1;whiteSpace=wrap;strokeWidth=3;" vertex="1" parent="be3Qgi7hEzFIGp2nB2z0-201">
          <mxGeometry width="60" height="30" as="geometry">
            <mxRectangle width="60" height="30" as="alternateBounds" />
          </mxGeometry>
        </mxCell>
        <mxCell id="be3Qgi7hEzFIGp2nB2z0-203" value="was_orphan" style="shape=partialRectangle;connectable=0;fillColor=none;top=0;left=0;bottom=0;right=0;align=left;spacingLeft=6;overflow=hidden;html=1;whiteSpace=wrap;strokeWidth=3;" vertex="1" parent="be3Qgi7hEzFIGp2nB2z0-201">
          <mxGeometry x="60" width="148.8800000000001" height="30" as="geometry">
            <mxRectangle width="148.8800000000001" height="30" as="alternateBounds" />
          </mxGeometry>
        </mxCell>
        <mxCell id="be3Qgi7hEzFIGp2nB2z0-204" value="" style="shape=tableRow;horizontal=0;startSize=0;swimlaneHead=0;swimlaneBody=0;fillColor=none;collapsible=0;dropTarget=0;points=[[0,0.5],[1,0.5]];portConstraint=eastwest;top=0;left=0;right=0;bottom=0;html=1;strokeWidth=3;" vertex="1" parent="be3Qgi7hEzFIGp2nB2z0-137">
          <mxGeometry y="750" width="208.8800000000001" height="30" as="geometry" />
        </mxCell>
        <mxCell id="be3Qgi7hEzFIGp2nB2z0-205" value="" style="shape=partialRectangle;connectable=0;fillColor=none;top=0;left=0;bottom=0;right=0;editable=1;overflow=hidden;html=1;whiteSpace=wrap;strokeWidth=3;" vertex="1" parent="be3Qgi7hEzFIGp2nB2z0-204">
          <mxGeometry width="60" height="30" as="geometry">
            <mxRectangle width="60" height="30" as="alternateBounds" />
          </mxGeometry>
        </mxCell>
        <mxCell id="be3Qgi7hEzFIGp2nB2z0-206" value="foster_care" style="shape=partialRectangle;connectable=0;fillColor=none;top=0;left=0;bottom=0;right=0;align=left;spacingLeft=6;overflow=hidden;html=1;whiteSpace=wrap;strokeWidth=3;" vertex="1" parent="be3Qgi7hEzFIGp2nB2z0-204">
          <mxGeometry x="60" width="148.8800000000001" height="30" as="geometry">
            <mxRectangle width="148.8800000000001" height="30" as="alternateBounds" />
          </mxGeometry>
        </mxCell>
        <mxCell id="be3Qgi7hEzFIGp2nB2z0-207" value="" style="shape=tableRow;horizontal=0;startSize=0;swimlaneHead=0;swimlaneBody=0;fillColor=none;collapsible=0;dropTarget=0;points=[[0,0.5],[1,0.5]];portConstraint=eastwest;top=0;left=0;right=0;bottom=0;html=1;strokeWidth=3;" vertex="1" parent="be3Qgi7hEzFIGp2nB2z0-137">
          <mxGeometry y="780" width="208.8800000000001" height="30" as="geometry" />
        </mxCell>
        <mxCell id="be3Qgi7hEzFIGp2nB2z0-208" value="" style="shape=partialRectangle;connectable=0;fillColor=none;top=0;left=0;bottom=0;right=0;editable=1;overflow=hidden;html=1;whiteSpace=wrap;strokeWidth=3;" vertex="1" parent="be3Qgi7hEzFIGp2nB2z0-207">
          <mxGeometry width="60" height="30" as="geometry">
            <mxRectangle width="60" height="30" as="alternateBounds" />
          </mxGeometry>
        </mxCell>
        <mxCell id="be3Qgi7hEzFIGp2nB2z0-209" value="emancipated_minor" style="shape=partialRectangle;connectable=0;fillColor=none;top=0;left=0;bottom=0;right=0;align=left;spacingLeft=6;overflow=hidden;html=1;whiteSpace=wrap;strokeWidth=3;" vertex="1" parent="be3Qgi7hEzFIGp2nB2z0-207">
          <mxGeometry x="60" width="148.8800000000001" height="30" as="geometry">
            <mxRectangle width="148.8800000000001" height="30" as="alternateBounds" />
          </mxGeometry>
        </mxCell>
        <mxCell id="be3Qgi7hEzFIGp2nB2z0-210" value="" style="shape=tableRow;horizontal=0;startSize=0;swimlaneHead=0;swimlaneBody=0;fillColor=none;collapsible=0;dropTarget=0;points=[[0,0.5],[1,0.5]];portConstraint=eastwest;top=0;left=0;right=0;bottom=0;html=1;strokeWidth=3;" vertex="1" parent="be3Qgi7hEzFIGp2nB2z0-137">
          <mxGeometry y="810" width="208.8800000000001" height="30" as="geometry" />
        </mxCell>
        <mxCell id="be3Qgi7hEzFIGp2nB2z0-211" value="" style="shape=partialRectangle;connectable=0;fillColor=none;top=0;left=0;bottom=0;right=0;editable=1;overflow=hidden;html=1;whiteSpace=wrap;strokeWidth=3;" vertex="1" parent="be3Qgi7hEzFIGp2nB2z0-210">
          <mxGeometry width="60" height="30" as="geometry">
            <mxRectangle width="60" height="30" as="alternateBounds" />
          </mxGeometry>
        </mxCell>
        <mxCell id="be3Qgi7hEzFIGp2nB2z0-212" value="was_homeless" style="shape=partialRectangle;connectable=0;fillColor=none;top=0;left=0;bottom=0;right=0;align=left;spacingLeft=6;overflow=hidden;html=1;whiteSpace=wrap;strokeWidth=3;" vertex="1" parent="be3Qgi7hEzFIGp2nB2z0-210">
          <mxGeometry x="60" width="148.8800000000001" height="30" as="geometry">
            <mxRectangle width="148.8800000000001" height="30" as="alternateBounds" />
          </mxGeometry>
        </mxCell>
        <mxCell id="be3Qgi7hEzFIGp2nB2z0-303" value="" style="shape=tableRow;horizontal=0;startSize=0;swimlaneHead=0;swimlaneBody=0;fillColor=none;collapsible=0;dropTarget=0;points=[[0,0.5],[1,0.5]];portConstraint=eastwest;top=0;left=0;right=0;bottom=0;html=1;strokeWidth=3;" vertex="1" parent="be3Qgi7hEzFIGp2nB2z0-137">
          <mxGeometry y="840" width="208.8800000000001" height="30" as="geometry" />
        </mxCell>
        <mxCell id="be3Qgi7hEzFIGp2nB2z0-304" value="" style="shape=partialRectangle;connectable=0;fillColor=none;top=0;left=0;bottom=0;right=0;editable=1;overflow=hidden;html=1;whiteSpace=wrap;strokeWidth=3;" vertex="1" parent="be3Qgi7hEzFIGp2nB2z0-303">
          <mxGeometry width="60" height="30" as="geometry">
            <mxRectangle width="60" height="30" as="alternateBounds" />
          </mxGeometry>
        </mxCell>
        <mxCell id="be3Qgi7hEzFIGp2nB2z0-305" value="tax_return" style="shape=partialRectangle;connectable=0;fillColor=none;top=0;left=0;bottom=0;right=0;align=left;spacingLeft=6;overflow=hidden;html=1;whiteSpace=wrap;strokeWidth=3;" vertex="1" parent="be3Qgi7hEzFIGp2nB2z0-303">
          <mxGeometry x="60" width="148.8800000000001" height="30" as="geometry">
            <mxRectangle width="148.8800000000001" height="30" as="alternateBounds" />
          </mxGeometry>
        </mxCell>
        <mxCell id="be3Qgi7hEzFIGp2nB2z0-603" value="" style="shape=tableRow;horizontal=0;startSize=0;swimlaneHead=0;swimlaneBody=0;fillColor=none;collapsible=0;dropTarget=0;points=[[0,0.5],[1,0.5]];portConstraint=eastwest;top=0;left=0;right=0;bottom=0;html=1;strokeWidth=3;" vertex="1" parent="be3Qgi7hEzFIGp2nB2z0-137">
          <mxGeometry y="870" width="208.8800000000001" height="30" as="geometry" />
        </mxCell>
        <mxCell id="be3Qgi7hEzFIGp2nB2z0-604" value="" style="shape=partialRectangle;connectable=0;fillColor=none;top=0;left=0;bottom=0;right=0;editable=1;overflow=hidden;html=1;whiteSpace=wrap;strokeWidth=3;" vertex="1" parent="be3Qgi7hEzFIGp2nB2z0-603">
          <mxGeometry width="60" height="30" as="geometry">
            <mxRectangle width="60" height="30" as="alternateBounds" />
          </mxGeometry>
        </mxCell>
        <mxCell id="be3Qgi7hEzFIGp2nB2z0-605" value="date_created" style="shape=partialRectangle;connectable=0;fillColor=none;top=0;left=0;bottom=0;right=0;align=left;spacingLeft=6;overflow=hidden;html=1;whiteSpace=wrap;strokeWidth=3;" vertex="1" parent="be3Qgi7hEzFIGp2nB2z0-603">
          <mxGeometry x="60" width="148.8800000000001" height="30" as="geometry">
            <mxRectangle width="148.8800000000001" height="30" as="alternateBounds" />
          </mxGeometry>
        </mxCell>
        <mxCell id="be3Qgi7hEzFIGp2nB2z0-213" value="Account" style="shape=table;startSize=30;container=1;collapsible=1;childLayout=tableLayout;fixedRows=1;rowLines=0;fontStyle=1;align=center;resizeLast=1;html=1;whiteSpace=wrap;fillColor=none;strokeWidth=3;" vertex="1" parent="1">
          <mxGeometry x="40" y="468" width="180" height="180" as="geometry" />
        </mxCell>
        <mxCell id="be3Qgi7hEzFIGp2nB2z0-217" value="" style="shape=tableRow;horizontal=0;startSize=0;swimlaneHead=0;swimlaneBody=0;fillColor=none;collapsible=0;dropTarget=0;points=[[0,0.5],[1,0.5]];portConstraint=eastwest;top=0;left=0;right=0;bottom=1;html=1;strokeWidth=3;" vertex="1" parent="be3Qgi7hEzFIGp2nB2z0-213">
          <mxGeometry y="30" width="180" height="30" as="geometry" />
        </mxCell>
        <mxCell id="be3Qgi7hEzFIGp2nB2z0-218" value="PK" style="shape=partialRectangle;connectable=0;fillColor=none;top=0;left=0;bottom=0;right=0;fontStyle=1;overflow=hidden;html=1;whiteSpace=wrap;strokeWidth=3;" vertex="1" parent="be3Qgi7hEzFIGp2nB2z0-217">
          <mxGeometry width="60" height="30" as="geometry">
            <mxRectangle width="60" height="30" as="alternateBounds" />
          </mxGeometry>
        </mxCell>
        <mxCell id="be3Qgi7hEzFIGp2nB2z0-219" value="account_id" style="shape=partialRectangle;connectable=0;fillColor=none;top=0;left=0;bottom=0;right=0;align=left;spacingLeft=6;fontStyle=5;overflow=hidden;html=1;whiteSpace=wrap;strokeWidth=3;" vertex="1" parent="be3Qgi7hEzFIGp2nB2z0-217">
          <mxGeometry x="60" width="120" height="30" as="geometry">
            <mxRectangle width="120" height="30" as="alternateBounds" />
          </mxGeometry>
        </mxCell>
        <mxCell id="be3Qgi7hEzFIGp2nB2z0-220" value="" style="shape=tableRow;horizontal=0;startSize=0;swimlaneHead=0;swimlaneBody=0;fillColor=none;collapsible=0;dropTarget=0;points=[[0,0.5],[1,0.5]];portConstraint=eastwest;top=0;left=0;right=0;bottom=0;html=1;strokeWidth=3;" vertex="1" parent="be3Qgi7hEzFIGp2nB2z0-213">
          <mxGeometry y="60" width="180" height="30" as="geometry" />
        </mxCell>
        <mxCell id="be3Qgi7hEzFIGp2nB2z0-221" value="" style="shape=partialRectangle;connectable=0;fillColor=none;top=0;left=0;bottom=0;right=0;editable=1;overflow=hidden;html=1;whiteSpace=wrap;strokeWidth=3;" vertex="1" parent="be3Qgi7hEzFIGp2nB2z0-220">
          <mxGeometry width="60" height="30" as="geometry">
            <mxRectangle width="60" height="30" as="alternateBounds" />
          </mxGeometry>
        </mxCell>
        <mxCell id="be3Qgi7hEzFIGp2nB2z0-222" value="username" style="shape=partialRectangle;connectable=0;fillColor=none;top=0;left=0;bottom=0;right=0;align=left;spacingLeft=6;overflow=hidden;html=1;whiteSpace=wrap;strokeWidth=3;" vertex="1" parent="be3Qgi7hEzFIGp2nB2z0-220">
          <mxGeometry x="60" width="120" height="30" as="geometry">
            <mxRectangle width="120" height="30" as="alternateBounds" />
          </mxGeometry>
        </mxCell>
        <mxCell id="be3Qgi7hEzFIGp2nB2z0-223" value="" style="shape=tableRow;horizontal=0;startSize=0;swimlaneHead=0;swimlaneBody=0;fillColor=none;collapsible=0;dropTarget=0;points=[[0,0.5],[1,0.5]];portConstraint=eastwest;top=0;left=0;right=0;bottom=0;html=1;strokeWidth=3;" vertex="1" parent="be3Qgi7hEzFIGp2nB2z0-213">
          <mxGeometry y="90" width="180" height="30" as="geometry" />
        </mxCell>
        <mxCell id="be3Qgi7hEzFIGp2nB2z0-224" value="" style="shape=partialRectangle;connectable=0;fillColor=none;top=0;left=0;bottom=0;right=0;editable=1;overflow=hidden;html=1;whiteSpace=wrap;strokeWidth=3;" vertex="1" parent="be3Qgi7hEzFIGp2nB2z0-223">
          <mxGeometry width="60" height="30" as="geometry">
            <mxRectangle width="60" height="30" as="alternateBounds" />
          </mxGeometry>
        </mxCell>
        <mxCell id="be3Qgi7hEzFIGp2nB2z0-225" value="password" style="shape=partialRectangle;connectable=0;fillColor=none;top=0;left=0;bottom=0;right=0;align=left;spacingLeft=6;overflow=hidden;html=1;whiteSpace=wrap;strokeWidth=3;" vertex="1" parent="be3Qgi7hEzFIGp2nB2z0-223">
          <mxGeometry x="60" width="120" height="30" as="geometry">
            <mxRectangle width="120" height="30" as="alternateBounds" />
          </mxGeometry>
        </mxCell>
        <mxCell id="be3Qgi7hEzFIGp2nB2z0-226" value="" style="shape=tableRow;horizontal=0;startSize=0;swimlaneHead=0;swimlaneBody=0;fillColor=none;collapsible=0;dropTarget=0;points=[[0,0.5],[1,0.5]];portConstraint=eastwest;top=0;left=0;right=0;bottom=0;html=1;strokeWidth=3;" vertex="1" parent="be3Qgi7hEzFIGp2nB2z0-213">
          <mxGeometry y="120" width="180" height="30" as="geometry" />
        </mxCell>
        <mxCell id="be3Qgi7hEzFIGp2nB2z0-227" value="" style="shape=partialRectangle;connectable=0;fillColor=none;top=0;left=0;bottom=0;right=0;editable=1;overflow=hidden;html=1;whiteSpace=wrap;strokeWidth=3;" vertex="1" parent="be3Qgi7hEzFIGp2nB2z0-226">
          <mxGeometry width="60" height="30" as="geometry">
            <mxRectangle width="60" height="30" as="alternateBounds" />
          </mxGeometry>
        </mxCell>
        <mxCell id="be3Qgi7hEzFIGp2nB2z0-228" value="email" style="shape=partialRectangle;connectable=0;fillColor=none;top=0;left=0;bottom=0;right=0;align=left;spacingLeft=6;overflow=hidden;html=1;whiteSpace=wrap;strokeWidth=3;" vertex="1" parent="be3Qgi7hEzFIGp2nB2z0-226">
          <mxGeometry x="60" width="120" height="30" as="geometry">
            <mxRectangle width="120" height="30" as="alternateBounds" />
          </mxGeometry>
        </mxCell>
        <mxCell id="be3Qgi7hEzFIGp2nB2z0-229" value="" style="shape=tableRow;horizontal=0;startSize=0;swimlaneHead=0;swimlaneBody=0;fillColor=none;collapsible=0;dropTarget=0;points=[[0,0.5],[1,0.5]];portConstraint=eastwest;top=0;left=0;right=0;bottom=0;html=1;strokeWidth=3;" vertex="1" parent="be3Qgi7hEzFIGp2nB2z0-213">
          <mxGeometry y="150" width="180" height="30" as="geometry" />
        </mxCell>
        <mxCell id="be3Qgi7hEzFIGp2nB2z0-230" value="" style="shape=partialRectangle;connectable=0;fillColor=none;top=0;left=0;bottom=0;right=0;editable=1;overflow=hidden;html=1;whiteSpace=wrap;strokeWidth=3;" vertex="1" parent="be3Qgi7hEzFIGp2nB2z0-229">
          <mxGeometry width="60" height="30" as="geometry">
            <mxRectangle width="60" height="30" as="alternateBounds" />
          </mxGeometry>
        </mxCell>
        <mxCell id="be3Qgi7hEzFIGp2nB2z0-231" value="phone" style="shape=partialRectangle;connectable=0;fillColor=none;top=0;left=0;bottom=0;right=0;align=left;spacingLeft=6;overflow=hidden;html=1;whiteSpace=wrap;strokeWidth=3;" vertex="1" parent="be3Qgi7hEzFIGp2nB2z0-229">
          <mxGeometry x="60" width="120" height="30" as="geometry">
            <mxRectangle width="120" height="30" as="alternateBounds" />
          </mxGeometry>
        </mxCell>
        <mxCell id="be3Qgi7hEzFIGp2nB2z0-232" value="Address" style="shape=table;startSize=30;container=1;collapsible=1;childLayout=tableLayout;fixedRows=1;rowLines=0;fontStyle=1;align=center;resizeLast=1;html=1;whiteSpace=wrap;fillColor=none;strokeWidth=3;" vertex="1" parent="1">
          <mxGeometry x="320.87" y="289" width="201.75" height="210" as="geometry" />
        </mxCell>
        <mxCell id="be3Qgi7hEzFIGp2nB2z0-233" value="" style="shape=tableRow;horizontal=0;startSize=0;swimlaneHead=0;swimlaneBody=0;fillColor=none;collapsible=0;dropTarget=0;points=[[0,0.5],[1,0.5]];portConstraint=eastwest;top=0;left=0;right=0;bottom=1;html=1;strokeWidth=3;" vertex="1" parent="be3Qgi7hEzFIGp2nB2z0-232">
          <mxGeometry y="30" width="201.75" height="30" as="geometry" />
        </mxCell>
        <mxCell id="be3Qgi7hEzFIGp2nB2z0-234" value="PK" style="shape=partialRectangle;connectable=0;fillColor=none;top=0;left=0;bottom=0;right=0;fontStyle=1;overflow=hidden;html=1;whiteSpace=wrap;strokeWidth=3;" vertex="1" parent="be3Qgi7hEzFIGp2nB2z0-233">
          <mxGeometry width="60" height="30" as="geometry">
            <mxRectangle width="60" height="30" as="alternateBounds" />
          </mxGeometry>
        </mxCell>
        <mxCell id="be3Qgi7hEzFIGp2nB2z0-235" value="address_id" style="shape=partialRectangle;connectable=0;fillColor=none;top=0;left=0;bottom=0;right=0;align=left;spacingLeft=6;fontStyle=5;overflow=hidden;html=1;whiteSpace=wrap;strokeWidth=3;" vertex="1" parent="be3Qgi7hEzFIGp2nB2z0-233">
          <mxGeometry x="60" width="141.75" height="30" as="geometry">
            <mxRectangle width="141.75" height="30" as="alternateBounds" />
          </mxGeometry>
        </mxCell>
        <mxCell id="be3Qgi7hEzFIGp2nB2z0-236" value="" style="shape=tableRow;horizontal=0;startSize=0;swimlaneHead=0;swimlaneBody=0;fillColor=none;collapsible=0;dropTarget=0;points=[[0,0.5],[1,0.5]];portConstraint=eastwest;top=0;left=0;right=0;bottom=0;html=1;strokeWidth=3;" vertex="1" parent="be3Qgi7hEzFIGp2nB2z0-232">
          <mxGeometry y="60" width="201.75" height="30" as="geometry" />
        </mxCell>
        <mxCell id="be3Qgi7hEzFIGp2nB2z0-237" value="" style="shape=partialRectangle;connectable=0;fillColor=none;top=0;left=0;bottom=0;right=0;editable=1;overflow=hidden;html=1;whiteSpace=wrap;strokeWidth=3;" vertex="1" parent="be3Qgi7hEzFIGp2nB2z0-236">
          <mxGeometry width="60" height="30" as="geometry">
            <mxRectangle width="60" height="30" as="alternateBounds" />
          </mxGeometry>
        </mxCell>
        <mxCell id="be3Qgi7hEzFIGp2nB2z0-238" value="street" style="shape=partialRectangle;connectable=0;fillColor=none;top=0;left=0;bottom=0;right=0;align=left;spacingLeft=6;overflow=hidden;html=1;whiteSpace=wrap;strokeWidth=3;" vertex="1" parent="be3Qgi7hEzFIGp2nB2z0-236">
          <mxGeometry x="60" width="141.75" height="30" as="geometry">
            <mxRectangle width="141.75" height="30" as="alternateBounds" />
          </mxGeometry>
        </mxCell>
        <mxCell id="be3Qgi7hEzFIGp2nB2z0-239" value="" style="shape=tableRow;horizontal=0;startSize=0;swimlaneHead=0;swimlaneBody=0;fillColor=none;collapsible=0;dropTarget=0;points=[[0,0.5],[1,0.5]];portConstraint=eastwest;top=0;left=0;right=0;bottom=0;html=1;strokeWidth=3;" vertex="1" parent="be3Qgi7hEzFIGp2nB2z0-232">
          <mxGeometry y="90" width="201.75" height="30" as="geometry" />
        </mxCell>
        <mxCell id="be3Qgi7hEzFIGp2nB2z0-240" value="" style="shape=partialRectangle;connectable=0;fillColor=none;top=0;left=0;bottom=0;right=0;editable=1;overflow=hidden;html=1;whiteSpace=wrap;strokeWidth=3;" vertex="1" parent="be3Qgi7hEzFIGp2nB2z0-239">
          <mxGeometry width="60" height="30" as="geometry">
            <mxRectangle width="60" height="30" as="alternateBounds" />
          </mxGeometry>
        </mxCell>
        <mxCell id="be3Qgi7hEzFIGp2nB2z0-241" value="apt" style="shape=partialRectangle;connectable=0;fillColor=none;top=0;left=0;bottom=0;right=0;align=left;spacingLeft=6;overflow=hidden;html=1;whiteSpace=wrap;strokeWidth=3;" vertex="1" parent="be3Qgi7hEzFIGp2nB2z0-239">
          <mxGeometry x="60" width="141.75" height="30" as="geometry">
            <mxRectangle width="141.75" height="30" as="alternateBounds" />
          </mxGeometry>
        </mxCell>
        <mxCell id="be3Qgi7hEzFIGp2nB2z0-242" value="" style="shape=tableRow;horizontal=0;startSize=0;swimlaneHead=0;swimlaneBody=0;fillColor=none;collapsible=0;dropTarget=0;points=[[0,0.5],[1,0.5]];portConstraint=eastwest;top=0;left=0;right=0;bottom=0;html=1;strokeWidth=3;" vertex="1" parent="be3Qgi7hEzFIGp2nB2z0-232">
          <mxGeometry y="120" width="201.75" height="30" as="geometry" />
        </mxCell>
        <mxCell id="be3Qgi7hEzFIGp2nB2z0-243" value="" style="shape=partialRectangle;connectable=0;fillColor=none;top=0;left=0;bottom=0;right=0;editable=1;overflow=hidden;html=1;whiteSpace=wrap;strokeWidth=3;" vertex="1" parent="be3Qgi7hEzFIGp2nB2z0-242">
          <mxGeometry width="60" height="30" as="geometry">
            <mxRectangle width="60" height="30" as="alternateBounds" />
          </mxGeometry>
        </mxCell>
        <mxCell id="be3Qgi7hEzFIGp2nB2z0-244" value="city" style="shape=partialRectangle;connectable=0;fillColor=none;top=0;left=0;bottom=0;right=0;align=left;spacingLeft=6;overflow=hidden;html=1;whiteSpace=wrap;strokeWidth=3;" vertex="1" parent="be3Qgi7hEzFIGp2nB2z0-242">
          <mxGeometry x="60" width="141.75" height="30" as="geometry">
            <mxRectangle width="141.75" height="30" as="alternateBounds" />
          </mxGeometry>
        </mxCell>
        <mxCell id="be3Qgi7hEzFIGp2nB2z0-245" value="" style="shape=tableRow;horizontal=0;startSize=0;swimlaneHead=0;swimlaneBody=0;fillColor=none;collapsible=0;dropTarget=0;points=[[0,0.5],[1,0.5]];portConstraint=eastwest;top=0;left=0;right=0;bottom=0;html=1;strokeWidth=3;" vertex="1" parent="be3Qgi7hEzFIGp2nB2z0-232">
          <mxGeometry y="150" width="201.75" height="30" as="geometry" />
        </mxCell>
        <mxCell id="be3Qgi7hEzFIGp2nB2z0-246" value="" style="shape=partialRectangle;connectable=0;fillColor=none;top=0;left=0;bottom=0;right=0;editable=1;overflow=hidden;html=1;whiteSpace=wrap;strokeWidth=3;" vertex="1" parent="be3Qgi7hEzFIGp2nB2z0-245">
          <mxGeometry width="60" height="30" as="geometry">
            <mxRectangle width="60" height="30" as="alternateBounds" />
          </mxGeometry>
        </mxCell>
        <mxCell id="be3Qgi7hEzFIGp2nB2z0-247" value="state" style="shape=partialRectangle;connectable=0;fillColor=none;top=0;left=0;bottom=0;right=0;align=left;spacingLeft=6;overflow=hidden;html=1;whiteSpace=wrap;strokeWidth=3;" vertex="1" parent="be3Qgi7hEzFIGp2nB2z0-245">
          <mxGeometry x="60" width="141.75" height="30" as="geometry">
            <mxRectangle width="141.75" height="30" as="alternateBounds" />
          </mxGeometry>
        </mxCell>
        <mxCell id="be3Qgi7hEzFIGp2nB2z0-251" value="" style="shape=tableRow;horizontal=0;startSize=0;swimlaneHead=0;swimlaneBody=0;fillColor=none;collapsible=0;dropTarget=0;points=[[0,0.5],[1,0.5]];portConstraint=eastwest;top=0;left=0;right=0;bottom=0;html=1;strokeWidth=3;" vertex="1" parent="be3Qgi7hEzFIGp2nB2z0-232">
          <mxGeometry y="180" width="201.75" height="30" as="geometry" />
        </mxCell>
        <mxCell id="be3Qgi7hEzFIGp2nB2z0-252" value="" style="shape=partialRectangle;connectable=0;fillColor=none;top=0;left=0;bottom=0;right=0;editable=1;overflow=hidden;html=1;whiteSpace=wrap;strokeWidth=3;" vertex="1" parent="be3Qgi7hEzFIGp2nB2z0-251">
          <mxGeometry width="60" height="30" as="geometry">
            <mxRectangle width="60" height="30" as="alternateBounds" />
          </mxGeometry>
        </mxCell>
        <mxCell id="be3Qgi7hEzFIGp2nB2z0-253" value="zip" style="shape=partialRectangle;connectable=0;fillColor=none;top=0;left=0;bottom=0;right=0;align=left;spacingLeft=6;overflow=hidden;html=1;whiteSpace=wrap;strokeWidth=3;" vertex="1" parent="be3Qgi7hEzFIGp2nB2z0-251">
          <mxGeometry x="60" width="141.75" height="30" as="geometry">
            <mxRectangle width="141.75" height="30" as="alternateBounds" />
          </mxGeometry>
        </mxCell>
        <mxCell id="be3Qgi7hEzFIGp2nB2z0-254" value="Asset" style="shape=table;startSize=30;container=1;collapsible=1;childLayout=tableLayout;fixedRows=1;rowLines=0;fontStyle=1;align=center;resizeLast=1;html=1;whiteSpace=wrap;fillColor=none;strokeWidth=3;" vertex="1" parent="1">
          <mxGeometry x="316.93" y="536" width="209.6199999999999" height="510" as="geometry" />
        </mxCell>
        <mxCell id="be3Qgi7hEzFIGp2nB2z0-255" value="" style="shape=tableRow;horizontal=0;startSize=0;swimlaneHead=0;swimlaneBody=0;fillColor=none;collapsible=0;dropTarget=0;points=[[0,0.5],[1,0.5]];portConstraint=eastwest;top=0;left=0;right=0;bottom=1;html=1;strokeWidth=3;" vertex="1" parent="be3Qgi7hEzFIGp2nB2z0-254">
          <mxGeometry y="30" width="209.6199999999999" height="30" as="geometry" />
        </mxCell>
        <mxCell id="be3Qgi7hEzFIGp2nB2z0-256" value="PK" style="shape=partialRectangle;connectable=0;fillColor=none;top=0;left=0;bottom=0;right=0;fontStyle=1;overflow=hidden;html=1;whiteSpace=wrap;strokeWidth=3;" vertex="1" parent="be3Qgi7hEzFIGp2nB2z0-255">
          <mxGeometry width="60" height="30" as="geometry">
            <mxRectangle width="60" height="30" as="alternateBounds" />
          </mxGeometry>
        </mxCell>
        <mxCell id="be3Qgi7hEzFIGp2nB2z0-257" value="asset_id" style="shape=partialRectangle;connectable=0;fillColor=none;top=0;left=0;bottom=0;right=0;align=left;spacingLeft=6;fontStyle=5;overflow=hidden;html=1;whiteSpace=wrap;strokeWidth=3;" vertex="1" parent="be3Qgi7hEzFIGp2nB2z0-255">
          <mxGeometry x="60" width="149.6199999999999" height="30" as="geometry">
            <mxRectangle width="149.6199999999999" height="30" as="alternateBounds" />
          </mxGeometry>
        </mxCell>
        <mxCell id="be3Qgi7hEzFIGp2nB2z0-258" value="" style="shape=tableRow;horizontal=0;startSize=0;swimlaneHead=0;swimlaneBody=0;fillColor=none;collapsible=0;dropTarget=0;points=[[0,0.5],[1,0.5]];portConstraint=eastwest;top=0;left=0;right=0;bottom=0;html=1;strokeWidth=3;" vertex="1" parent="be3Qgi7hEzFIGp2nB2z0-254">
          <mxGeometry y="60" width="209.6199999999999" height="30" as="geometry" />
        </mxCell>
        <mxCell id="be3Qgi7hEzFIGp2nB2z0-259" value="" style="shape=partialRectangle;connectable=0;fillColor=none;top=0;left=0;bottom=0;right=0;editable=1;overflow=hidden;html=1;whiteSpace=wrap;strokeWidth=3;" vertex="1" parent="be3Qgi7hEzFIGp2nB2z0-258">
          <mxGeometry width="60" height="30" as="geometry">
            <mxRectangle width="60" height="30" as="alternateBounds" />
          </mxGeometry>
        </mxCell>
        <mxCell id="be3Qgi7hEzFIGp2nB2z0-260" value="cash" style="shape=partialRectangle;connectable=0;fillColor=none;top=0;left=0;bottom=0;right=0;align=left;spacingLeft=6;overflow=hidden;html=1;whiteSpace=wrap;strokeWidth=3;" vertex="1" parent="be3Qgi7hEzFIGp2nB2z0-258">
          <mxGeometry x="60" width="149.6199999999999" height="30" as="geometry">
            <mxRectangle width="149.6199999999999" height="30" as="alternateBounds" />
          </mxGeometry>
        </mxCell>
        <mxCell id="be3Qgi7hEzFIGp2nB2z0-261" value="" style="shape=tableRow;horizontal=0;startSize=0;swimlaneHead=0;swimlaneBody=0;fillColor=none;collapsible=0;dropTarget=0;points=[[0,0.5],[1,0.5]];portConstraint=eastwest;top=0;left=0;right=0;bottom=0;html=1;strokeWidth=3;" vertex="1" parent="be3Qgi7hEzFIGp2nB2z0-254">
          <mxGeometry y="90" width="209.6199999999999" height="30" as="geometry" />
        </mxCell>
        <mxCell id="be3Qgi7hEzFIGp2nB2z0-262" value="" style="shape=partialRectangle;connectable=0;fillColor=none;top=0;left=0;bottom=0;right=0;editable=1;overflow=hidden;html=1;whiteSpace=wrap;strokeWidth=3;" vertex="1" parent="be3Qgi7hEzFIGp2nB2z0-261">
          <mxGeometry width="60" height="30" as="geometry">
            <mxRectangle width="60" height="30" as="alternateBounds" />
          </mxGeometry>
        </mxCell>
        <mxCell id="be3Qgi7hEzFIGp2nB2z0-263" value="passbook_savings" style="shape=partialRectangle;connectable=0;fillColor=none;top=0;left=0;bottom=0;right=0;align=left;spacingLeft=6;overflow=hidden;html=1;whiteSpace=wrap;strokeWidth=3;" vertex="1" parent="be3Qgi7hEzFIGp2nB2z0-261">
          <mxGeometry x="60" width="149.6199999999999" height="30" as="geometry">
            <mxRectangle width="149.6199999999999" height="30" as="alternateBounds" />
          </mxGeometry>
        </mxCell>
        <mxCell id="be3Qgi7hEzFIGp2nB2z0-264" value="" style="shape=tableRow;horizontal=0;startSize=0;swimlaneHead=0;swimlaneBody=0;fillColor=none;collapsible=0;dropTarget=0;points=[[0,0.5],[1,0.5]];portConstraint=eastwest;top=0;left=0;right=0;bottom=0;html=1;strokeWidth=3;" vertex="1" parent="be3Qgi7hEzFIGp2nB2z0-254">
          <mxGeometry y="120" width="209.6199999999999" height="30" as="geometry" />
        </mxCell>
        <mxCell id="be3Qgi7hEzFIGp2nB2z0-265" value="" style="shape=partialRectangle;connectable=0;fillColor=none;top=0;left=0;bottom=0;right=0;editable=1;overflow=hidden;html=1;whiteSpace=wrap;strokeWidth=3;" vertex="1" parent="be3Qgi7hEzFIGp2nB2z0-264">
          <mxGeometry width="60" height="30" as="geometry">
            <mxRectangle width="60" height="30" as="alternateBounds" />
          </mxGeometry>
        </mxCell>
        <mxCell id="be3Qgi7hEzFIGp2nB2z0-266" value="certificate_of_deposit" style="shape=partialRectangle;connectable=0;fillColor=none;top=0;left=0;bottom=0;right=0;align=left;spacingLeft=6;overflow=hidden;html=1;whiteSpace=wrap;strokeWidth=3;" vertex="1" parent="be3Qgi7hEzFIGp2nB2z0-264">
          <mxGeometry x="60" width="149.6199999999999" height="30" as="geometry">
            <mxRectangle width="149.6199999999999" height="30" as="alternateBounds" />
          </mxGeometry>
        </mxCell>
        <mxCell id="be3Qgi7hEzFIGp2nB2z0-267" value="" style="shape=tableRow;horizontal=0;startSize=0;swimlaneHead=0;swimlaneBody=0;fillColor=none;collapsible=0;dropTarget=0;points=[[0,0.5],[1,0.5]];portConstraint=eastwest;top=0;left=0;right=0;bottom=0;html=1;strokeWidth=3;" vertex="1" parent="be3Qgi7hEzFIGp2nB2z0-254">
          <mxGeometry y="150" width="209.6199999999999" height="30" as="geometry" />
        </mxCell>
        <mxCell id="be3Qgi7hEzFIGp2nB2z0-268" value="" style="shape=partialRectangle;connectable=0;fillColor=none;top=0;left=0;bottom=0;right=0;editable=1;overflow=hidden;html=1;whiteSpace=wrap;strokeWidth=3;" vertex="1" parent="be3Qgi7hEzFIGp2nB2z0-267">
          <mxGeometry width="60" height="30" as="geometry">
            <mxRectangle width="60" height="30" as="alternateBounds" />
          </mxGeometry>
        </mxCell>
        <mxCell id="be3Qgi7hEzFIGp2nB2z0-269" value="t_bills" style="shape=partialRectangle;connectable=0;fillColor=none;top=0;left=0;bottom=0;right=0;align=left;spacingLeft=6;overflow=hidden;html=1;whiteSpace=wrap;strokeWidth=3;" vertex="1" parent="be3Qgi7hEzFIGp2nB2z0-267">
          <mxGeometry x="60" width="149.6199999999999" height="30" as="geometry">
            <mxRectangle width="149.6199999999999" height="30" as="alternateBounds" />
          </mxGeometry>
        </mxCell>
        <mxCell id="be3Qgi7hEzFIGp2nB2z0-270" value="" style="shape=tableRow;horizontal=0;startSize=0;swimlaneHead=0;swimlaneBody=0;fillColor=none;collapsible=0;dropTarget=0;points=[[0,0.5],[1,0.5]];portConstraint=eastwest;top=0;left=0;right=0;bottom=0;html=1;strokeWidth=3;" vertex="1" parent="be3Qgi7hEzFIGp2nB2z0-254">
          <mxGeometry y="180" width="209.6199999999999" height="30" as="geometry" />
        </mxCell>
        <mxCell id="be3Qgi7hEzFIGp2nB2z0-271" value="" style="shape=partialRectangle;connectable=0;fillColor=none;top=0;left=0;bottom=0;right=0;editable=1;overflow=hidden;html=1;whiteSpace=wrap;strokeWidth=3;" vertex="1" parent="be3Qgi7hEzFIGp2nB2z0-270">
          <mxGeometry width="60" height="30" as="geometry">
            <mxRectangle width="60" height="30" as="alternateBounds" />
          </mxGeometry>
        </mxCell>
        <mxCell id="be3Qgi7hEzFIGp2nB2z0-272" value="money_market_funds" style="shape=partialRectangle;connectable=0;fillColor=none;top=0;left=0;bottom=0;right=0;align=left;spacingLeft=6;overflow=hidden;html=1;whiteSpace=wrap;strokeWidth=3;" vertex="1" parent="be3Qgi7hEzFIGp2nB2z0-270">
          <mxGeometry x="60" width="149.6199999999999" height="30" as="geometry">
            <mxRectangle width="149.6199999999999" height="30" as="alternateBounds" />
          </mxGeometry>
        </mxCell>
        <mxCell id="be3Qgi7hEzFIGp2nB2z0-273" value="" style="shape=tableRow;horizontal=0;startSize=0;swimlaneHead=0;swimlaneBody=0;fillColor=none;collapsible=0;dropTarget=0;points=[[0,0.5],[1,0.5]];portConstraint=eastwest;top=0;left=0;right=0;bottom=0;html=1;strokeWidth=3;" vertex="1" parent="be3Qgi7hEzFIGp2nB2z0-254">
          <mxGeometry y="210" width="209.6199999999999" height="30" as="geometry" />
        </mxCell>
        <mxCell id="be3Qgi7hEzFIGp2nB2z0-274" value="" style="shape=partialRectangle;connectable=0;fillColor=none;top=0;left=0;bottom=0;right=0;editable=1;overflow=hidden;html=1;whiteSpace=wrap;strokeWidth=3;" vertex="1" parent="be3Qgi7hEzFIGp2nB2z0-273">
          <mxGeometry width="60" height="30" as="geometry">
            <mxRectangle width="60" height="30" as="alternateBounds" />
          </mxGeometry>
        </mxCell>
        <mxCell id="be3Qgi7hEzFIGp2nB2z0-275" value="stocks" style="shape=partialRectangle;connectable=0;fillColor=none;top=0;left=0;bottom=0;right=0;align=left;spacingLeft=6;overflow=hidden;html=1;whiteSpace=wrap;strokeWidth=3;" vertex="1" parent="be3Qgi7hEzFIGp2nB2z0-273">
          <mxGeometry x="60" width="149.6199999999999" height="30" as="geometry">
            <mxRectangle width="149.6199999999999" height="30" as="alternateBounds" />
          </mxGeometry>
        </mxCell>
        <mxCell id="be3Qgi7hEzFIGp2nB2z0-276" value="" style="shape=tableRow;horizontal=0;startSize=0;swimlaneHead=0;swimlaneBody=0;fillColor=none;collapsible=0;dropTarget=0;points=[[0,0.5],[1,0.5]];portConstraint=eastwest;top=0;left=0;right=0;bottom=0;html=1;strokeWidth=3;" vertex="1" parent="be3Qgi7hEzFIGp2nB2z0-254">
          <mxGeometry y="240" width="209.6199999999999" height="30" as="geometry" />
        </mxCell>
        <mxCell id="be3Qgi7hEzFIGp2nB2z0-277" value="" style="shape=partialRectangle;connectable=0;fillColor=none;top=0;left=0;bottom=0;right=0;editable=1;overflow=hidden;html=1;whiteSpace=wrap;strokeWidth=3;" vertex="1" parent="be3Qgi7hEzFIGp2nB2z0-276">
          <mxGeometry width="60" height="30" as="geometry">
            <mxRectangle width="60" height="30" as="alternateBounds" />
          </mxGeometry>
        </mxCell>
        <mxCell id="be3Qgi7hEzFIGp2nB2z0-278" value="bonds" style="shape=partialRectangle;connectable=0;fillColor=none;top=0;left=0;bottom=0;right=0;align=left;spacingLeft=6;overflow=hidden;html=1;whiteSpace=wrap;strokeWidth=3;" vertex="1" parent="be3Qgi7hEzFIGp2nB2z0-276">
          <mxGeometry x="60" width="149.6199999999999" height="30" as="geometry">
            <mxRectangle width="149.6199999999999" height="30" as="alternateBounds" />
          </mxGeometry>
        </mxCell>
        <mxCell id="be3Qgi7hEzFIGp2nB2z0-279" value="" style="shape=tableRow;horizontal=0;startSize=0;swimlaneHead=0;swimlaneBody=0;fillColor=none;collapsible=0;dropTarget=0;points=[[0,0.5],[1,0.5]];portConstraint=eastwest;top=0;left=0;right=0;bottom=0;html=1;strokeWidth=3;" vertex="1" parent="be3Qgi7hEzFIGp2nB2z0-254">
          <mxGeometry y="270" width="209.6199999999999" height="30" as="geometry" />
        </mxCell>
        <mxCell id="be3Qgi7hEzFIGp2nB2z0-280" value="" style="shape=partialRectangle;connectable=0;fillColor=none;top=0;left=0;bottom=0;right=0;editable=1;overflow=hidden;html=1;whiteSpace=wrap;strokeWidth=3;" vertex="1" parent="be3Qgi7hEzFIGp2nB2z0-279">
          <mxGeometry width="60" height="30" as="geometry">
            <mxRectangle width="60" height="30" as="alternateBounds" />
          </mxGeometry>
        </mxCell>
        <mxCell id="be3Qgi7hEzFIGp2nB2z0-281" value="tax_exempt_bonds" style="shape=partialRectangle;connectable=0;fillColor=none;top=0;left=0;bottom=0;right=0;align=left;spacingLeft=6;overflow=hidden;html=1;whiteSpace=wrap;strokeWidth=3;" vertex="1" parent="be3Qgi7hEzFIGp2nB2z0-279">
          <mxGeometry x="60" width="149.6199999999999" height="30" as="geometry">
            <mxRectangle width="149.6199999999999" height="30" as="alternateBounds" />
          </mxGeometry>
        </mxCell>
        <mxCell id="be3Qgi7hEzFIGp2nB2z0-282" value="" style="shape=tableRow;horizontal=0;startSize=0;swimlaneHead=0;swimlaneBody=0;fillColor=none;collapsible=0;dropTarget=0;points=[[0,0.5],[1,0.5]];portConstraint=eastwest;top=0;left=0;right=0;bottom=0;html=1;strokeWidth=3;" vertex="1" parent="be3Qgi7hEzFIGp2nB2z0-254">
          <mxGeometry y="300" width="209.6199999999999" height="30" as="geometry" />
        </mxCell>
        <mxCell id="be3Qgi7hEzFIGp2nB2z0-283" value="" style="shape=partialRectangle;connectable=0;fillColor=none;top=0;left=0;bottom=0;right=0;editable=1;overflow=hidden;html=1;whiteSpace=wrap;strokeWidth=3;" vertex="1" parent="be3Qgi7hEzFIGp2nB2z0-282">
          <mxGeometry width="60" height="30" as="geometry">
            <mxRectangle width="60" height="30" as="alternateBounds" />
          </mxGeometry>
        </mxCell>
        <mxCell id="be3Qgi7hEzFIGp2nB2z0-284" value="custodial_accounts" style="shape=partialRectangle;connectable=0;fillColor=none;top=0;left=0;bottom=0;right=0;align=left;spacingLeft=6;overflow=hidden;html=1;whiteSpace=wrap;strokeWidth=3;" vertex="1" parent="be3Qgi7hEzFIGp2nB2z0-282">
          <mxGeometry x="60" width="149.6199999999999" height="30" as="geometry">
            <mxRectangle width="149.6199999999999" height="30" as="alternateBounds" />
          </mxGeometry>
        </mxCell>
        <mxCell id="be3Qgi7hEzFIGp2nB2z0-285" value="" style="shape=tableRow;horizontal=0;startSize=0;swimlaneHead=0;swimlaneBody=0;fillColor=none;collapsible=0;dropTarget=0;points=[[0,0.5],[1,0.5]];portConstraint=eastwest;top=0;left=0;right=0;bottom=0;html=1;strokeWidth=3;" vertex="1" parent="be3Qgi7hEzFIGp2nB2z0-254">
          <mxGeometry y="330" width="209.6199999999999" height="30" as="geometry" />
        </mxCell>
        <mxCell id="be3Qgi7hEzFIGp2nB2z0-286" value="" style="shape=partialRectangle;connectable=0;fillColor=none;top=0;left=0;bottom=0;right=0;editable=1;overflow=hidden;html=1;whiteSpace=wrap;strokeWidth=3;" vertex="1" parent="be3Qgi7hEzFIGp2nB2z0-285">
          <mxGeometry width="60" height="30" as="geometry">
            <mxRectangle width="60" height="30" as="alternateBounds" />
          </mxGeometry>
        </mxCell>
        <mxCell id="be3Qgi7hEzFIGp2nB2z0-287" value="trust_funds" style="shape=partialRectangle;connectable=0;fillColor=none;top=0;left=0;bottom=0;right=0;align=left;spacingLeft=6;overflow=hidden;html=1;whiteSpace=wrap;strokeWidth=3;" vertex="1" parent="be3Qgi7hEzFIGp2nB2z0-285">
          <mxGeometry x="60" width="149.6199999999999" height="30" as="geometry">
            <mxRectangle width="149.6199999999999" height="30" as="alternateBounds" />
          </mxGeometry>
        </mxCell>
        <mxCell id="be3Qgi7hEzFIGp2nB2z0-288" value="" style="shape=tableRow;horizontal=0;startSize=0;swimlaneHead=0;swimlaneBody=0;fillColor=none;collapsible=0;dropTarget=0;points=[[0,0.5],[1,0.5]];portConstraint=eastwest;top=0;left=0;right=0;bottom=0;html=1;strokeWidth=3;" vertex="1" parent="be3Qgi7hEzFIGp2nB2z0-254">
          <mxGeometry y="360" width="209.6199999999999" height="30" as="geometry" />
        </mxCell>
        <mxCell id="be3Qgi7hEzFIGp2nB2z0-289" value="" style="shape=partialRectangle;connectable=0;fillColor=none;top=0;left=0;bottom=0;right=0;editable=1;overflow=hidden;html=1;whiteSpace=wrap;strokeWidth=3;" vertex="1" parent="be3Qgi7hEzFIGp2nB2z0-288">
          <mxGeometry width="60" height="30" as="geometry">
            <mxRectangle width="60" height="30" as="alternateBounds" />
          </mxGeometry>
        </mxCell>
        <mxCell id="be3Qgi7hEzFIGp2nB2z0-290" value="pre_paid_college_plan" style="shape=partialRectangle;connectable=0;fillColor=none;top=0;left=0;bottom=0;right=0;align=left;spacingLeft=6;overflow=hidden;html=1;whiteSpace=wrap;strokeWidth=3;" vertex="1" parent="be3Qgi7hEzFIGp2nB2z0-288">
          <mxGeometry x="60" width="149.6199999999999" height="30" as="geometry">
            <mxRectangle width="149.6199999999999" height="30" as="alternateBounds" />
          </mxGeometry>
        </mxCell>
        <mxCell id="be3Qgi7hEzFIGp2nB2z0-291" value="" style="shape=tableRow;horizontal=0;startSize=0;swimlaneHead=0;swimlaneBody=0;fillColor=none;collapsible=0;dropTarget=0;points=[[0,0.5],[1,0.5]];portConstraint=eastwest;top=0;left=0;right=0;bottom=0;html=1;strokeWidth=3;" vertex="1" parent="be3Qgi7hEzFIGp2nB2z0-254">
          <mxGeometry y="390" width="209.6199999999999" height="30" as="geometry" />
        </mxCell>
        <mxCell id="be3Qgi7hEzFIGp2nB2z0-292" value="" style="shape=partialRectangle;connectable=0;fillColor=none;top=0;left=0;bottom=0;right=0;editable=1;overflow=hidden;html=1;whiteSpace=wrap;strokeWidth=3;" vertex="1" parent="be3Qgi7hEzFIGp2nB2z0-291">
          <mxGeometry width="60" height="30" as="geometry">
            <mxRectangle width="60" height="30" as="alternateBounds" />
          </mxGeometry>
        </mxCell>
        <mxCell id="be3Qgi7hEzFIGp2nB2z0-293" value="limited_partnerships" style="shape=partialRectangle;connectable=0;fillColor=none;top=0;left=0;bottom=0;right=0;align=left;spacingLeft=6;overflow=hidden;html=1;whiteSpace=wrap;strokeWidth=3;" vertex="1" parent="be3Qgi7hEzFIGp2nB2z0-291">
          <mxGeometry x="60" width="149.6199999999999" height="30" as="geometry">
            <mxRectangle width="149.6199999999999" height="30" as="alternateBounds" />
          </mxGeometry>
        </mxCell>
        <mxCell id="be3Qgi7hEzFIGp2nB2z0-294" value="" style="shape=tableRow;horizontal=0;startSize=0;swimlaneHead=0;swimlaneBody=0;fillColor=none;collapsible=0;dropTarget=0;points=[[0,0.5],[1,0.5]];portConstraint=eastwest;top=0;left=0;right=0;bottom=0;html=1;strokeWidth=3;" vertex="1" parent="be3Qgi7hEzFIGp2nB2z0-254">
          <mxGeometry y="420" width="209.6199999999999" height="30" as="geometry" />
        </mxCell>
        <mxCell id="be3Qgi7hEzFIGp2nB2z0-295" value="" style="shape=partialRectangle;connectable=0;fillColor=none;top=0;left=0;bottom=0;right=0;editable=1;overflow=hidden;html=1;whiteSpace=wrap;strokeWidth=3;" vertex="1" parent="be3Qgi7hEzFIGp2nB2z0-294">
          <mxGeometry width="60" height="30" as="geometry">
            <mxRectangle width="60" height="30" as="alternateBounds" />
          </mxGeometry>
        </mxCell>
        <mxCell id="be3Qgi7hEzFIGp2nB2z0-296" value="farm_net_worth" style="shape=partialRectangle;connectable=0;fillColor=none;top=0;left=0;bottom=0;right=0;align=left;spacingLeft=6;overflow=hidden;html=1;whiteSpace=wrap;strokeWidth=3;" vertex="1" parent="be3Qgi7hEzFIGp2nB2z0-294">
          <mxGeometry x="60" width="149.6199999999999" height="30" as="geometry">
            <mxRectangle width="149.6199999999999" height="30" as="alternateBounds" />
          </mxGeometry>
        </mxCell>
        <mxCell id="be3Qgi7hEzFIGp2nB2z0-297" value="" style="shape=tableRow;horizontal=0;startSize=0;swimlaneHead=0;swimlaneBody=0;fillColor=none;collapsible=0;dropTarget=0;points=[[0,0.5],[1,0.5]];portConstraint=eastwest;top=0;left=0;right=0;bottom=0;html=1;strokeWidth=3;" vertex="1" parent="be3Qgi7hEzFIGp2nB2z0-254">
          <mxGeometry y="450" width="209.6199999999999" height="30" as="geometry" />
        </mxCell>
        <mxCell id="be3Qgi7hEzFIGp2nB2z0-298" value="" style="shape=partialRectangle;connectable=0;fillColor=none;top=0;left=0;bottom=0;right=0;editable=1;overflow=hidden;html=1;whiteSpace=wrap;strokeWidth=3;" vertex="1" parent="be3Qgi7hEzFIGp2nB2z0-297">
          <mxGeometry width="60" height="30" as="geometry">
            <mxRectangle width="60" height="30" as="alternateBounds" />
          </mxGeometry>
        </mxCell>
        <mxCell id="be3Qgi7hEzFIGp2nB2z0-299" value="real_esate_net_worth" style="shape=partialRectangle;connectable=0;fillColor=none;top=0;left=0;bottom=0;right=0;align=left;spacingLeft=6;overflow=hidden;html=1;whiteSpace=wrap;strokeWidth=3;" vertex="1" parent="be3Qgi7hEzFIGp2nB2z0-297">
          <mxGeometry x="60" width="149.6199999999999" height="30" as="geometry">
            <mxRectangle width="149.6199999999999" height="30" as="alternateBounds" />
          </mxGeometry>
        </mxCell>
        <mxCell id="be3Qgi7hEzFIGp2nB2z0-300" value="" style="shape=tableRow;horizontal=0;startSize=0;swimlaneHead=0;swimlaneBody=0;fillColor=none;collapsible=0;dropTarget=0;points=[[0,0.5],[1,0.5]];portConstraint=eastwest;top=0;left=0;right=0;bottom=0;html=1;strokeWidth=3;" vertex="1" parent="be3Qgi7hEzFIGp2nB2z0-254">
          <mxGeometry y="480" width="209.6199999999999" height="30" as="geometry" />
        </mxCell>
        <mxCell id="be3Qgi7hEzFIGp2nB2z0-301" value="" style="shape=partialRectangle;connectable=0;fillColor=none;top=0;left=0;bottom=0;right=0;editable=1;overflow=hidden;html=1;whiteSpace=wrap;strokeWidth=3;" vertex="1" parent="be3Qgi7hEzFIGp2nB2z0-300">
          <mxGeometry width="60" height="30" as="geometry">
            <mxRectangle width="60" height="30" as="alternateBounds" />
          </mxGeometry>
        </mxCell>
        <mxCell id="be3Qgi7hEzFIGp2nB2z0-302" value="business_net_worth" style="shape=partialRectangle;connectable=0;fillColor=none;top=0;left=0;bottom=0;right=0;align=left;spacingLeft=6;overflow=hidden;html=1;whiteSpace=wrap;strokeWidth=3;" vertex="1" parent="be3Qgi7hEzFIGp2nB2z0-300">
          <mxGeometry x="60" width="149.6199999999999" height="30" as="geometry">
            <mxRectangle width="149.6199999999999" height="30" as="alternateBounds" />
          </mxGeometry>
        </mxCell>
        <mxCell id="be3Qgi7hEzFIGp2nB2z0-322" value="Household" style="shape=table;startSize=29;container=1;collapsible=1;childLayout=tableLayout;fixedRows=1;rowLines=0;fontStyle=1;align=center;resizeLast=1;html=1;whiteSpace=wrap;fillColor=none;strokeWidth=3;" vertex="1" parent="1">
          <mxGeometry x="40" y="908" width="230.75" height="270" as="geometry" />
        </mxCell>
        <mxCell id="be3Qgi7hEzFIGp2nB2z0-323" value="" style="shape=tableRow;horizontal=0;startSize=0;swimlaneHead=0;swimlaneBody=0;fillColor=none;collapsible=0;dropTarget=0;points=[[0,0.5],[1,0.5]];portConstraint=eastwest;top=0;left=0;right=0;bottom=1;html=1;strokeWidth=3;" vertex="1" parent="be3Qgi7hEzFIGp2nB2z0-322">
          <mxGeometry y="29" width="230.75" height="30" as="geometry" />
        </mxCell>
        <mxCell id="be3Qgi7hEzFIGp2nB2z0-324" value="PK" style="shape=partialRectangle;connectable=0;fillColor=none;top=0;left=0;bottom=0;right=0;fontStyle=1;overflow=hidden;html=1;whiteSpace=wrap;strokeWidth=3;" vertex="1" parent="be3Qgi7hEzFIGp2nB2z0-323">
          <mxGeometry width="60" height="30" as="geometry">
            <mxRectangle width="60" height="30" as="alternateBounds" />
          </mxGeometry>
        </mxCell>
        <mxCell id="be3Qgi7hEzFIGp2nB2z0-325" value="household_id" style="shape=partialRectangle;connectable=0;fillColor=none;top=0;left=0;bottom=0;right=0;align=left;spacingLeft=6;fontStyle=5;overflow=hidden;html=1;whiteSpace=wrap;strokeWidth=3;" vertex="1" parent="be3Qgi7hEzFIGp2nB2z0-323">
          <mxGeometry x="60" width="170.75" height="30" as="geometry">
            <mxRectangle width="170.75" height="30" as="alternateBounds" />
          </mxGeometry>
        </mxCell>
        <mxCell id="be3Qgi7hEzFIGp2nB2z0-326" value="" style="shape=tableRow;horizontal=0;startSize=0;swimlaneHead=0;swimlaneBody=0;fillColor=none;collapsible=0;dropTarget=0;points=[[0,0.5],[1,0.5]];portConstraint=eastwest;top=0;left=0;right=0;bottom=0;html=1;strokeWidth=3;" vertex="1" parent="be3Qgi7hEzFIGp2nB2z0-322">
          <mxGeometry y="59" width="230.75" height="30" as="geometry" />
        </mxCell>
        <mxCell id="be3Qgi7hEzFIGp2nB2z0-327" value="" style="shape=partialRectangle;connectable=0;fillColor=none;top=0;left=0;bottom=0;right=0;editable=1;overflow=hidden;html=1;whiteSpace=wrap;strokeWidth=3;" vertex="1" parent="be3Qgi7hEzFIGp2nB2z0-326">
          <mxGeometry width="60" height="30" as="geometry">
            <mxRectangle width="60" height="30" as="alternateBounds" />
          </mxGeometry>
        </mxCell>
        <mxCell id="be3Qgi7hEzFIGp2nB2z0-328" value="housing_situation" style="shape=partialRectangle;connectable=0;fillColor=none;top=0;left=0;bottom=0;right=0;align=left;spacingLeft=6;overflow=hidden;html=1;whiteSpace=wrap;strokeWidth=3;" vertex="1" parent="be3Qgi7hEzFIGp2nB2z0-326">
          <mxGeometry x="60" width="170.75" height="30" as="geometry">
            <mxRectangle width="170.75" height="30" as="alternateBounds" />
          </mxGeometry>
        </mxCell>
        <mxCell id="be3Qgi7hEzFIGp2nB2z0-329" value="" style="shape=tableRow;horizontal=0;startSize=0;swimlaneHead=0;swimlaneBody=0;fillColor=none;collapsible=0;dropTarget=0;points=[[0,0.5],[1,0.5]];portConstraint=eastwest;top=0;left=0;right=0;bottom=0;html=1;strokeWidth=3;" vertex="1" parent="be3Qgi7hEzFIGp2nB2z0-322">
          <mxGeometry y="89" width="230.75" height="30" as="geometry" />
        </mxCell>
        <mxCell id="be3Qgi7hEzFIGp2nB2z0-330" value="" style="shape=partialRectangle;connectable=0;fillColor=none;top=0;left=0;bottom=0;right=0;editable=1;overflow=hidden;html=1;whiteSpace=wrap;strokeWidth=3;" vertex="1" parent="be3Qgi7hEzFIGp2nB2z0-329">
          <mxGeometry width="60" height="30" as="geometry">
            <mxRectangle width="60" height="30" as="alternateBounds" />
          </mxGeometry>
        </mxCell>
        <mxCell id="be3Qgi7hEzFIGp2nB2z0-331" value="house_purchase_year" style="shape=partialRectangle;connectable=0;fillColor=none;top=0;left=0;bottom=0;right=0;align=left;spacingLeft=6;overflow=hidden;html=1;whiteSpace=wrap;strokeWidth=3;" vertex="1" parent="be3Qgi7hEzFIGp2nB2z0-329">
          <mxGeometry x="60" width="170.75" height="30" as="geometry">
            <mxRectangle width="170.75" height="30" as="alternateBounds" />
          </mxGeometry>
        </mxCell>
        <mxCell id="be3Qgi7hEzFIGp2nB2z0-332" value="" style="shape=tableRow;horizontal=0;startSize=0;swimlaneHead=0;swimlaneBody=0;fillColor=none;collapsible=0;dropTarget=0;points=[[0,0.5],[1,0.5]];portConstraint=eastwest;top=0;left=0;right=0;bottom=0;html=1;strokeWidth=3;" vertex="1" parent="be3Qgi7hEzFIGp2nB2z0-322">
          <mxGeometry y="119" width="230.75" height="30" as="geometry" />
        </mxCell>
        <mxCell id="be3Qgi7hEzFIGp2nB2z0-333" value="" style="shape=partialRectangle;connectable=0;fillColor=none;top=0;left=0;bottom=0;right=0;editable=1;overflow=hidden;html=1;whiteSpace=wrap;strokeWidth=3;" vertex="1" parent="be3Qgi7hEzFIGp2nB2z0-332">
          <mxGeometry width="60" height="30" as="geometry">
            <mxRectangle width="60" height="30" as="alternateBounds" />
          </mxGeometry>
        </mxCell>
        <mxCell id="be3Qgi7hEzFIGp2nB2z0-334" value="house_purchase_price" style="shape=partialRectangle;connectable=0;fillColor=none;top=0;left=0;bottom=0;right=0;align=left;spacingLeft=6;overflow=hidden;html=1;whiteSpace=wrap;strokeWidth=3;" vertex="1" parent="be3Qgi7hEzFIGp2nB2z0-332">
          <mxGeometry x="60" width="170.75" height="30" as="geometry">
            <mxRectangle width="170.75" height="30" as="alternateBounds" />
          </mxGeometry>
        </mxCell>
        <mxCell id="be3Qgi7hEzFIGp2nB2z0-335" value="" style="shape=tableRow;horizontal=0;startSize=0;swimlaneHead=0;swimlaneBody=0;fillColor=none;collapsible=0;dropTarget=0;points=[[0,0.5],[1,0.5]];portConstraint=eastwest;top=0;left=0;right=0;bottom=0;html=1;strokeWidth=3;" vertex="1" parent="be3Qgi7hEzFIGp2nB2z0-322">
          <mxGeometry y="149" width="230.75" height="30" as="geometry" />
        </mxCell>
        <mxCell id="be3Qgi7hEzFIGp2nB2z0-336" value="" style="shape=partialRectangle;connectable=0;fillColor=none;top=0;left=0;bottom=0;right=0;editable=1;overflow=hidden;html=1;whiteSpace=wrap;strokeWidth=3;" vertex="1" parent="be3Qgi7hEzFIGp2nB2z0-335">
          <mxGeometry width="60" height="30" as="geometry">
            <mxRectangle width="60" height="30" as="alternateBounds" />
          </mxGeometry>
        </mxCell>
        <mxCell id="be3Qgi7hEzFIGp2nB2z0-337" value="house_current_market_value" style="shape=partialRectangle;connectable=0;fillColor=none;top=0;left=0;bottom=0;right=0;align=left;spacingLeft=6;overflow=hidden;html=1;whiteSpace=wrap;strokeWidth=3;" vertex="1" parent="be3Qgi7hEzFIGp2nB2z0-335">
          <mxGeometry x="60" width="170.75" height="30" as="geometry">
            <mxRectangle width="170.75" height="30" as="alternateBounds" />
          </mxGeometry>
        </mxCell>
        <mxCell id="be3Qgi7hEzFIGp2nB2z0-354" value="" style="shape=tableRow;horizontal=0;startSize=0;swimlaneHead=0;swimlaneBody=0;fillColor=none;collapsible=0;dropTarget=0;points=[[0,0.5],[1,0.5]];portConstraint=eastwest;top=0;left=0;right=0;bottom=0;html=1;strokeWidth=3;" vertex="1" parent="be3Qgi7hEzFIGp2nB2z0-322">
          <mxGeometry y="179" width="230.75" height="30" as="geometry" />
        </mxCell>
        <mxCell id="be3Qgi7hEzFIGp2nB2z0-355" value="" style="shape=partialRectangle;connectable=0;fillColor=none;top=0;left=0;bottom=0;right=0;editable=1;overflow=hidden;html=1;whiteSpace=wrap;strokeWidth=3;" vertex="1" parent="be3Qgi7hEzFIGp2nB2z0-354">
          <mxGeometry width="60" height="30" as="geometry">
            <mxRectangle width="60" height="30" as="alternateBounds" />
          </mxGeometry>
        </mxCell>
        <mxCell id="be3Qgi7hEzFIGp2nB2z0-356" value="primary_mortgage_owed" style="shape=partialRectangle;connectable=0;fillColor=none;top=0;left=0;bottom=0;right=0;align=left;spacingLeft=6;overflow=hidden;html=1;whiteSpace=wrap;strokeWidth=3;" vertex="1" parent="be3Qgi7hEzFIGp2nB2z0-354">
          <mxGeometry x="60" width="170.75" height="30" as="geometry">
            <mxRectangle width="170.75" height="30" as="alternateBounds" />
          </mxGeometry>
        </mxCell>
        <mxCell id="be3Qgi7hEzFIGp2nB2z0-357" value="" style="shape=tableRow;horizontal=0;startSize=0;swimlaneHead=0;swimlaneBody=0;fillColor=none;collapsible=0;dropTarget=0;points=[[0,0.5],[1,0.5]];portConstraint=eastwest;top=0;left=0;right=0;bottom=0;html=1;strokeWidth=3;" vertex="1" parent="be3Qgi7hEzFIGp2nB2z0-322">
          <mxGeometry y="209" width="230.75" height="30" as="geometry" />
        </mxCell>
        <mxCell id="be3Qgi7hEzFIGp2nB2z0-358" value="" style="shape=partialRectangle;connectable=0;fillColor=none;top=0;left=0;bottom=0;right=0;editable=1;overflow=hidden;html=1;whiteSpace=wrap;strokeWidth=3;" vertex="1" parent="be3Qgi7hEzFIGp2nB2z0-357">
          <mxGeometry width="60" height="30" as="geometry">
            <mxRectangle width="60" height="30" as="alternateBounds" />
          </mxGeometry>
        </mxCell>
        <mxCell id="be3Qgi7hEzFIGp2nB2z0-359" value="total_owed" style="shape=partialRectangle;connectable=0;fillColor=none;top=0;left=0;bottom=0;right=0;align=left;spacingLeft=6;overflow=hidden;html=1;whiteSpace=wrap;strokeWidth=3;" vertex="1" parent="be3Qgi7hEzFIGp2nB2z0-357">
          <mxGeometry x="60" width="170.75" height="30" as="geometry">
            <mxRectangle width="170.75" height="30" as="alternateBounds" />
          </mxGeometry>
        </mxCell>
        <mxCell id="be3Qgi7hEzFIGp2nB2z0-360" value="" style="shape=tableRow;horizontal=0;startSize=0;swimlaneHead=0;swimlaneBody=0;fillColor=none;collapsible=0;dropTarget=0;points=[[0,0.5],[1,0.5]];portConstraint=eastwest;top=0;left=0;right=0;bottom=0;html=1;strokeWidth=3;" vertex="1" parent="be3Qgi7hEzFIGp2nB2z0-322">
          <mxGeometry y="239" width="230.75" height="30" as="geometry" />
        </mxCell>
        <mxCell id="be3Qgi7hEzFIGp2nB2z0-361" value="" style="shape=partialRectangle;connectable=0;fillColor=none;top=0;left=0;bottom=0;right=0;editable=1;overflow=hidden;html=1;whiteSpace=wrap;strokeWidth=3;" vertex="1" parent="be3Qgi7hEzFIGp2nB2z0-360">
          <mxGeometry width="60" height="30" as="geometry">
            <mxRectangle width="60" height="30" as="alternateBounds" />
          </mxGeometry>
        </mxCell>
        <mxCell id="be3Qgi7hEzFIGp2nB2z0-362" value="monthly_payment" style="shape=partialRectangle;connectable=0;fillColor=none;top=0;left=0;bottom=0;right=0;align=left;spacingLeft=6;overflow=hidden;html=1;whiteSpace=wrap;strokeWidth=3;" vertex="1" parent="be3Qgi7hEzFIGp2nB2z0-360">
          <mxGeometry x="60" width="170.75" height="30" as="geometry">
            <mxRectangle width="170.75" height="30" as="alternateBounds" />
          </mxGeometry>
        </mxCell>
        <mxCell id="be3Qgi7hEzFIGp2nB2z0-427" value="Budget" style="shape=table;startSize=30;container=1;collapsible=1;childLayout=tableLayout;fixedRows=1;rowLines=0;fontStyle=1;align=center;resizeLast=1;html=1;whiteSpace=wrap;fillColor=none;strokeWidth=3;" vertex="1" parent="1">
          <mxGeometry x="40" y="672" width="210.75" height="206" as="geometry" />
        </mxCell>
        <mxCell id="be3Qgi7hEzFIGp2nB2z0-428" value="" style="shape=tableRow;horizontal=0;startSize=0;swimlaneHead=0;swimlaneBody=0;fillColor=none;collapsible=0;dropTarget=0;points=[[0,0.5],[1,0.5]];portConstraint=eastwest;top=0;left=0;right=0;bottom=0;html=1;strokeWidth=3;" vertex="1" parent="be3Qgi7hEzFIGp2nB2z0-427">
          <mxGeometry y="30" width="210.75" height="26" as="geometry" />
        </mxCell>
        <mxCell id="be3Qgi7hEzFIGp2nB2z0-429" value="PK" style="shape=partialRectangle;connectable=0;fillColor=none;top=0;left=0;bottom=0;right=0;fontStyle=1;overflow=hidden;html=1;whiteSpace=wrap;strokeWidth=3;perimeterSpacing=0;" vertex="1" parent="be3Qgi7hEzFIGp2nB2z0-428">
          <mxGeometry width="60" height="26" as="geometry">
            <mxRectangle width="60" height="26" as="alternateBounds" />
          </mxGeometry>
        </mxCell>
        <mxCell id="be3Qgi7hEzFIGp2nB2z0-430" value="budget_id" style="shape=partialRectangle;connectable=0;fillColor=none;top=0;left=0;bottom=0;right=0;align=left;spacingLeft=6;fontStyle=5;overflow=hidden;html=1;whiteSpace=wrap;strokeWidth=3;" vertex="1" parent="be3Qgi7hEzFIGp2nB2z0-428">
          <mxGeometry x="60" width="150.75" height="26" as="geometry">
            <mxRectangle width="150.75" height="26" as="alternateBounds" />
          </mxGeometry>
        </mxCell>
        <mxCell id="be3Qgi7hEzFIGp2nB2z0-431" value="" style="shape=tableRow;horizontal=0;startSize=0;swimlaneHead=0;swimlaneBody=0;fillColor=none;collapsible=0;dropTarget=0;points=[[0,0.5],[1,0.5]];portConstraint=eastwest;top=0;left=0;right=0;bottom=1;html=1;strokeWidth=3;" vertex="1" parent="be3Qgi7hEzFIGp2nB2z0-427">
          <mxGeometry y="56" width="210.75" height="30" as="geometry" />
        </mxCell>
        <mxCell id="be3Qgi7hEzFIGp2nB2z0-432" value="FK1" style="shape=partialRectangle;connectable=0;fillColor=none;top=0;left=0;bottom=0;right=0;fontStyle=1;overflow=hidden;html=1;whiteSpace=wrap;strokeWidth=3;" vertex="1" parent="be3Qgi7hEzFIGp2nB2z0-431">
          <mxGeometry width="60" height="30" as="geometry">
            <mxRectangle width="60" height="30" as="alternateBounds" />
          </mxGeometry>
        </mxCell>
        <mxCell id="be3Qgi7hEzFIGp2nB2z0-433" value="fafsaStudentDetails_id" style="shape=partialRectangle;connectable=0;fillColor=none;top=0;left=0;bottom=0;right=0;align=left;spacingLeft=6;fontStyle=5;overflow=hidden;html=1;whiteSpace=wrap;strokeWidth=3;" vertex="1" parent="be3Qgi7hEzFIGp2nB2z0-431">
          <mxGeometry x="60" width="150.75" height="30" as="geometry">
            <mxRectangle width="150.75" height="30" as="alternateBounds" />
          </mxGeometry>
        </mxCell>
        <mxCell id="be3Qgi7hEzFIGp2nB2z0-434" value="" style="shape=tableRow;horizontal=0;startSize=0;swimlaneHead=0;swimlaneBody=0;fillColor=none;collapsible=0;dropTarget=0;points=[[0,0.5],[1,0.5]];portConstraint=eastwest;top=0;left=0;right=0;bottom=0;html=1;strokeWidth=3;" vertex="1" parent="be3Qgi7hEzFIGp2nB2z0-427">
          <mxGeometry y="86" width="210.75" height="30" as="geometry" />
        </mxCell>
        <mxCell id="be3Qgi7hEzFIGp2nB2z0-435" value="" style="shape=partialRectangle;connectable=0;fillColor=none;top=0;left=0;bottom=0;right=0;editable=1;overflow=hidden;html=1;whiteSpace=wrap;strokeWidth=3;" vertex="1" parent="be3Qgi7hEzFIGp2nB2z0-434">
          <mxGeometry width="60" height="30" as="geometry">
            <mxRectangle width="60" height="30" as="alternateBounds" />
          </mxGeometry>
        </mxCell>
        <mxCell id="be3Qgi7hEzFIGp2nB2z0-436" value="monthly_529_contribution" style="shape=partialRectangle;connectable=0;fillColor=none;top=0;left=0;bottom=0;right=0;align=left;spacingLeft=6;overflow=hidden;html=1;whiteSpace=wrap;strokeWidth=3;" vertex="1" parent="be3Qgi7hEzFIGp2nB2z0-434">
          <mxGeometry x="60" width="150.75" height="30" as="geometry">
            <mxRectangle width="150.75" height="30" as="alternateBounds" />
          </mxGeometry>
        </mxCell>
        <mxCell id="be3Qgi7hEzFIGp2nB2z0-437" value="" style="shape=tableRow;horizontal=0;startSize=0;swimlaneHead=0;swimlaneBody=0;fillColor=none;collapsible=0;dropTarget=0;points=[[0,0.5],[1,0.5]];portConstraint=eastwest;top=0;left=0;right=0;bottom=0;html=1;strokeWidth=3;" vertex="1" parent="be3Qgi7hEzFIGp2nB2z0-427">
          <mxGeometry y="116" width="210.75" height="30" as="geometry" />
        </mxCell>
        <mxCell id="be3Qgi7hEzFIGp2nB2z0-438" value="" style="shape=partialRectangle;connectable=0;fillColor=none;top=0;left=0;bottom=0;right=0;editable=1;overflow=hidden;html=1;whiteSpace=wrap;strokeWidth=3;" vertex="1" parent="be3Qgi7hEzFIGp2nB2z0-437">
          <mxGeometry width="60" height="30" as="geometry">
            <mxRectangle width="60" height="30" as="alternateBounds" />
          </mxGeometry>
        </mxCell>
        <mxCell id="be3Qgi7hEzFIGp2nB2z0-439" value="pledged_money" style="shape=partialRectangle;connectable=0;fillColor=none;top=0;left=0;bottom=0;right=0;align=left;spacingLeft=6;overflow=hidden;html=1;whiteSpace=wrap;strokeWidth=3;" vertex="1" parent="be3Qgi7hEzFIGp2nB2z0-437">
          <mxGeometry x="60" width="150.75" height="30" as="geometry">
            <mxRectangle width="150.75" height="30" as="alternateBounds" />
          </mxGeometry>
        </mxCell>
        <mxCell id="be3Qgi7hEzFIGp2nB2z0-440" value="" style="shape=tableRow;horizontal=0;startSize=0;swimlaneHead=0;swimlaneBody=0;fillColor=none;collapsible=0;dropTarget=0;points=[[0,0.5],[1,0.5]];portConstraint=eastwest;top=0;left=0;right=0;bottom=0;html=1;strokeWidth=3;" vertex="1" parent="be3Qgi7hEzFIGp2nB2z0-427">
          <mxGeometry y="146" width="210.75" height="30" as="geometry" />
        </mxCell>
        <mxCell id="be3Qgi7hEzFIGp2nB2z0-441" value="" style="shape=partialRectangle;connectable=0;fillColor=none;top=0;left=0;bottom=0;right=0;editable=1;overflow=hidden;html=1;whiteSpace=wrap;strokeWidth=3;" vertex="1" parent="be3Qgi7hEzFIGp2nB2z0-440">
          <mxGeometry width="60" height="30" as="geometry">
            <mxRectangle width="60" height="30" as="alternateBounds" />
          </mxGeometry>
        </mxCell>
        <mxCell id="be3Qgi7hEzFIGp2nB2z0-442" value="monthly_cash_flow" style="shape=partialRectangle;connectable=0;fillColor=none;top=0;left=0;bottom=0;right=0;align=left;spacingLeft=6;overflow=hidden;html=1;whiteSpace=wrap;strokeWidth=3;" vertex="1" parent="be3Qgi7hEzFIGp2nB2z0-440">
          <mxGeometry x="60" width="150.75" height="30" as="geometry">
            <mxRectangle width="150.75" height="30" as="alternateBounds" />
          </mxGeometry>
        </mxCell>
        <mxCell id="be3Qgi7hEzFIGp2nB2z0-443" value="" style="shape=tableRow;horizontal=0;startSize=0;swimlaneHead=0;swimlaneBody=0;fillColor=none;collapsible=0;dropTarget=0;points=[[0,0.5],[1,0.5]];portConstraint=eastwest;top=0;left=0;right=0;bottom=0;html=1;strokeWidth=3;" vertex="1" parent="be3Qgi7hEzFIGp2nB2z0-427">
          <mxGeometry y="176" width="210.75" height="30" as="geometry" />
        </mxCell>
        <mxCell id="be3Qgi7hEzFIGp2nB2z0-444" value="" style="shape=partialRectangle;connectable=0;fillColor=none;top=0;left=0;bottom=0;right=0;editable=1;overflow=hidden;html=1;whiteSpace=wrap;strokeWidth=3;" vertex="1" parent="be3Qgi7hEzFIGp2nB2z0-443">
          <mxGeometry width="60" height="30" as="geometry">
            <mxRectangle width="60" height="30" as="alternateBounds" />
          </mxGeometry>
        </mxCell>
        <mxCell id="be3Qgi7hEzFIGp2nB2z0-445" value="other_help" style="shape=partialRectangle;connectable=0;fillColor=none;top=0;left=0;bottom=0;right=0;align=left;spacingLeft=6;overflow=hidden;html=1;whiteSpace=wrap;strokeWidth=3;" vertex="1" parent="be3Qgi7hEzFIGp2nB2z0-443">
          <mxGeometry x="60" width="150.75" height="30" as="geometry">
            <mxRectangle width="150.75" height="30" as="alternateBounds" />
          </mxGeometry>
        </mxCell>
        <mxCell id="be3Qgi7hEzFIGp2nB2z0-446" value="Retirement" style="shape=table;startSize=30;container=1;collapsible=1;childLayout=tableLayout;fixedRows=1;rowLines=0;fontStyle=1;align=center;resizeLast=1;html=1;whiteSpace=wrap;fillColor=none;strokeWidth=3;" vertex="1" parent="1">
          <mxGeometry x="40" y="1220" width="280.75" height="300" as="geometry" />
        </mxCell>
        <mxCell id="be3Qgi7hEzFIGp2nB2z0-474" value="" style="shape=tableRow;horizontal=0;startSize=0;swimlaneHead=0;swimlaneBody=0;fillColor=none;collapsible=0;dropTarget=0;points=[[0,0.5],[1,0.5]];portConstraint=eastwest;top=0;left=0;right=0;bottom=0;html=1;strokeWidth=3;" vertex="1" parent="be3Qgi7hEzFIGp2nB2z0-446">
          <mxGeometry y="30" width="280.75" height="30" as="geometry" />
        </mxCell>
        <mxCell id="be3Qgi7hEzFIGp2nB2z0-475" value="&lt;b&gt;PK&lt;/b&gt;" style="shape=partialRectangle;connectable=0;fillColor=none;top=0;left=0;bottom=0;right=0;editable=1;overflow=hidden;html=1;whiteSpace=wrap;strokeWidth=3;" vertex="1" parent="be3Qgi7hEzFIGp2nB2z0-474">
          <mxGeometry width="60" height="30" as="geometry">
            <mxRectangle width="60" height="30" as="alternateBounds" />
          </mxGeometry>
        </mxCell>
        <mxCell id="be3Qgi7hEzFIGp2nB2z0-476" value="&lt;b&gt;&lt;u&gt;retirement_id&lt;/u&gt;&lt;/b&gt;" style="shape=partialRectangle;connectable=0;fillColor=none;top=0;left=0;bottom=0;right=0;align=left;spacingLeft=6;overflow=hidden;html=1;whiteSpace=wrap;strokeWidth=3;" vertex="1" parent="be3Qgi7hEzFIGp2nB2z0-474">
          <mxGeometry x="60" width="220.75" height="30" as="geometry">
            <mxRectangle width="220.75" height="30" as="alternateBounds" />
          </mxGeometry>
        </mxCell>
        <mxCell id="be3Qgi7hEzFIGp2nB2z0-450" value="" style="shape=tableRow;horizontal=0;startSize=0;swimlaneHead=0;swimlaneBody=0;fillColor=none;collapsible=0;dropTarget=0;points=[[0,0.5],[1,0.5]];portConstraint=eastwest;top=0;left=0;right=0;bottom=1;html=1;strokeWidth=3;" vertex="1" parent="be3Qgi7hEzFIGp2nB2z0-446">
          <mxGeometry y="60" width="280.75" height="30" as="geometry" />
        </mxCell>
        <mxCell id="be3Qgi7hEzFIGp2nB2z0-451" value="FK" style="shape=partialRectangle;connectable=0;fillColor=none;top=0;left=0;bottom=0;right=0;fontStyle=1;overflow=hidden;html=1;whiteSpace=wrap;strokeWidth=3;" vertex="1" parent="be3Qgi7hEzFIGp2nB2z0-450">
          <mxGeometry width="60" height="30" as="geometry">
            <mxRectangle width="60" height="30" as="alternateBounds" />
          </mxGeometry>
        </mxCell>
        <mxCell id="be3Qgi7hEzFIGp2nB2z0-452" value="parent_id" style="shape=partialRectangle;connectable=0;fillColor=none;top=0;left=0;bottom=0;right=0;align=left;spacingLeft=6;fontStyle=5;overflow=hidden;html=1;whiteSpace=wrap;strokeWidth=3;" vertex="1" parent="be3Qgi7hEzFIGp2nB2z0-450">
          <mxGeometry x="60" width="220.75" height="30" as="geometry">
            <mxRectangle width="220.75" height="30" as="alternateBounds" />
          </mxGeometry>
        </mxCell>
        <mxCell id="be3Qgi7hEzFIGp2nB2z0-453" value="" style="shape=tableRow;horizontal=0;startSize=0;swimlaneHead=0;swimlaneBody=0;fillColor=none;collapsible=0;dropTarget=0;points=[[0,0.5],[1,0.5]];portConstraint=eastwest;top=0;left=0;right=0;bottom=0;html=1;strokeWidth=3;" vertex="1" parent="be3Qgi7hEzFIGp2nB2z0-446">
          <mxGeometry y="90" width="280.75" height="30" as="geometry" />
        </mxCell>
        <mxCell id="be3Qgi7hEzFIGp2nB2z0-454" value="" style="shape=partialRectangle;connectable=0;fillColor=none;top=0;left=0;bottom=0;right=0;editable=1;overflow=hidden;html=1;whiteSpace=wrap;strokeWidth=3;" vertex="1" parent="be3Qgi7hEzFIGp2nB2z0-453">
          <mxGeometry width="60" height="30" as="geometry">
            <mxRectangle width="60" height="30" as="alternateBounds" />
          </mxGeometry>
        </mxCell>
        <mxCell id="be3Qgi7hEzFIGp2nB2z0-455" value="tax_deferred_plan" style="shape=partialRectangle;connectable=0;fillColor=none;top=0;left=0;bottom=0;right=0;align=left;spacingLeft=6;overflow=hidden;html=1;whiteSpace=wrap;strokeWidth=3;" vertex="1" parent="be3Qgi7hEzFIGp2nB2z0-453">
          <mxGeometry x="60" width="220.75" height="30" as="geometry">
            <mxRectangle width="220.75" height="30" as="alternateBounds" />
          </mxGeometry>
        </mxCell>
        <mxCell id="be3Qgi7hEzFIGp2nB2z0-456" value="" style="shape=tableRow;horizontal=0;startSize=0;swimlaneHead=0;swimlaneBody=0;fillColor=none;collapsible=0;dropTarget=0;points=[[0,0.5],[1,0.5]];portConstraint=eastwest;top=0;left=0;right=0;bottom=0;html=1;strokeWidth=3;" vertex="1" parent="be3Qgi7hEzFIGp2nB2z0-446">
          <mxGeometry y="120" width="280.75" height="30" as="geometry" />
        </mxCell>
        <mxCell id="be3Qgi7hEzFIGp2nB2z0-457" value="" style="shape=partialRectangle;connectable=0;fillColor=none;top=0;left=0;bottom=0;right=0;editable=1;overflow=hidden;html=1;whiteSpace=wrap;strokeWidth=3;" vertex="1" parent="be3Qgi7hEzFIGp2nB2z0-456">
          <mxGeometry width="60" height="30" as="geometry">
            <mxRectangle width="60" height="30" as="alternateBounds" />
          </mxGeometry>
        </mxCell>
        <mxCell id="be3Qgi7hEzFIGp2nB2z0-458" value="employer_sponsored_plan" style="shape=partialRectangle;connectable=0;fillColor=none;top=0;left=0;bottom=0;right=0;align=left;spacingLeft=6;overflow=hidden;html=1;whiteSpace=wrap;strokeWidth=3;" vertex="1" parent="be3Qgi7hEzFIGp2nB2z0-456">
          <mxGeometry x="60" width="220.75" height="30" as="geometry">
            <mxRectangle width="220.75" height="30" as="alternateBounds" />
          </mxGeometry>
        </mxCell>
        <mxCell id="be3Qgi7hEzFIGp2nB2z0-459" value="" style="shape=tableRow;horizontal=0;startSize=0;swimlaneHead=0;swimlaneBody=0;fillColor=none;collapsible=0;dropTarget=0;points=[[0,0.5],[1,0.5]];portConstraint=eastwest;top=0;left=0;right=0;bottom=0;html=1;strokeWidth=3;" vertex="1" parent="be3Qgi7hEzFIGp2nB2z0-446">
          <mxGeometry y="150" width="280.75" height="30" as="geometry" />
        </mxCell>
        <mxCell id="be3Qgi7hEzFIGp2nB2z0-460" value="" style="shape=partialRectangle;connectable=0;fillColor=none;top=0;left=0;bottom=0;right=0;editable=1;overflow=hidden;html=1;whiteSpace=wrap;strokeWidth=3;" vertex="1" parent="be3Qgi7hEzFIGp2nB2z0-459">
          <mxGeometry width="60" height="30" as="geometry">
            <mxRectangle width="60" height="30" as="alternateBounds" />
          </mxGeometry>
        </mxCell>
        <mxCell id="be3Qgi7hEzFIGp2nB2z0-461" value="civil_service_or_state_sponsored_plan" style="shape=partialRectangle;connectable=0;fillColor=none;top=0;left=0;bottom=0;right=0;align=left;spacingLeft=6;overflow=hidden;html=1;whiteSpace=wrap;strokeWidth=3;" vertex="1" parent="be3Qgi7hEzFIGp2nB2z0-459">
          <mxGeometry x="60" width="220.75" height="30" as="geometry">
            <mxRectangle width="220.75" height="30" as="alternateBounds" />
          </mxGeometry>
        </mxCell>
        <mxCell id="be3Qgi7hEzFIGp2nB2z0-462" value="" style="shape=tableRow;horizontal=0;startSize=0;swimlaneHead=0;swimlaneBody=0;fillColor=none;collapsible=0;dropTarget=0;points=[[0,0.5],[1,0.5]];portConstraint=eastwest;top=0;left=0;right=0;bottom=0;html=1;strokeWidth=3;" vertex="1" parent="be3Qgi7hEzFIGp2nB2z0-446">
          <mxGeometry y="180" width="280.75" height="30" as="geometry" />
        </mxCell>
        <mxCell id="be3Qgi7hEzFIGp2nB2z0-463" value="" style="shape=partialRectangle;connectable=0;fillColor=none;top=0;left=0;bottom=0;right=0;editable=1;overflow=hidden;html=1;whiteSpace=wrap;strokeWidth=3;" vertex="1" parent="be3Qgi7hEzFIGp2nB2z0-462">
          <mxGeometry width="60" height="30" as="geometry">
            <mxRectangle width="60" height="30" as="alternateBounds" />
          </mxGeometry>
        </mxCell>
        <mxCell id="be3Qgi7hEzFIGp2nB2z0-464" value="union_sponsored" style="shape=partialRectangle;connectable=0;fillColor=none;top=0;left=0;bottom=0;right=0;align=left;spacingLeft=6;overflow=hidden;html=1;whiteSpace=wrap;strokeWidth=3;" vertex="1" parent="be3Qgi7hEzFIGp2nB2z0-462">
          <mxGeometry x="60" width="220.75" height="30" as="geometry">
            <mxRectangle width="220.75" height="30" as="alternateBounds" />
          </mxGeometry>
        </mxCell>
        <mxCell id="be3Qgi7hEzFIGp2nB2z0-468" value="" style="shape=tableRow;horizontal=0;startSize=0;swimlaneHead=0;swimlaneBody=0;fillColor=none;collapsible=0;dropTarget=0;points=[[0,0.5],[1,0.5]];portConstraint=eastwest;top=0;left=0;right=0;bottom=0;html=1;strokeWidth=3;" vertex="1" parent="be3Qgi7hEzFIGp2nB2z0-446">
          <mxGeometry y="210" width="280.75" height="30" as="geometry" />
        </mxCell>
        <mxCell id="be3Qgi7hEzFIGp2nB2z0-469" value="" style="shape=partialRectangle;connectable=0;fillColor=none;top=0;left=0;bottom=0;right=0;editable=1;overflow=hidden;html=1;whiteSpace=wrap;strokeWidth=3;" vertex="1" parent="be3Qgi7hEzFIGp2nB2z0-468">
          <mxGeometry width="60" height="30" as="geometry">
            <mxRectangle width="60" height="30" as="alternateBounds" />
          </mxGeometry>
        </mxCell>
        <mxCell id="be3Qgi7hEzFIGp2nB2z0-470" value="military_sponsored_plan" style="shape=partialRectangle;connectable=0;fillColor=none;top=0;left=0;bottom=0;right=0;align=left;spacingLeft=6;overflow=hidden;html=1;whiteSpace=wrap;strokeWidth=3;" vertex="1" parent="be3Qgi7hEzFIGp2nB2z0-468">
          <mxGeometry x="60" width="220.75" height="30" as="geometry">
            <mxRectangle width="220.75" height="30" as="alternateBounds" />
          </mxGeometry>
        </mxCell>
        <mxCell id="be3Qgi7hEzFIGp2nB2z0-471" value="" style="shape=tableRow;horizontal=0;startSize=0;swimlaneHead=0;swimlaneBody=0;fillColor=none;collapsible=0;dropTarget=0;points=[[0,0.5],[1,0.5]];portConstraint=eastwest;top=0;left=0;right=0;bottom=0;html=1;strokeWidth=3;" vertex="1" parent="be3Qgi7hEzFIGp2nB2z0-446">
          <mxGeometry y="240" width="280.75" height="30" as="geometry" />
        </mxCell>
        <mxCell id="be3Qgi7hEzFIGp2nB2z0-472" value="" style="shape=partialRectangle;connectable=0;fillColor=none;top=0;left=0;bottom=0;right=0;editable=1;overflow=hidden;html=1;whiteSpace=wrap;strokeWidth=3;" vertex="1" parent="be3Qgi7hEzFIGp2nB2z0-471">
          <mxGeometry width="60" height="30" as="geometry">
            <mxRectangle width="60" height="30" as="alternateBounds" />
          </mxGeometry>
        </mxCell>
        <mxCell id="be3Qgi7hEzFIGp2nB2z0-473" value="other" style="shape=partialRectangle;connectable=0;fillColor=none;top=0;left=0;bottom=0;right=0;align=left;spacingLeft=6;overflow=hidden;html=1;whiteSpace=wrap;strokeWidth=3;" vertex="1" parent="be3Qgi7hEzFIGp2nB2z0-471">
          <mxGeometry x="60" width="220.75" height="30" as="geometry">
            <mxRectangle width="220.75" height="30" as="alternateBounds" />
          </mxGeometry>
        </mxCell>
        <mxCell id="be3Qgi7hEzFIGp2nB2z0-465" value="" style="shape=tableRow;horizontal=0;startSize=0;swimlaneHead=0;swimlaneBody=0;fillColor=none;collapsible=0;dropTarget=0;points=[[0,0.5],[1,0.5]];portConstraint=eastwest;top=0;left=0;right=0;bottom=0;html=1;strokeWidth=3;" vertex="1" parent="be3Qgi7hEzFIGp2nB2z0-446">
          <mxGeometry y="270" width="280.75" height="30" as="geometry" />
        </mxCell>
        <mxCell id="be3Qgi7hEzFIGp2nB2z0-466" value="" style="shape=partialRectangle;connectable=0;fillColor=none;top=0;left=0;bottom=0;right=0;editable=1;overflow=hidden;html=1;whiteSpace=wrap;strokeWidth=3;" vertex="1" parent="be3Qgi7hEzFIGp2nB2z0-465">
          <mxGeometry width="60" height="30" as="geometry">
            <mxRectangle width="60" height="30" as="alternateBounds" />
          </mxGeometry>
        </mxCell>
        <mxCell id="be3Qgi7hEzFIGp2nB2z0-467" value="total_value" style="shape=partialRectangle;connectable=0;fillColor=none;top=0;left=0;bottom=0;right=0;align=left;spacingLeft=6;overflow=hidden;html=1;whiteSpace=wrap;strokeWidth=3;" vertex="1" parent="be3Qgi7hEzFIGp2nB2z0-465">
          <mxGeometry x="60" width="220.75" height="30" as="geometry">
            <mxRectangle width="220.75" height="30" as="alternateBounds" />
          </mxGeometry>
        </mxCell>
        <mxCell id="be3Qgi7hEzFIGp2nB2z0-483" value="FafsaParentDetails" style="shape=table;startSize=30;container=1;collapsible=1;childLayout=tableLayout;fixedRows=1;rowLines=0;fontStyle=1;align=center;resizeLast=1;html=1;whiteSpace=wrap;fillColor=none;strokeWidth=3;" vertex="1" parent="1">
          <mxGeometry x="1235" y="81" width="208.8800000000001" height="750" as="geometry" />
        </mxCell>
        <mxCell id="be3Qgi7hEzFIGp2nB2z0-484" value="" style="shape=tableRow;horizontal=0;startSize=0;swimlaneHead=0;swimlaneBody=0;fillColor=none;collapsible=0;dropTarget=0;points=[[0,0.5],[1,0.5]];portConstraint=eastwest;top=0;left=0;right=0;bottom=0;html=1;strokeWidth=3;" vertex="1" parent="be3Qgi7hEzFIGp2nB2z0-483">
          <mxGeometry y="30" width="208.8800000000001" height="30" as="geometry" />
        </mxCell>
        <mxCell id="be3Qgi7hEzFIGp2nB2z0-485" value="PK" style="shape=partialRectangle;connectable=0;fillColor=none;top=0;left=0;bottom=0;right=0;fontStyle=1;overflow=hidden;html=1;whiteSpace=wrap;strokeWidth=3;perimeterSpacing=0;" vertex="1" parent="be3Qgi7hEzFIGp2nB2z0-484">
          <mxGeometry width="60" height="30" as="geometry">
            <mxRectangle width="60" height="30" as="alternateBounds" />
          </mxGeometry>
        </mxCell>
        <mxCell id="be3Qgi7hEzFIGp2nB2z0-486" value="fafsaParentDetails_id" style="shape=partialRectangle;connectable=0;fillColor=none;top=0;left=0;bottom=0;right=0;align=left;spacingLeft=6;fontStyle=5;overflow=hidden;html=1;whiteSpace=wrap;strokeWidth=3;" vertex="1" parent="be3Qgi7hEzFIGp2nB2z0-484">
          <mxGeometry x="60" width="148.8800000000001" height="30" as="geometry">
            <mxRectangle width="148.8800000000001" height="30" as="alternateBounds" />
          </mxGeometry>
        </mxCell>
        <mxCell id="be3Qgi7hEzFIGp2nB2z0-651" value="" style="shape=tableRow;horizontal=0;startSize=0;swimlaneHead=0;swimlaneBody=0;fillColor=none;collapsible=0;dropTarget=0;points=[[0,0.5],[1,0.5]];portConstraint=eastwest;top=0;left=0;right=0;bottom=0;html=1;strokeWidth=3;" vertex="1" parent="be3Qgi7hEzFIGp2nB2z0-483">
          <mxGeometry y="60" width="208.8800000000001" height="30" as="geometry" />
        </mxCell>
        <mxCell id="be3Qgi7hEzFIGp2nB2z0-652" value="&lt;b&gt;FK1&lt;/b&gt;" style="shape=partialRectangle;connectable=0;fillColor=none;top=0;left=0;bottom=0;right=0;editable=1;overflow=hidden;html=1;whiteSpace=wrap;strokeWidth=3;" vertex="1" parent="be3Qgi7hEzFIGp2nB2z0-651">
          <mxGeometry width="60" height="30" as="geometry">
            <mxRectangle width="60" height="30" as="alternateBounds" />
          </mxGeometry>
        </mxCell>
        <mxCell id="be3Qgi7hEzFIGp2nB2z0-653" value="&lt;b&gt;&lt;u&gt;household_id&lt;/u&gt;&lt;/b&gt;" style="shape=partialRectangle;connectable=0;fillColor=none;top=0;left=0;bottom=0;right=0;align=left;spacingLeft=6;overflow=hidden;html=1;whiteSpace=wrap;strokeWidth=3;" vertex="1" parent="be3Qgi7hEzFIGp2nB2z0-651">
          <mxGeometry x="60" width="148.8800000000001" height="30" as="geometry">
            <mxRectangle width="148.8800000000001" height="30" as="alternateBounds" />
          </mxGeometry>
        </mxCell>
        <mxCell id="be3Qgi7hEzFIGp2nB2z0-511" value="" style="shape=tableRow;horizontal=0;startSize=0;swimlaneHead=0;swimlaneBody=0;fillColor=none;collapsible=0;dropTarget=0;points=[[0,0.5],[1,0.5]];portConstraint=eastwest;top=0;left=0;right=0;bottom=0;html=1;strokeWidth=3;" vertex="1" parent="be3Qgi7hEzFIGp2nB2z0-483">
          <mxGeometry y="90" width="208.8800000000001" height="30" as="geometry" />
        </mxCell>
        <mxCell id="be3Qgi7hEzFIGp2nB2z0-512" value="&lt;b&gt;FK2&lt;/b&gt;" style="shape=partialRectangle;connectable=0;fillColor=none;top=0;left=0;bottom=0;right=0;editable=1;overflow=hidden;html=1;whiteSpace=wrap;strokeWidth=3;" vertex="1" parent="be3Qgi7hEzFIGp2nB2z0-511">
          <mxGeometry width="60" height="30" as="geometry">
            <mxRectangle width="60" height="30" as="alternateBounds" />
          </mxGeometry>
        </mxCell>
        <mxCell id="be3Qgi7hEzFIGp2nB2z0-513" value="&lt;b&gt;&lt;u&gt;asset_id&lt;/u&gt;&lt;/b&gt;" style="shape=partialRectangle;connectable=0;fillColor=none;top=0;left=0;bottom=0;right=0;align=left;spacingLeft=6;overflow=hidden;html=1;whiteSpace=wrap;strokeWidth=3;" vertex="1" parent="be3Qgi7hEzFIGp2nB2z0-511">
          <mxGeometry x="60" width="148.8800000000001" height="30" as="geometry">
            <mxRectangle width="148.8800000000001" height="30" as="alternateBounds" />
          </mxGeometry>
        </mxCell>
        <mxCell id="be3Qgi7hEzFIGp2nB2z0-493" value="" style="shape=tableRow;horizontal=0;startSize=0;swimlaneHead=0;swimlaneBody=0;fillColor=none;collapsible=0;dropTarget=0;points=[[0,0.5],[1,0.5]];portConstraint=eastwest;top=0;left=0;right=0;bottom=0;html=1;strokeWidth=3;" vertex="1" parent="be3Qgi7hEzFIGp2nB2z0-483">
          <mxGeometry y="120" width="208.8800000000001" height="30" as="geometry" />
        </mxCell>
        <mxCell id="be3Qgi7hEzFIGp2nB2z0-494" value="&lt;b&gt;FK3&lt;/b&gt;" style="shape=partialRectangle;connectable=0;fillColor=none;top=0;left=0;bottom=0;right=0;editable=1;overflow=hidden;html=1;whiteSpace=wrap;strokeWidth=3;" vertex="1" parent="be3Qgi7hEzFIGp2nB2z0-493">
          <mxGeometry width="60" height="30" as="geometry">
            <mxRectangle width="60" height="30" as="alternateBounds" />
          </mxGeometry>
        </mxCell>
        <mxCell id="be3Qgi7hEzFIGp2nB2z0-495" value="&lt;b&gt;&lt;u&gt;address_id&lt;/u&gt;&lt;/b&gt;" style="shape=partialRectangle;connectable=0;fillColor=none;top=0;left=0;bottom=0;right=0;align=left;spacingLeft=6;overflow=hidden;html=1;whiteSpace=wrap;strokeWidth=3;" vertex="1" parent="be3Qgi7hEzFIGp2nB2z0-493">
          <mxGeometry x="60" width="148.8800000000001" height="30" as="geometry">
            <mxRectangle width="148.8800000000001" height="30" as="alternateBounds" />
          </mxGeometry>
        </mxCell>
        <mxCell id="be3Qgi7hEzFIGp2nB2z0-487" value="" style="shape=tableRow;horizontal=0;startSize=0;swimlaneHead=0;swimlaneBody=0;fillColor=none;collapsible=0;dropTarget=0;points=[[0,0.5],[1,0.5]];portConstraint=eastwest;top=0;left=0;right=0;bottom=1;html=1;strokeWidth=3;" vertex="1" parent="be3Qgi7hEzFIGp2nB2z0-483">
          <mxGeometry y="150" width="208.8800000000001" height="30" as="geometry" />
        </mxCell>
        <mxCell id="be3Qgi7hEzFIGp2nB2z0-488" value="FK4" style="shape=partialRectangle;connectable=0;fillColor=none;top=0;left=0;bottom=0;right=0;fontStyle=1;overflow=hidden;html=1;whiteSpace=wrap;strokeWidth=3;" vertex="1" parent="be3Qgi7hEzFIGp2nB2z0-487">
          <mxGeometry width="60" height="30" as="geometry">
            <mxRectangle width="60" height="30" as="alternateBounds" />
          </mxGeometry>
        </mxCell>
        <mxCell id="be3Qgi7hEzFIGp2nB2z0-489" value="user_id" style="shape=partialRectangle;connectable=0;fillColor=none;top=0;left=0;bottom=0;right=0;align=left;spacingLeft=6;fontStyle=5;overflow=hidden;html=1;whiteSpace=wrap;strokeWidth=3;" vertex="1" parent="be3Qgi7hEzFIGp2nB2z0-487">
          <mxGeometry x="60" width="148.8800000000001" height="30" as="geometry">
            <mxRectangle width="148.8800000000001" height="30" as="alternateBounds" />
          </mxGeometry>
        </mxCell>
        <mxCell id="be3Qgi7hEzFIGp2nB2z0-490" value="" style="shape=tableRow;horizontal=0;startSize=0;swimlaneHead=0;swimlaneBody=0;fillColor=none;collapsible=0;dropTarget=0;points=[[0,0.5],[1,0.5]];portConstraint=eastwest;top=0;left=0;right=0;bottom=0;html=1;strokeWidth=3;" vertex="1" parent="be3Qgi7hEzFIGp2nB2z0-483">
          <mxGeometry y="180" width="208.8800000000001" height="30" as="geometry" />
        </mxCell>
        <mxCell id="be3Qgi7hEzFIGp2nB2z0-491" value="" style="shape=partialRectangle;connectable=0;fillColor=none;top=0;left=0;bottom=0;right=0;editable=1;overflow=hidden;html=1;whiteSpace=wrap;strokeWidth=3;" vertex="1" parent="be3Qgi7hEzFIGp2nB2z0-490">
          <mxGeometry width="60" height="30" as="geometry">
            <mxRectangle width="60" height="30" as="alternateBounds" />
          </mxGeometry>
        </mxCell>
        <mxCell id="be3Qgi7hEzFIGp2nB2z0-492" value="relationship_to_student" style="shape=partialRectangle;connectable=0;fillColor=none;top=0;left=0;bottom=0;right=0;align=left;spacingLeft=6;overflow=hidden;html=1;whiteSpace=wrap;strokeWidth=3;" vertex="1" parent="be3Qgi7hEzFIGp2nB2z0-490">
          <mxGeometry x="60" width="148.8800000000001" height="30" as="geometry">
            <mxRectangle width="148.8800000000001" height="30" as="alternateBounds" />
          </mxGeometry>
        </mxCell>
        <mxCell id="be3Qgi7hEzFIGp2nB2z0-496" value="" style="shape=tableRow;horizontal=0;startSize=0;swimlaneHead=0;swimlaneBody=0;fillColor=none;collapsible=0;dropTarget=0;points=[[0,0.5],[1,0.5]];portConstraint=eastwest;top=0;left=0;right=0;bottom=0;html=1;strokeWidth=3;" vertex="1" parent="be3Qgi7hEzFIGp2nB2z0-483">
          <mxGeometry y="210" width="208.8800000000001" height="30" as="geometry" />
        </mxCell>
        <mxCell id="be3Qgi7hEzFIGp2nB2z0-497" value="" style="shape=partialRectangle;connectable=0;fillColor=none;top=0;left=0;bottom=0;right=0;editable=1;overflow=hidden;html=1;whiteSpace=wrap;strokeWidth=3;" vertex="1" parent="be3Qgi7hEzFIGp2nB2z0-496">
          <mxGeometry width="60" height="30" as="geometry">
            <mxRectangle width="60" height="30" as="alternateBounds" />
          </mxGeometry>
        </mxCell>
        <mxCell id="be3Qgi7hEzFIGp2nB2z0-498" value="social_security" style="shape=partialRectangle;connectable=0;fillColor=none;top=0;left=0;bottom=0;right=0;align=left;spacingLeft=6;overflow=hidden;html=1;whiteSpace=wrap;strokeWidth=3;" vertex="1" parent="be3Qgi7hEzFIGp2nB2z0-496">
          <mxGeometry x="60" width="148.8800000000001" height="30" as="geometry">
            <mxRectangle width="148.8800000000001" height="30" as="alternateBounds" />
          </mxGeometry>
        </mxCell>
        <mxCell id="be3Qgi7hEzFIGp2nB2z0-499" value="" style="shape=tableRow;horizontal=0;startSize=0;swimlaneHead=0;swimlaneBody=0;fillColor=none;collapsible=0;dropTarget=0;points=[[0,0.5],[1,0.5]];portConstraint=eastwest;top=0;left=0;right=0;bottom=0;html=1;strokeWidth=3;" vertex="1" parent="be3Qgi7hEzFIGp2nB2z0-483">
          <mxGeometry y="240" width="208.8800000000001" height="30" as="geometry" />
        </mxCell>
        <mxCell id="be3Qgi7hEzFIGp2nB2z0-500" value="" style="shape=partialRectangle;connectable=0;fillColor=none;top=0;left=0;bottom=0;right=0;editable=1;overflow=hidden;html=1;whiteSpace=wrap;strokeWidth=3;" vertex="1" parent="be3Qgi7hEzFIGp2nB2z0-499">
          <mxGeometry width="60" height="30" as="geometry">
            <mxRectangle width="60" height="30" as="alternateBounds" />
          </mxGeometry>
        </mxCell>
        <mxCell id="be3Qgi7hEzFIGp2nB2z0-501" value="phone" style="shape=partialRectangle;connectable=0;fillColor=none;top=0;left=0;bottom=0;right=0;align=left;spacingLeft=6;overflow=hidden;html=1;whiteSpace=wrap;strokeWidth=3;" vertex="1" parent="be3Qgi7hEzFIGp2nB2z0-499">
          <mxGeometry x="60" width="148.8800000000001" height="30" as="geometry">
            <mxRectangle width="148.8800000000001" height="30" as="alternateBounds" />
          </mxGeometry>
        </mxCell>
        <mxCell id="be3Qgi7hEzFIGp2nB2z0-502" value="" style="shape=tableRow;horizontal=0;startSize=0;swimlaneHead=0;swimlaneBody=0;fillColor=none;collapsible=0;dropTarget=0;points=[[0,0.5],[1,0.5]];portConstraint=eastwest;top=0;left=0;right=0;bottom=0;html=1;strokeWidth=3;" vertex="1" parent="be3Qgi7hEzFIGp2nB2z0-483">
          <mxGeometry y="270" width="208.8800000000001" height="30" as="geometry" />
        </mxCell>
        <mxCell id="be3Qgi7hEzFIGp2nB2z0-503" value="" style="shape=partialRectangle;connectable=0;fillColor=none;top=0;left=0;bottom=0;right=0;editable=1;overflow=hidden;html=1;whiteSpace=wrap;strokeWidth=3;" vertex="1" parent="be3Qgi7hEzFIGp2nB2z0-502">
          <mxGeometry width="60" height="30" as="geometry">
            <mxRectangle width="60" height="30" as="alternateBounds" />
          </mxGeometry>
        </mxCell>
        <mxCell id="be3Qgi7hEzFIGp2nB2z0-504" value="email" style="shape=partialRectangle;connectable=0;fillColor=none;top=0;left=0;bottom=0;right=0;align=left;spacingLeft=6;overflow=hidden;html=1;whiteSpace=wrap;strokeWidth=3;" vertex="1" parent="be3Qgi7hEzFIGp2nB2z0-502">
          <mxGeometry x="60" width="148.8800000000001" height="30" as="geometry">
            <mxRectangle width="148.8800000000001" height="30" as="alternateBounds" />
          </mxGeometry>
        </mxCell>
        <mxCell id="be3Qgi7hEzFIGp2nB2z0-505" value="" style="shape=tableRow;horizontal=0;startSize=0;swimlaneHead=0;swimlaneBody=0;fillColor=none;collapsible=0;dropTarget=0;points=[[0,0.5],[1,0.5]];portConstraint=eastwest;top=0;left=0;right=0;bottom=0;html=1;strokeWidth=3;" vertex="1" parent="be3Qgi7hEzFIGp2nB2z0-483">
          <mxGeometry y="300" width="208.8800000000001" height="30" as="geometry" />
        </mxCell>
        <mxCell id="be3Qgi7hEzFIGp2nB2z0-506" value="" style="shape=partialRectangle;connectable=0;fillColor=none;top=0;left=0;bottom=0;right=0;editable=1;overflow=hidden;html=1;whiteSpace=wrap;strokeWidth=3;" vertex="1" parent="be3Qgi7hEzFIGp2nB2z0-505">
          <mxGeometry width="60" height="30" as="geometry">
            <mxRectangle width="60" height="30" as="alternateBounds" />
          </mxGeometry>
        </mxCell>
        <mxCell id="be3Qgi7hEzFIGp2nB2z0-507" value="fafsa_username" style="shape=partialRectangle;connectable=0;fillColor=none;top=0;left=0;bottom=0;right=0;align=left;spacingLeft=6;overflow=hidden;html=1;whiteSpace=wrap;strokeWidth=3;" vertex="1" parent="be3Qgi7hEzFIGp2nB2z0-505">
          <mxGeometry x="60" width="148.8800000000001" height="30" as="geometry">
            <mxRectangle width="148.8800000000001" height="30" as="alternateBounds" />
          </mxGeometry>
        </mxCell>
        <mxCell id="be3Qgi7hEzFIGp2nB2z0-508" value="" style="shape=tableRow;horizontal=0;startSize=0;swimlaneHead=0;swimlaneBody=0;fillColor=none;collapsible=0;dropTarget=0;points=[[0,0.5],[1,0.5]];portConstraint=eastwest;top=0;left=0;right=0;bottom=0;html=1;strokeWidth=3;" vertex="1" parent="be3Qgi7hEzFIGp2nB2z0-483">
          <mxGeometry y="330" width="208.8800000000001" height="30" as="geometry" />
        </mxCell>
        <mxCell id="be3Qgi7hEzFIGp2nB2z0-509" value="" style="shape=partialRectangle;connectable=0;fillColor=none;top=0;left=0;bottom=0;right=0;editable=1;overflow=hidden;html=1;whiteSpace=wrap;strokeWidth=3;" vertex="1" parent="be3Qgi7hEzFIGp2nB2z0-508">
          <mxGeometry width="60" height="30" as="geometry">
            <mxRectangle width="60" height="30" as="alternateBounds" />
          </mxGeometry>
        </mxCell>
        <mxCell id="be3Qgi7hEzFIGp2nB2z0-510" value="fafsa_password" style="shape=partialRectangle;connectable=0;fillColor=none;top=0;left=0;bottom=0;right=0;align=left;spacingLeft=6;overflow=hidden;html=1;whiteSpace=wrap;strokeWidth=3;" vertex="1" parent="be3Qgi7hEzFIGp2nB2z0-508">
          <mxGeometry x="60" width="148.8800000000001" height="30" as="geometry">
            <mxRectangle width="148.8800000000001" height="30" as="alternateBounds" />
          </mxGeometry>
        </mxCell>
        <mxCell id="be3Qgi7hEzFIGp2nB2z0-514" value="" style="shape=tableRow;horizontal=0;startSize=0;swimlaneHead=0;swimlaneBody=0;fillColor=none;collapsible=0;dropTarget=0;points=[[0,0.5],[1,0.5]];portConstraint=eastwest;top=0;left=0;right=0;bottom=0;html=1;strokeWidth=3;" vertex="1" parent="be3Qgi7hEzFIGp2nB2z0-483">
          <mxGeometry y="360" width="208.8800000000001" height="30" as="geometry" />
        </mxCell>
        <mxCell id="be3Qgi7hEzFIGp2nB2z0-515" value="" style="shape=partialRectangle;connectable=0;fillColor=none;top=0;left=0;bottom=0;right=0;editable=1;overflow=hidden;html=1;whiteSpace=wrap;strokeWidth=3;" vertex="1" parent="be3Qgi7hEzFIGp2nB2z0-514">
          <mxGeometry width="60" height="30" as="geometry">
            <mxRectangle width="60" height="30" as="alternateBounds" />
          </mxGeometry>
        </mxCell>
        <mxCell id="be3Qgi7hEzFIGp2nB2z0-516" value="legal_residence_date" style="shape=partialRectangle;connectable=0;fillColor=none;top=0;left=0;bottom=0;right=0;align=left;spacingLeft=6;overflow=hidden;html=1;whiteSpace=wrap;strokeWidth=3;" vertex="1" parent="be3Qgi7hEzFIGp2nB2z0-514">
          <mxGeometry x="60" width="148.8800000000001" height="30" as="geometry">
            <mxRectangle width="148.8800000000001" height="30" as="alternateBounds" />
          </mxGeometry>
        </mxCell>
        <mxCell id="be3Qgi7hEzFIGp2nB2z0-517" value="" style="shape=tableRow;horizontal=0;startSize=0;swimlaneHead=0;swimlaneBody=0;fillColor=none;collapsible=0;dropTarget=0;points=[[0,0.5],[1,0.5]];portConstraint=eastwest;top=0;left=0;right=0;bottom=0;html=1;strokeWidth=3;" vertex="1" parent="be3Qgi7hEzFIGp2nB2z0-483">
          <mxGeometry y="390" width="208.8800000000001" height="30" as="geometry" />
        </mxCell>
        <mxCell id="be3Qgi7hEzFIGp2nB2z0-518" value="" style="shape=partialRectangle;connectable=0;fillColor=none;top=0;left=0;bottom=0;right=0;editable=1;overflow=hidden;html=1;whiteSpace=wrap;strokeWidth=3;" vertex="1" parent="be3Qgi7hEzFIGp2nB2z0-517">
          <mxGeometry width="60" height="30" as="geometry">
            <mxRectangle width="60" height="30" as="alternateBounds" />
          </mxGeometry>
        </mxCell>
        <mxCell id="be3Qgi7hEzFIGp2nB2z0-519" value="highest_education" style="shape=partialRectangle;connectable=0;fillColor=none;top=0;left=0;bottom=0;right=0;align=left;spacingLeft=6;overflow=hidden;html=1;whiteSpace=wrap;strokeWidth=3;" vertex="1" parent="be3Qgi7hEzFIGp2nB2z0-517">
          <mxGeometry x="60" width="148.8800000000001" height="30" as="geometry">
            <mxRectangle width="148.8800000000001" height="30" as="alternateBounds" />
          </mxGeometry>
        </mxCell>
        <mxCell id="be3Qgi7hEzFIGp2nB2z0-520" value="" style="shape=tableRow;horizontal=0;startSize=0;swimlaneHead=0;swimlaneBody=0;fillColor=none;collapsible=0;dropTarget=0;points=[[0,0.5],[1,0.5]];portConstraint=eastwest;top=0;left=0;right=0;bottom=0;html=1;strokeWidth=3;" vertex="1" parent="be3Qgi7hEzFIGp2nB2z0-483">
          <mxGeometry y="420" width="208.8800000000001" height="30" as="geometry" />
        </mxCell>
        <mxCell id="be3Qgi7hEzFIGp2nB2z0-521" value="" style="shape=partialRectangle;connectable=0;fillColor=none;top=0;left=0;bottom=0;right=0;editable=1;overflow=hidden;html=1;whiteSpace=wrap;strokeWidth=3;" vertex="1" parent="be3Qgi7hEzFIGp2nB2z0-520">
          <mxGeometry width="60" height="30" as="geometry">
            <mxRectangle width="60" height="30" as="alternateBounds" />
          </mxGeometry>
        </mxCell>
        <mxCell id="be3Qgi7hEzFIGp2nB2z0-522" value="is_veteran" style="shape=partialRectangle;connectable=0;fillColor=none;top=0;left=0;bottom=0;right=0;align=left;spacingLeft=6;overflow=hidden;html=1;whiteSpace=wrap;strokeWidth=3;" vertex="1" parent="be3Qgi7hEzFIGp2nB2z0-520">
          <mxGeometry x="60" width="148.8800000000001" height="30" as="geometry">
            <mxRectangle width="148.8800000000001" height="30" as="alternateBounds" />
          </mxGeometry>
        </mxCell>
        <mxCell id="be3Qgi7hEzFIGp2nB2z0-523" value="" style="shape=tableRow;horizontal=0;startSize=0;swimlaneHead=0;swimlaneBody=0;fillColor=none;collapsible=0;dropTarget=0;points=[[0,0.5],[1,0.5]];portConstraint=eastwest;top=0;left=0;right=0;bottom=0;html=1;strokeWidth=3;" vertex="1" parent="be3Qgi7hEzFIGp2nB2z0-483">
          <mxGeometry y="450" width="208.8800000000001" height="30" as="geometry" />
        </mxCell>
        <mxCell id="be3Qgi7hEzFIGp2nB2z0-524" value="" style="shape=partialRectangle;connectable=0;fillColor=none;top=0;left=0;bottom=0;right=0;editable=1;overflow=hidden;html=1;whiteSpace=wrap;strokeWidth=3;" vertex="1" parent="be3Qgi7hEzFIGp2nB2z0-523">
          <mxGeometry width="60" height="30" as="geometry">
            <mxRectangle width="60" height="30" as="alternateBounds" />
          </mxGeometry>
        </mxCell>
        <mxCell id="be3Qgi7hEzFIGp2nB2z0-525" value="is_dislocated_worker" style="shape=partialRectangle;connectable=0;fillColor=none;top=0;left=0;bottom=0;right=0;align=left;spacingLeft=6;overflow=hidden;html=1;whiteSpace=wrap;strokeWidth=3;" vertex="1" parent="be3Qgi7hEzFIGp2nB2z0-523">
          <mxGeometry x="60" width="148.8800000000001" height="30" as="geometry">
            <mxRectangle width="148.8800000000001" height="30" as="alternateBounds" />
          </mxGeometry>
        </mxCell>
        <mxCell id="be3Qgi7hEzFIGp2nB2z0-526" value="" style="shape=tableRow;horizontal=0;startSize=0;swimlaneHead=0;swimlaneBody=0;fillColor=none;collapsible=0;dropTarget=0;points=[[0,0.5],[1,0.5]];portConstraint=eastwest;top=0;left=0;right=0;bottom=0;html=1;strokeWidth=3;" vertex="1" parent="be3Qgi7hEzFIGp2nB2z0-483">
          <mxGeometry y="480" width="208.8800000000001" height="30" as="geometry" />
        </mxCell>
        <mxCell id="be3Qgi7hEzFIGp2nB2z0-527" value="" style="shape=partialRectangle;connectable=0;fillColor=none;top=0;left=0;bottom=0;right=0;editable=1;overflow=hidden;html=1;whiteSpace=wrap;strokeWidth=3;" vertex="1" parent="be3Qgi7hEzFIGp2nB2z0-526">
          <mxGeometry width="60" height="30" as="geometry">
            <mxRectangle width="60" height="30" as="alternateBounds" />
          </mxGeometry>
        </mxCell>
        <mxCell id="be3Qgi7hEzFIGp2nB2z0-528" value="is_deceased" style="shape=partialRectangle;connectable=0;fillColor=none;top=0;left=0;bottom=0;right=0;align=left;spacingLeft=6;overflow=hidden;html=1;whiteSpace=wrap;strokeWidth=3;" vertex="1" parent="be3Qgi7hEzFIGp2nB2z0-526">
          <mxGeometry x="60" width="148.8800000000001" height="30" as="geometry">
            <mxRectangle width="148.8800000000001" height="30" as="alternateBounds" />
          </mxGeometry>
        </mxCell>
        <mxCell id="be3Qgi7hEzFIGp2nB2z0-529" value="" style="shape=tableRow;horizontal=0;startSize=0;swimlaneHead=0;swimlaneBody=0;fillColor=none;collapsible=0;dropTarget=0;points=[[0,0.5],[1,0.5]];portConstraint=eastwest;top=0;left=0;right=0;bottom=0;html=1;strokeWidth=3;" vertex="1" parent="be3Qgi7hEzFIGp2nB2z0-483">
          <mxGeometry y="510" width="208.8800000000001" height="30" as="geometry" />
        </mxCell>
        <mxCell id="be3Qgi7hEzFIGp2nB2z0-530" value="" style="shape=partialRectangle;connectable=0;fillColor=none;top=0;left=0;bottom=0;right=0;editable=1;overflow=hidden;html=1;whiteSpace=wrap;strokeWidth=3;" vertex="1" parent="be3Qgi7hEzFIGp2nB2z0-529">
          <mxGeometry width="60" height="30" as="geometry">
            <mxRectangle width="60" height="30" as="alternateBounds" />
          </mxGeometry>
        </mxCell>
        <mxCell id="be3Qgi7hEzFIGp2nB2z0-531" value="marital_status" style="shape=partialRectangle;connectable=0;fillColor=none;top=0;left=0;bottom=0;right=0;align=left;spacingLeft=6;overflow=hidden;html=1;whiteSpace=wrap;strokeWidth=3;" vertex="1" parent="be3Qgi7hEzFIGp2nB2z0-529">
          <mxGeometry x="60" width="148.8800000000001" height="30" as="geometry">
            <mxRectangle width="148.8800000000001" height="30" as="alternateBounds" />
          </mxGeometry>
        </mxCell>
        <mxCell id="be3Qgi7hEzFIGp2nB2z0-532" value="" style="shape=tableRow;horizontal=0;startSize=0;swimlaneHead=0;swimlaneBody=0;fillColor=none;collapsible=0;dropTarget=0;points=[[0,0.5],[1,0.5]];portConstraint=eastwest;top=0;left=0;right=0;bottom=0;html=1;strokeWidth=3;" vertex="1" parent="be3Qgi7hEzFIGp2nB2z0-483">
          <mxGeometry y="540" width="208.8800000000001" height="30" as="geometry" />
        </mxCell>
        <mxCell id="be3Qgi7hEzFIGp2nB2z0-533" value="" style="shape=partialRectangle;connectable=0;fillColor=none;top=0;left=0;bottom=0;right=0;editable=1;overflow=hidden;html=1;whiteSpace=wrap;strokeWidth=3;" vertex="1" parent="be3Qgi7hEzFIGp2nB2z0-532">
          <mxGeometry width="60" height="30" as="geometry">
            <mxRectangle width="60" height="30" as="alternateBounds" />
          </mxGeometry>
        </mxCell>
        <mxCell id="be3Qgi7hEzFIGp2nB2z0-534" value="individual_earnings" style="shape=partialRectangle;connectable=0;fillColor=none;top=0;left=0;bottom=0;right=0;align=left;spacingLeft=6;overflow=hidden;html=1;whiteSpace=wrap;strokeWidth=3;" vertex="1" parent="be3Qgi7hEzFIGp2nB2z0-532">
          <mxGeometry x="60" width="148.8800000000001" height="30" as="geometry">
            <mxRectangle width="148.8800000000001" height="30" as="alternateBounds" />
          </mxGeometry>
        </mxCell>
        <mxCell id="be3Qgi7hEzFIGp2nB2z0-535" value="" style="shape=tableRow;horizontal=0;startSize=0;swimlaneHead=0;swimlaneBody=0;fillColor=none;collapsible=0;dropTarget=0;points=[[0,0.5],[1,0.5]];portConstraint=eastwest;top=0;left=0;right=0;bottom=0;html=1;strokeWidth=3;" vertex="1" parent="be3Qgi7hEzFIGp2nB2z0-483">
          <mxGeometry y="570" width="208.8800000000001" height="30" as="geometry" />
        </mxCell>
        <mxCell id="be3Qgi7hEzFIGp2nB2z0-536" value="" style="shape=partialRectangle;connectable=0;fillColor=none;top=0;left=0;bottom=0;right=0;editable=1;overflow=hidden;html=1;whiteSpace=wrap;strokeWidth=3;" vertex="1" parent="be3Qgi7hEzFIGp2nB2z0-535">
          <mxGeometry width="60" height="30" as="geometry">
            <mxRectangle width="60" height="30" as="alternateBounds" />
          </mxGeometry>
        </mxCell>
        <mxCell id="be3Qgi7hEzFIGp2nB2z0-537" value="point_of_contact" style="shape=partialRectangle;connectable=0;fillColor=none;top=0;left=0;bottom=0;right=0;align=left;spacingLeft=6;overflow=hidden;html=1;whiteSpace=wrap;strokeWidth=3;" vertex="1" parent="be3Qgi7hEzFIGp2nB2z0-535">
          <mxGeometry x="60" width="148.8800000000001" height="30" as="geometry">
            <mxRectangle width="148.8800000000001" height="30" as="alternateBounds" />
          </mxGeometry>
        </mxCell>
        <mxCell id="be3Qgi7hEzFIGp2nB2z0-538" value="" style="shape=tableRow;horizontal=0;startSize=0;swimlaneHead=0;swimlaneBody=0;fillColor=none;collapsible=0;dropTarget=0;points=[[0,0.5],[1,0.5]];portConstraint=eastwest;top=0;left=0;right=0;bottom=0;html=1;strokeWidth=3;" vertex="1" parent="be3Qgi7hEzFIGp2nB2z0-483">
          <mxGeometry y="600" width="208.8800000000001" height="30" as="geometry" />
        </mxCell>
        <mxCell id="be3Qgi7hEzFIGp2nB2z0-539" value="" style="shape=partialRectangle;connectable=0;fillColor=none;top=0;left=0;bottom=0;right=0;editable=1;overflow=hidden;html=1;whiteSpace=wrap;strokeWidth=3;" vertex="1" parent="be3Qgi7hEzFIGp2nB2z0-538">
          <mxGeometry width="60" height="30" as="geometry">
            <mxRectangle width="60" height="30" as="alternateBounds" />
          </mxGeometry>
        </mxCell>
        <mxCell id="be3Qgi7hEzFIGp2nB2z0-540" value="employment_status" style="shape=partialRectangle;connectable=0;fillColor=none;top=0;left=0;bottom=0;right=0;align=left;spacingLeft=6;overflow=hidden;html=1;whiteSpace=wrap;strokeWidth=3;" vertex="1" parent="be3Qgi7hEzFIGp2nB2z0-538">
          <mxGeometry x="60" width="148.8800000000001" height="30" as="geometry">
            <mxRectangle width="148.8800000000001" height="30" as="alternateBounds" />
          </mxGeometry>
        </mxCell>
        <mxCell id="be3Qgi7hEzFIGp2nB2z0-541" value="" style="shape=tableRow;horizontal=0;startSize=0;swimlaneHead=0;swimlaneBody=0;fillColor=none;collapsible=0;dropTarget=0;points=[[0,0.5],[1,0.5]];portConstraint=eastwest;top=0;left=0;right=0;bottom=0;html=1;strokeWidth=3;" vertex="1" parent="be3Qgi7hEzFIGp2nB2z0-483">
          <mxGeometry y="630" width="208.8800000000001" height="30" as="geometry" />
        </mxCell>
        <mxCell id="be3Qgi7hEzFIGp2nB2z0-542" value="" style="shape=partialRectangle;connectable=0;fillColor=none;top=0;left=0;bottom=0;right=0;editable=1;overflow=hidden;html=1;whiteSpace=wrap;strokeWidth=3;" vertex="1" parent="be3Qgi7hEzFIGp2nB2z0-541">
          <mxGeometry width="60" height="30" as="geometry">
            <mxRectangle width="60" height="30" as="alternateBounds" />
          </mxGeometry>
        </mxCell>
        <mxCell id="be3Qgi7hEzFIGp2nB2z0-543" value="job_title" style="shape=partialRectangle;connectable=0;fillColor=none;top=0;left=0;bottom=0;right=0;align=left;spacingLeft=6;overflow=hidden;html=1;whiteSpace=wrap;strokeWidth=3;" vertex="1" parent="be3Qgi7hEzFIGp2nB2z0-541">
          <mxGeometry x="60" width="148.8800000000001" height="30" as="geometry">
            <mxRectangle width="148.8800000000001" height="30" as="alternateBounds" />
          </mxGeometry>
        </mxCell>
        <mxCell id="be3Qgi7hEzFIGp2nB2z0-544" value="" style="shape=tableRow;horizontal=0;startSize=0;swimlaneHead=0;swimlaneBody=0;fillColor=none;collapsible=0;dropTarget=0;points=[[0,0.5],[1,0.5]];portConstraint=eastwest;top=0;left=0;right=0;bottom=0;html=1;strokeWidth=3;" vertex="1" parent="be3Qgi7hEzFIGp2nB2z0-483">
          <mxGeometry y="660" width="208.8800000000001" height="30" as="geometry" />
        </mxCell>
        <mxCell id="be3Qgi7hEzFIGp2nB2z0-545" value="" style="shape=partialRectangle;connectable=0;fillColor=none;top=0;left=0;bottom=0;right=0;editable=1;overflow=hidden;html=1;whiteSpace=wrap;strokeWidth=3;" vertex="1" parent="be3Qgi7hEzFIGp2nB2z0-544">
          <mxGeometry width="60" height="30" as="geometry">
            <mxRectangle width="60" height="30" as="alternateBounds" />
          </mxGeometry>
        </mxCell>
        <mxCell id="be3Qgi7hEzFIGp2nB2z0-546" value="company" style="shape=partialRectangle;connectable=0;fillColor=none;top=0;left=0;bottom=0;right=0;align=left;spacingLeft=6;overflow=hidden;html=1;whiteSpace=wrap;strokeWidth=3;" vertex="1" parent="be3Qgi7hEzFIGp2nB2z0-544">
          <mxGeometry x="60" width="148.8800000000001" height="30" as="geometry">
            <mxRectangle width="148.8800000000001" height="30" as="alternateBounds" />
          </mxGeometry>
        </mxCell>
        <mxCell id="be3Qgi7hEzFIGp2nB2z0-547" value="" style="shape=tableRow;horizontal=0;startSize=0;swimlaneHead=0;swimlaneBody=0;fillColor=none;collapsible=0;dropTarget=0;points=[[0,0.5],[1,0.5]];portConstraint=eastwest;top=0;left=0;right=0;bottom=0;html=1;strokeWidth=3;" vertex="1" parent="be3Qgi7hEzFIGp2nB2z0-483">
          <mxGeometry y="690" width="208.8800000000001" height="30" as="geometry" />
        </mxCell>
        <mxCell id="be3Qgi7hEzFIGp2nB2z0-548" value="" style="shape=partialRectangle;connectable=0;fillColor=none;top=0;left=0;bottom=0;right=0;editable=1;overflow=hidden;html=1;whiteSpace=wrap;strokeWidth=3;" vertex="1" parent="be3Qgi7hEzFIGp2nB2z0-547">
          <mxGeometry width="60" height="30" as="geometry">
            <mxRectangle width="60" height="30" as="alternateBounds" />
          </mxGeometry>
        </mxCell>
        <mxCell id="be3Qgi7hEzFIGp2nB2z0-549" value="years_worked" style="shape=partialRectangle;connectable=0;fillColor=none;top=0;left=0;bottom=0;right=0;align=left;spacingLeft=6;overflow=hidden;html=1;whiteSpace=wrap;strokeWidth=3;" vertex="1" parent="be3Qgi7hEzFIGp2nB2z0-547">
          <mxGeometry x="60" width="148.8800000000001" height="30" as="geometry">
            <mxRectangle width="148.8800000000001" height="30" as="alternateBounds" />
          </mxGeometry>
        </mxCell>
        <mxCell id="be3Qgi7hEzFIGp2nB2z0-600" value="" style="shape=tableRow;horizontal=0;startSize=0;swimlaneHead=0;swimlaneBody=0;fillColor=none;collapsible=0;dropTarget=0;points=[[0,0.5],[1,0.5]];portConstraint=eastwest;top=0;left=0;right=0;bottom=0;html=1;strokeWidth=3;" vertex="1" parent="be3Qgi7hEzFIGp2nB2z0-483">
          <mxGeometry y="720" width="208.8800000000001" height="30" as="geometry" />
        </mxCell>
        <mxCell id="be3Qgi7hEzFIGp2nB2z0-601" value="" style="shape=partialRectangle;connectable=0;fillColor=none;top=0;left=0;bottom=0;right=0;editable=1;overflow=hidden;html=1;whiteSpace=wrap;strokeWidth=3;" vertex="1" parent="be3Qgi7hEzFIGp2nB2z0-600">
          <mxGeometry width="60" height="30" as="geometry">
            <mxRectangle width="60" height="30" as="alternateBounds" />
          </mxGeometry>
        </mxCell>
        <mxCell id="be3Qgi7hEzFIGp2nB2z0-602" value="date_created" style="shape=partialRectangle;connectable=0;fillColor=none;top=0;left=0;bottom=0;right=0;align=left;spacingLeft=6;overflow=hidden;html=1;whiteSpace=wrap;strokeWidth=3;" vertex="1" parent="be3Qgi7hEzFIGp2nB2z0-600">
          <mxGeometry x="60" width="148.8800000000001" height="30" as="geometry">
            <mxRectangle width="148.8800000000001" height="30" as="alternateBounds" />
          </mxGeometry>
        </mxCell>
        <mxCell id="be3Qgi7hEzFIGp2nB2z0-584" value="GovernmentAssistance" style="shape=table;startSize=30;container=1;collapsible=1;childLayout=tableLayout;fixedRows=1;rowLines=0;fontStyle=1;align=center;resizeLast=1;html=1;whiteSpace=wrap;fillColor=none;strokeWidth=3;" vertex="1" parent="1">
          <mxGeometry x="819" y="298" width="274.75" height="630" as="geometry" />
        </mxCell>
        <mxCell id="be3Qgi7hEzFIGp2nB2z0-585" value="" style="shape=tableRow;horizontal=0;startSize=0;swimlaneHead=0;swimlaneBody=0;fillColor=none;collapsible=0;dropTarget=0;points=[[0,0.5],[1,0.5]];portConstraint=eastwest;top=0;left=0;right=0;bottom=0;html=1;strokeWidth=3;" vertex="1" parent="be3Qgi7hEzFIGp2nB2z0-584">
          <mxGeometry y="30" width="274.75" height="30" as="geometry" />
        </mxCell>
        <mxCell id="be3Qgi7hEzFIGp2nB2z0-586" value="PK" style="shape=partialRectangle;connectable=0;fillColor=none;top=0;left=0;bottom=0;right=0;fontStyle=1;overflow=hidden;html=1;whiteSpace=wrap;strokeWidth=3;perimeterSpacing=0;" vertex="1" parent="be3Qgi7hEzFIGp2nB2z0-585">
          <mxGeometry width="60" height="30" as="geometry">
            <mxRectangle width="60" height="30" as="alternateBounds" />
          </mxGeometry>
        </mxCell>
        <mxCell id="be3Qgi7hEzFIGp2nB2z0-587" value="assistance_id" style="shape=partialRectangle;connectable=0;fillColor=none;top=0;left=0;bottom=0;right=0;align=left;spacingLeft=6;fontStyle=5;overflow=hidden;html=1;whiteSpace=wrap;strokeWidth=3;" vertex="1" parent="be3Qgi7hEzFIGp2nB2z0-585">
          <mxGeometry x="60" width="214.75" height="30" as="geometry">
            <mxRectangle width="214.75" height="30" as="alternateBounds" />
          </mxGeometry>
        </mxCell>
        <mxCell id="be3Qgi7hEzFIGp2nB2z0-588" value="" style="shape=tableRow;horizontal=0;startSize=0;swimlaneHead=0;swimlaneBody=0;fillColor=none;collapsible=0;dropTarget=0;points=[[0,0.5],[1,0.5]];portConstraint=eastwest;top=0;left=0;right=0;bottom=1;html=1;strokeWidth=3;" vertex="1" parent="be3Qgi7hEzFIGp2nB2z0-584">
          <mxGeometry y="60" width="274.75" height="30" as="geometry" />
        </mxCell>
        <mxCell id="be3Qgi7hEzFIGp2nB2z0-589" value="FK1" style="shape=partialRectangle;connectable=0;fillColor=none;top=0;left=0;bottom=0;right=0;fontStyle=1;overflow=hidden;html=1;whiteSpace=wrap;strokeWidth=3;" vertex="1" parent="be3Qgi7hEzFIGp2nB2z0-588">
          <mxGeometry width="60" height="30" as="geometry">
            <mxRectangle width="60" height="30" as="alternateBounds" />
          </mxGeometry>
        </mxCell>
        <mxCell id="be3Qgi7hEzFIGp2nB2z0-590" value="fafsaParentDetails_id" style="shape=partialRectangle;connectable=0;fillColor=none;top=0;left=0;bottom=0;right=0;align=left;spacingLeft=6;fontStyle=5;overflow=hidden;html=1;whiteSpace=wrap;strokeWidth=3;" vertex="1" parent="be3Qgi7hEzFIGp2nB2z0-588">
          <mxGeometry x="60" width="214.75" height="30" as="geometry">
            <mxRectangle width="214.75" height="30" as="alternateBounds" />
          </mxGeometry>
        </mxCell>
        <mxCell id="be3Qgi7hEzFIGp2nB2z0-615" value="" style="shape=tableRow;horizontal=0;startSize=0;swimlaneHead=0;swimlaneBody=0;fillColor=none;collapsible=0;dropTarget=0;points=[[0,0.5],[1,0.5]];portConstraint=eastwest;top=0;left=0;right=0;bottom=0;html=1;strokeWidth=3;" vertex="1" parent="be3Qgi7hEzFIGp2nB2z0-584">
          <mxGeometry y="90" width="274.75" height="30" as="geometry" />
        </mxCell>
        <mxCell id="be3Qgi7hEzFIGp2nB2z0-616" value="" style="shape=partialRectangle;connectable=0;fillColor=none;top=0;left=0;bottom=0;right=0;editable=1;overflow=hidden;html=1;whiteSpace=wrap;strokeWidth=3;" vertex="1" parent="be3Qgi7hEzFIGp2nB2z0-615">
          <mxGeometry width="60" height="30" as="geometry">
            <mxRectangle width="60" height="30" as="alternateBounds" />
          </mxGeometry>
        </mxCell>
        <mxCell id="be3Qgi7hEzFIGp2nB2z0-617" value="earned_income_credit_year1" style="shape=partialRectangle;connectable=0;fillColor=none;top=0;left=0;bottom=0;right=0;align=left;spacingLeft=6;overflow=hidden;html=1;whiteSpace=wrap;strokeWidth=3;" vertex="1" parent="be3Qgi7hEzFIGp2nB2z0-615">
          <mxGeometry x="60" width="214.75" height="30" as="geometry">
            <mxRectangle width="214.75" height="30" as="alternateBounds" />
          </mxGeometry>
        </mxCell>
        <mxCell id="be3Qgi7hEzFIGp2nB2z0-618" value="" style="shape=tableRow;horizontal=0;startSize=0;swimlaneHead=0;swimlaneBody=0;fillColor=none;collapsible=0;dropTarget=0;points=[[0,0.5],[1,0.5]];portConstraint=eastwest;top=0;left=0;right=0;bottom=0;html=1;strokeWidth=3;" vertex="1" parent="be3Qgi7hEzFIGp2nB2z0-584">
          <mxGeometry y="120" width="274.75" height="30" as="geometry" />
        </mxCell>
        <mxCell id="be3Qgi7hEzFIGp2nB2z0-619" value="" style="shape=partialRectangle;connectable=0;fillColor=none;top=0;left=0;bottom=0;right=0;editable=1;overflow=hidden;html=1;whiteSpace=wrap;strokeWidth=3;" vertex="1" parent="be3Qgi7hEzFIGp2nB2z0-618">
          <mxGeometry width="60" height="30" as="geometry">
            <mxRectangle width="60" height="30" as="alternateBounds" />
          </mxGeometry>
        </mxCell>
        <mxCell id="be3Qgi7hEzFIGp2nB2z0-620" value="earned_income_credit_year2" style="shape=partialRectangle;connectable=0;fillColor=none;top=0;left=0;bottom=0;right=0;align=left;spacingLeft=6;overflow=hidden;html=1;whiteSpace=wrap;strokeWidth=3;" vertex="1" parent="be3Qgi7hEzFIGp2nB2z0-618">
          <mxGeometry x="60" width="214.75" height="30" as="geometry">
            <mxRectangle width="214.75" height="30" as="alternateBounds" />
          </mxGeometry>
        </mxCell>
        <mxCell id="be3Qgi7hEzFIGp2nB2z0-594" value="" style="shape=tableRow;horizontal=0;startSize=0;swimlaneHead=0;swimlaneBody=0;fillColor=none;collapsible=0;dropTarget=0;points=[[0,0.5],[1,0.5]];portConstraint=eastwest;top=0;left=0;right=0;bottom=0;html=1;strokeWidth=3;" vertex="1" parent="be3Qgi7hEzFIGp2nB2z0-584">
          <mxGeometry y="150" width="274.75" height="30" as="geometry" />
        </mxCell>
        <mxCell id="be3Qgi7hEzFIGp2nB2z0-595" value="" style="shape=partialRectangle;connectable=0;fillColor=none;top=0;left=0;bottom=0;right=0;editable=1;overflow=hidden;html=1;whiteSpace=wrap;strokeWidth=3;" vertex="1" parent="be3Qgi7hEzFIGp2nB2z0-594">
          <mxGeometry width="60" height="30" as="geometry">
            <mxRectangle width="60" height="30" as="alternateBounds" />
          </mxGeometry>
        </mxCell>
        <mxCell id="be3Qgi7hEzFIGp2nB2z0-596" value="federal_housing_assistance_year1" style="shape=partialRectangle;connectable=0;fillColor=none;top=0;left=0;bottom=0;right=0;align=left;spacingLeft=6;overflow=hidden;html=1;whiteSpace=wrap;strokeWidth=3;" vertex="1" parent="be3Qgi7hEzFIGp2nB2z0-594">
          <mxGeometry x="60" width="214.75" height="30" as="geometry">
            <mxRectangle width="214.75" height="30" as="alternateBounds" />
          </mxGeometry>
        </mxCell>
        <mxCell id="be3Qgi7hEzFIGp2nB2z0-612" value="" style="shape=tableRow;horizontal=0;startSize=0;swimlaneHead=0;swimlaneBody=0;fillColor=none;collapsible=0;dropTarget=0;points=[[0,0.5],[1,0.5]];portConstraint=eastwest;top=0;left=0;right=0;bottom=0;html=1;strokeWidth=3;" vertex="1" parent="be3Qgi7hEzFIGp2nB2z0-584">
          <mxGeometry y="180" width="274.75" height="30" as="geometry" />
        </mxCell>
        <mxCell id="be3Qgi7hEzFIGp2nB2z0-613" value="" style="shape=partialRectangle;connectable=0;fillColor=none;top=0;left=0;bottom=0;right=0;editable=1;overflow=hidden;html=1;whiteSpace=wrap;strokeWidth=3;" vertex="1" parent="be3Qgi7hEzFIGp2nB2z0-612">
          <mxGeometry width="60" height="30" as="geometry">
            <mxRectangle width="60" height="30" as="alternateBounds" />
          </mxGeometry>
        </mxCell>
        <mxCell id="be3Qgi7hEzFIGp2nB2z0-614" value="federal_housing_assistance_year2" style="shape=partialRectangle;connectable=0;fillColor=none;top=0;left=0;bottom=0;right=0;align=left;spacingLeft=6;overflow=hidden;html=1;whiteSpace=wrap;strokeWidth=3;" vertex="1" parent="be3Qgi7hEzFIGp2nB2z0-612">
          <mxGeometry x="60" width="214.75" height="30" as="geometry">
            <mxRectangle width="214.75" height="30" as="alternateBounds" />
          </mxGeometry>
        </mxCell>
        <mxCell id="be3Qgi7hEzFIGp2nB2z0-591" value="" style="shape=tableRow;horizontal=0;startSize=0;swimlaneHead=0;swimlaneBody=0;fillColor=none;collapsible=0;dropTarget=0;points=[[0,0.5],[1,0.5]];portConstraint=eastwest;top=0;left=0;right=0;bottom=0;html=1;strokeWidth=3;" vertex="1" parent="be3Qgi7hEzFIGp2nB2z0-584">
          <mxGeometry y="210" width="274.75" height="30" as="geometry" />
        </mxCell>
        <mxCell id="be3Qgi7hEzFIGp2nB2z0-592" value="" style="shape=partialRectangle;connectable=0;fillColor=none;top=0;left=0;bottom=0;right=0;editable=1;overflow=hidden;html=1;whiteSpace=wrap;strokeWidth=3;" vertex="1" parent="be3Qgi7hEzFIGp2nB2z0-591">
          <mxGeometry width="60" height="30" as="geometry">
            <mxRectangle width="60" height="30" as="alternateBounds" />
          </mxGeometry>
        </mxCell>
        <mxCell id="be3Qgi7hEzFIGp2nB2z0-593" value="free_lunch_year1" style="shape=partialRectangle;connectable=0;fillColor=none;top=0;left=0;bottom=0;right=0;align=left;spacingLeft=6;overflow=hidden;html=1;whiteSpace=wrap;strokeWidth=3;" vertex="1" parent="be3Qgi7hEzFIGp2nB2z0-591">
          <mxGeometry x="60" width="214.75" height="30" as="geometry">
            <mxRectangle width="214.75" height="30" as="alternateBounds" />
          </mxGeometry>
        </mxCell>
        <mxCell id="be3Qgi7hEzFIGp2nB2z0-609" value="" style="shape=tableRow;horizontal=0;startSize=0;swimlaneHead=0;swimlaneBody=0;fillColor=none;collapsible=0;dropTarget=0;points=[[0,0.5],[1,0.5]];portConstraint=eastwest;top=0;left=0;right=0;bottom=0;html=1;strokeWidth=3;" vertex="1" parent="be3Qgi7hEzFIGp2nB2z0-584">
          <mxGeometry y="240" width="274.75" height="30" as="geometry" />
        </mxCell>
        <mxCell id="be3Qgi7hEzFIGp2nB2z0-610" value="" style="shape=partialRectangle;connectable=0;fillColor=none;top=0;left=0;bottom=0;right=0;editable=1;overflow=hidden;html=1;whiteSpace=wrap;strokeWidth=3;" vertex="1" parent="be3Qgi7hEzFIGp2nB2z0-609">
          <mxGeometry width="60" height="30" as="geometry">
            <mxRectangle width="60" height="30" as="alternateBounds" />
          </mxGeometry>
        </mxCell>
        <mxCell id="be3Qgi7hEzFIGp2nB2z0-611" value="free_lunch_year1" style="shape=partialRectangle;connectable=0;fillColor=none;top=0;left=0;bottom=0;right=0;align=left;spacingLeft=6;overflow=hidden;html=1;whiteSpace=wrap;strokeWidth=3;" vertex="1" parent="be3Qgi7hEzFIGp2nB2z0-609">
          <mxGeometry x="60" width="214.75" height="30" as="geometry">
            <mxRectangle width="214.75" height="30" as="alternateBounds" />
          </mxGeometry>
        </mxCell>
        <mxCell id="be3Qgi7hEzFIGp2nB2z0-597" value="" style="shape=tableRow;horizontal=0;startSize=0;swimlaneHead=0;swimlaneBody=0;fillColor=none;collapsible=0;dropTarget=0;points=[[0,0.5],[1,0.5]];portConstraint=eastwest;top=0;left=0;right=0;bottom=0;html=1;strokeWidth=3;" vertex="1" parent="be3Qgi7hEzFIGp2nB2z0-584">
          <mxGeometry y="270" width="274.75" height="30" as="geometry" />
        </mxCell>
        <mxCell id="be3Qgi7hEzFIGp2nB2z0-598" value="" style="shape=partialRectangle;connectable=0;fillColor=none;top=0;left=0;bottom=0;right=0;editable=1;overflow=hidden;html=1;whiteSpace=wrap;strokeWidth=3;" vertex="1" parent="be3Qgi7hEzFIGp2nB2z0-597">
          <mxGeometry width="60" height="30" as="geometry">
            <mxRectangle width="60" height="30" as="alternateBounds" />
          </mxGeometry>
        </mxCell>
        <mxCell id="be3Qgi7hEzFIGp2nB2z0-599" value="medicaid_year1" style="shape=partialRectangle;connectable=0;fillColor=none;top=0;left=0;bottom=0;right=0;align=left;spacingLeft=6;overflow=hidden;html=1;whiteSpace=wrap;strokeWidth=3;" vertex="1" parent="be3Qgi7hEzFIGp2nB2z0-597">
          <mxGeometry x="60" width="214.75" height="30" as="geometry">
            <mxRectangle width="214.75" height="30" as="alternateBounds" />
          </mxGeometry>
        </mxCell>
        <mxCell id="be3Qgi7hEzFIGp2nB2z0-606" value="" style="shape=tableRow;horizontal=0;startSize=0;swimlaneHead=0;swimlaneBody=0;fillColor=none;collapsible=0;dropTarget=0;points=[[0,0.5],[1,0.5]];portConstraint=eastwest;top=0;left=0;right=0;bottom=0;html=1;strokeWidth=3;" vertex="1" parent="be3Qgi7hEzFIGp2nB2z0-584">
          <mxGeometry y="300" width="274.75" height="30" as="geometry" />
        </mxCell>
        <mxCell id="be3Qgi7hEzFIGp2nB2z0-607" value="" style="shape=partialRectangle;connectable=0;fillColor=none;top=0;left=0;bottom=0;right=0;editable=1;overflow=hidden;html=1;whiteSpace=wrap;strokeWidth=3;" vertex="1" parent="be3Qgi7hEzFIGp2nB2z0-606">
          <mxGeometry width="60" height="30" as="geometry">
            <mxRectangle width="60" height="30" as="alternateBounds" />
          </mxGeometry>
        </mxCell>
        <mxCell id="be3Qgi7hEzFIGp2nB2z0-608" value="medicaid_year2" style="shape=partialRectangle;connectable=0;fillColor=none;top=0;left=0;bottom=0;right=0;align=left;spacingLeft=6;overflow=hidden;html=1;whiteSpace=wrap;strokeWidth=3;" vertex="1" parent="be3Qgi7hEzFIGp2nB2z0-606">
          <mxGeometry x="60" width="214.75" height="30" as="geometry">
            <mxRectangle width="214.75" height="30" as="alternateBounds" />
          </mxGeometry>
        </mxCell>
        <mxCell id="be3Qgi7hEzFIGp2nB2z0-621" value="" style="shape=tableRow;horizontal=0;startSize=0;swimlaneHead=0;swimlaneBody=0;fillColor=none;collapsible=0;dropTarget=0;points=[[0,0.5],[1,0.5]];portConstraint=eastwest;top=0;left=0;right=0;bottom=0;html=1;strokeWidth=3;" vertex="1" parent="be3Qgi7hEzFIGp2nB2z0-584">
          <mxGeometry y="330" width="274.75" height="30" as="geometry" />
        </mxCell>
        <mxCell id="be3Qgi7hEzFIGp2nB2z0-622" value="" style="shape=partialRectangle;connectable=0;fillColor=none;top=0;left=0;bottom=0;right=0;editable=1;overflow=hidden;html=1;whiteSpace=wrap;strokeWidth=3;" vertex="1" parent="be3Qgi7hEzFIGp2nB2z0-621">
          <mxGeometry width="60" height="30" as="geometry">
            <mxRectangle width="60" height="30" as="alternateBounds" />
          </mxGeometry>
        </mxCell>
        <mxCell id="be3Qgi7hEzFIGp2nB2z0-623" value="qualified_health_plan_year1" style="shape=partialRectangle;connectable=0;fillColor=none;top=0;left=0;bottom=0;right=0;align=left;spacingLeft=6;overflow=hidden;html=1;whiteSpace=wrap;strokeWidth=3;" vertex="1" parent="be3Qgi7hEzFIGp2nB2z0-621">
          <mxGeometry x="60" width="214.75" height="30" as="geometry">
            <mxRectangle width="214.75" height="30" as="alternateBounds" />
          </mxGeometry>
        </mxCell>
        <mxCell id="be3Qgi7hEzFIGp2nB2z0-636" value="" style="shape=tableRow;horizontal=0;startSize=0;swimlaneHead=0;swimlaneBody=0;fillColor=none;collapsible=0;dropTarget=0;points=[[0,0.5],[1,0.5]];portConstraint=eastwest;top=0;left=0;right=0;bottom=0;html=1;strokeWidth=3;" vertex="1" parent="be3Qgi7hEzFIGp2nB2z0-584">
          <mxGeometry y="360" width="274.75" height="30" as="geometry" />
        </mxCell>
        <mxCell id="be3Qgi7hEzFIGp2nB2z0-637" value="" style="shape=partialRectangle;connectable=0;fillColor=none;top=0;left=0;bottom=0;right=0;editable=1;overflow=hidden;html=1;whiteSpace=wrap;strokeWidth=3;" vertex="1" parent="be3Qgi7hEzFIGp2nB2z0-636">
          <mxGeometry width="60" height="30" as="geometry">
            <mxRectangle width="60" height="30" as="alternateBounds" />
          </mxGeometry>
        </mxCell>
        <mxCell id="be3Qgi7hEzFIGp2nB2z0-638" value="qualified_health_plan_year2" style="shape=partialRectangle;connectable=0;fillColor=none;top=0;left=0;bottom=0;right=0;align=left;spacingLeft=6;overflow=hidden;html=1;whiteSpace=wrap;strokeWidth=3;" vertex="1" parent="be3Qgi7hEzFIGp2nB2z0-636">
          <mxGeometry x="60" width="214.75" height="30" as="geometry">
            <mxRectangle width="214.75" height="30" as="alternateBounds" />
          </mxGeometry>
        </mxCell>
        <mxCell id="be3Qgi7hEzFIGp2nB2z0-624" value="" style="shape=tableRow;horizontal=0;startSize=0;swimlaneHead=0;swimlaneBody=0;fillColor=none;collapsible=0;dropTarget=0;points=[[0,0.5],[1,0.5]];portConstraint=eastwest;top=0;left=0;right=0;bottom=0;html=1;strokeWidth=3;" vertex="1" parent="be3Qgi7hEzFIGp2nB2z0-584">
          <mxGeometry y="390" width="274.75" height="30" as="geometry" />
        </mxCell>
        <mxCell id="be3Qgi7hEzFIGp2nB2z0-625" value="" style="shape=partialRectangle;connectable=0;fillColor=none;top=0;left=0;bottom=0;right=0;editable=1;overflow=hidden;html=1;whiteSpace=wrap;strokeWidth=3;" vertex="1" parent="be3Qgi7hEzFIGp2nB2z0-624">
          <mxGeometry width="60" height="30" as="geometry">
            <mxRectangle width="60" height="30" as="alternateBounds" />
          </mxGeometry>
        </mxCell>
        <mxCell id="be3Qgi7hEzFIGp2nB2z0-626" value="food_stamps_year1" style="shape=partialRectangle;connectable=0;fillColor=none;top=0;left=0;bottom=0;right=0;align=left;spacingLeft=6;overflow=hidden;html=1;whiteSpace=wrap;strokeWidth=3;" vertex="1" parent="be3Qgi7hEzFIGp2nB2z0-624">
          <mxGeometry x="60" width="214.75" height="30" as="geometry">
            <mxRectangle width="214.75" height="30" as="alternateBounds" />
          </mxGeometry>
        </mxCell>
        <mxCell id="be3Qgi7hEzFIGp2nB2z0-633" value="" style="shape=tableRow;horizontal=0;startSize=0;swimlaneHead=0;swimlaneBody=0;fillColor=none;collapsible=0;dropTarget=0;points=[[0,0.5],[1,0.5]];portConstraint=eastwest;top=0;left=0;right=0;bottom=0;html=1;strokeWidth=3;" vertex="1" parent="be3Qgi7hEzFIGp2nB2z0-584">
          <mxGeometry y="420" width="274.75" height="30" as="geometry" />
        </mxCell>
        <mxCell id="be3Qgi7hEzFIGp2nB2z0-634" value="" style="shape=partialRectangle;connectable=0;fillColor=none;top=0;left=0;bottom=0;right=0;editable=1;overflow=hidden;html=1;whiteSpace=wrap;strokeWidth=3;" vertex="1" parent="be3Qgi7hEzFIGp2nB2z0-633">
          <mxGeometry width="60" height="30" as="geometry">
            <mxRectangle width="60" height="30" as="alternateBounds" />
          </mxGeometry>
        </mxCell>
        <mxCell id="be3Qgi7hEzFIGp2nB2z0-635" value="food_stamps_year2" style="shape=partialRectangle;connectable=0;fillColor=none;top=0;left=0;bottom=0;right=0;align=left;spacingLeft=6;overflow=hidden;html=1;whiteSpace=wrap;strokeWidth=3;" vertex="1" parent="be3Qgi7hEzFIGp2nB2z0-633">
          <mxGeometry x="60" width="214.75" height="30" as="geometry">
            <mxRectangle width="214.75" height="30" as="alternateBounds" />
          </mxGeometry>
        </mxCell>
        <mxCell id="be3Qgi7hEzFIGp2nB2z0-627" value="" style="shape=tableRow;horizontal=0;startSize=0;swimlaneHead=0;swimlaneBody=0;fillColor=none;collapsible=0;dropTarget=0;points=[[0,0.5],[1,0.5]];portConstraint=eastwest;top=0;left=0;right=0;bottom=0;html=1;strokeWidth=3;" vertex="1" parent="be3Qgi7hEzFIGp2nB2z0-584">
          <mxGeometry y="450" width="274.75" height="30" as="geometry" />
        </mxCell>
        <mxCell id="be3Qgi7hEzFIGp2nB2z0-628" value="" style="shape=partialRectangle;connectable=0;fillColor=none;top=0;left=0;bottom=0;right=0;editable=1;overflow=hidden;html=1;whiteSpace=wrap;strokeWidth=3;" vertex="1" parent="be3Qgi7hEzFIGp2nB2z0-627">
          <mxGeometry width="60" height="30" as="geometry">
            <mxRectangle width="60" height="30" as="alternateBounds" />
          </mxGeometry>
        </mxCell>
        <mxCell id="be3Qgi7hEzFIGp2nB2z0-629" value="ssi_year1" style="shape=partialRectangle;connectable=0;fillColor=none;top=0;left=0;bottom=0;right=0;align=left;spacingLeft=6;overflow=hidden;html=1;whiteSpace=wrap;strokeWidth=3;" vertex="1" parent="be3Qgi7hEzFIGp2nB2z0-627">
          <mxGeometry x="60" width="214.75" height="30" as="geometry">
            <mxRectangle width="214.75" height="30" as="alternateBounds" />
          </mxGeometry>
        </mxCell>
        <mxCell id="be3Qgi7hEzFIGp2nB2z0-630" value="" style="shape=tableRow;horizontal=0;startSize=0;swimlaneHead=0;swimlaneBody=0;fillColor=none;collapsible=0;dropTarget=0;points=[[0,0.5],[1,0.5]];portConstraint=eastwest;top=0;left=0;right=0;bottom=0;html=1;strokeWidth=3;" vertex="1" parent="be3Qgi7hEzFIGp2nB2z0-584">
          <mxGeometry y="480" width="274.75" height="30" as="geometry" />
        </mxCell>
        <mxCell id="be3Qgi7hEzFIGp2nB2z0-631" value="" style="shape=partialRectangle;connectable=0;fillColor=none;top=0;left=0;bottom=0;right=0;editable=1;overflow=hidden;html=1;whiteSpace=wrap;strokeWidth=3;" vertex="1" parent="be3Qgi7hEzFIGp2nB2z0-630">
          <mxGeometry width="60" height="30" as="geometry">
            <mxRectangle width="60" height="30" as="alternateBounds" />
          </mxGeometry>
        </mxCell>
        <mxCell id="be3Qgi7hEzFIGp2nB2z0-632" value="ssi_year2" style="shape=partialRectangle;connectable=0;fillColor=none;top=0;left=0;bottom=0;right=0;align=left;spacingLeft=6;overflow=hidden;html=1;whiteSpace=wrap;strokeWidth=3;" vertex="1" parent="be3Qgi7hEzFIGp2nB2z0-630">
          <mxGeometry x="60" width="214.75" height="30" as="geometry">
            <mxRectangle width="214.75" height="30" as="alternateBounds" />
          </mxGeometry>
        </mxCell>
        <mxCell id="be3Qgi7hEzFIGp2nB2z0-639" value="" style="shape=tableRow;horizontal=0;startSize=0;swimlaneHead=0;swimlaneBody=0;fillColor=none;collapsible=0;dropTarget=0;points=[[0,0.5],[1,0.5]];portConstraint=eastwest;top=0;left=0;right=0;bottom=0;html=1;strokeWidth=3;" vertex="1" parent="be3Qgi7hEzFIGp2nB2z0-584">
          <mxGeometry y="510" width="274.75" height="30" as="geometry" />
        </mxCell>
        <mxCell id="be3Qgi7hEzFIGp2nB2z0-640" value="" style="shape=partialRectangle;connectable=0;fillColor=none;top=0;left=0;bottom=0;right=0;editable=1;overflow=hidden;html=1;whiteSpace=wrap;strokeWidth=3;" vertex="1" parent="be3Qgi7hEzFIGp2nB2z0-639">
          <mxGeometry width="60" height="30" as="geometry">
            <mxRectangle width="60" height="30" as="alternateBounds" />
          </mxGeometry>
        </mxCell>
        <mxCell id="be3Qgi7hEzFIGp2nB2z0-641" value="tanf_year1" style="shape=partialRectangle;connectable=0;fillColor=none;top=0;left=0;bottom=0;right=0;align=left;spacingLeft=6;overflow=hidden;html=1;whiteSpace=wrap;strokeWidth=3;" vertex="1" parent="be3Qgi7hEzFIGp2nB2z0-639">
          <mxGeometry x="60" width="214.75" height="30" as="geometry">
            <mxRectangle width="214.75" height="30" as="alternateBounds" />
          </mxGeometry>
        </mxCell>
        <mxCell id="be3Qgi7hEzFIGp2nB2z0-642" value="" style="shape=tableRow;horizontal=0;startSize=0;swimlaneHead=0;swimlaneBody=0;fillColor=none;collapsible=0;dropTarget=0;points=[[0,0.5],[1,0.5]];portConstraint=eastwest;top=0;left=0;right=0;bottom=0;html=1;strokeWidth=3;" vertex="1" parent="be3Qgi7hEzFIGp2nB2z0-584">
          <mxGeometry y="540" width="274.75" height="30" as="geometry" />
        </mxCell>
        <mxCell id="be3Qgi7hEzFIGp2nB2z0-643" value="" style="shape=partialRectangle;connectable=0;fillColor=none;top=0;left=0;bottom=0;right=0;editable=1;overflow=hidden;html=1;whiteSpace=wrap;strokeWidth=3;" vertex="1" parent="be3Qgi7hEzFIGp2nB2z0-642">
          <mxGeometry width="60" height="30" as="geometry">
            <mxRectangle width="60" height="30" as="alternateBounds" />
          </mxGeometry>
        </mxCell>
        <mxCell id="be3Qgi7hEzFIGp2nB2z0-644" value="tanf_year2" style="shape=partialRectangle;connectable=0;fillColor=none;top=0;left=0;bottom=0;right=0;align=left;spacingLeft=6;overflow=hidden;html=1;whiteSpace=wrap;strokeWidth=3;" vertex="1" parent="be3Qgi7hEzFIGp2nB2z0-642">
          <mxGeometry x="60" width="214.75" height="30" as="geometry">
            <mxRectangle width="214.75" height="30" as="alternateBounds" />
          </mxGeometry>
        </mxCell>
        <mxCell id="be3Qgi7hEzFIGp2nB2z0-645" value="" style="shape=tableRow;horizontal=0;startSize=0;swimlaneHead=0;swimlaneBody=0;fillColor=none;collapsible=0;dropTarget=0;points=[[0,0.5],[1,0.5]];portConstraint=eastwest;top=0;left=0;right=0;bottom=0;html=1;strokeWidth=3;" vertex="1" parent="be3Qgi7hEzFIGp2nB2z0-584">
          <mxGeometry y="570" width="274.75" height="30" as="geometry" />
        </mxCell>
        <mxCell id="be3Qgi7hEzFIGp2nB2z0-646" value="" style="shape=partialRectangle;connectable=0;fillColor=none;top=0;left=0;bottom=0;right=0;editable=1;overflow=hidden;html=1;whiteSpace=wrap;strokeWidth=3;" vertex="1" parent="be3Qgi7hEzFIGp2nB2z0-645">
          <mxGeometry width="60" height="30" as="geometry">
            <mxRectangle width="60" height="30" as="alternateBounds" />
          </mxGeometry>
        </mxCell>
        <mxCell id="be3Qgi7hEzFIGp2nB2z0-647" value="wic_year1" style="shape=partialRectangle;connectable=0;fillColor=none;top=0;left=0;bottom=0;right=0;align=left;spacingLeft=6;overflow=hidden;html=1;whiteSpace=wrap;strokeWidth=3;" vertex="1" parent="be3Qgi7hEzFIGp2nB2z0-645">
          <mxGeometry x="60" width="214.75" height="30" as="geometry">
            <mxRectangle width="214.75" height="30" as="alternateBounds" />
          </mxGeometry>
        </mxCell>
        <mxCell id="be3Qgi7hEzFIGp2nB2z0-648" value="" style="shape=tableRow;horizontal=0;startSize=0;swimlaneHead=0;swimlaneBody=0;fillColor=none;collapsible=0;dropTarget=0;points=[[0,0.5],[1,0.5]];portConstraint=eastwest;top=0;left=0;right=0;bottom=0;html=1;strokeWidth=3;" vertex="1" parent="be3Qgi7hEzFIGp2nB2z0-584">
          <mxGeometry y="600" width="274.75" height="30" as="geometry" />
        </mxCell>
        <mxCell id="be3Qgi7hEzFIGp2nB2z0-649" value="" style="shape=partialRectangle;connectable=0;fillColor=none;top=0;left=0;bottom=0;right=0;editable=1;overflow=hidden;html=1;whiteSpace=wrap;strokeWidth=3;" vertex="1" parent="be3Qgi7hEzFIGp2nB2z0-648">
          <mxGeometry width="60" height="30" as="geometry">
            <mxRectangle width="60" height="30" as="alternateBounds" />
          </mxGeometry>
        </mxCell>
        <mxCell id="be3Qgi7hEzFIGp2nB2z0-650" value="wic_year2" style="shape=partialRectangle;connectable=0;fillColor=none;top=0;left=0;bottom=0;right=0;align=left;spacingLeft=6;overflow=hidden;html=1;whiteSpace=wrap;strokeWidth=3;" vertex="1" parent="be3Qgi7hEzFIGp2nB2z0-648">
          <mxGeometry x="60" width="214.75" height="30" as="geometry">
            <mxRectangle width="214.75" height="30" as="alternateBounds" />
          </mxGeometry>
        </mxCell>
        <mxCell id="be3Qgi7hEzFIGp2nB2z0-654" value="User" style="shape=table;startSize=30;container=1;collapsible=1;childLayout=tableLayout;fixedRows=1;rowLines=0;fontStyle=1;align=center;resizeLast=1;html=1;whiteSpace=wrap;fillColor=none;strokeWidth=3;" vertex="1" parent="1">
          <mxGeometry x="331.74" y="80" width="180" height="180" as="geometry" />
        </mxCell>
        <mxCell id="be3Qgi7hEzFIGp2nB2z0-655" value="" style="shape=tableRow;horizontal=0;startSize=0;swimlaneHead=0;swimlaneBody=0;fillColor=none;collapsible=0;dropTarget=0;points=[[0,0.5],[1,0.5]];portConstraint=eastwest;top=0;left=0;right=0;bottom=0;html=1;strokeWidth=3;" vertex="1" parent="be3Qgi7hEzFIGp2nB2z0-654">
          <mxGeometry y="30" width="180" height="30" as="geometry" />
        </mxCell>
        <mxCell id="be3Qgi7hEzFIGp2nB2z0-656" value="PK" style="shape=partialRectangle;connectable=0;fillColor=none;top=0;left=0;bottom=0;right=0;fontStyle=1;overflow=hidden;html=1;whiteSpace=wrap;strokeWidth=3;perimeterSpacing=0;" vertex="1" parent="be3Qgi7hEzFIGp2nB2z0-655">
          <mxGeometry width="60" height="30" as="geometry">
            <mxRectangle width="60" height="30" as="alternateBounds" />
          </mxGeometry>
        </mxCell>
        <mxCell id="be3Qgi7hEzFIGp2nB2z0-657" value="user_id" style="shape=partialRectangle;connectable=0;fillColor=none;top=0;left=0;bottom=0;right=0;align=left;spacingLeft=6;fontStyle=5;overflow=hidden;html=1;whiteSpace=wrap;strokeWidth=3;" vertex="1" parent="be3Qgi7hEzFIGp2nB2z0-655">
          <mxGeometry x="60" width="120" height="30" as="geometry">
            <mxRectangle width="120" height="30" as="alternateBounds" />
          </mxGeometry>
        </mxCell>
        <mxCell id="be3Qgi7hEzFIGp2nB2z0-658" value="" style="shape=tableRow;horizontal=0;startSize=0;swimlaneHead=0;swimlaneBody=0;fillColor=none;collapsible=0;dropTarget=0;points=[[0,0.5],[1,0.5]];portConstraint=eastwest;top=0;left=0;right=0;bottom=1;html=1;strokeWidth=3;" vertex="1" parent="be3Qgi7hEzFIGp2nB2z0-654">
          <mxGeometry y="60" width="180" height="30" as="geometry" />
        </mxCell>
        <mxCell id="be3Qgi7hEzFIGp2nB2z0-659" value="FK1" style="shape=partialRectangle;connectable=0;fillColor=none;top=0;left=0;bottom=0;right=0;fontStyle=1;overflow=hidden;html=1;whiteSpace=wrap;strokeWidth=3;" vertex="1" parent="be3Qgi7hEzFIGp2nB2z0-658">
          <mxGeometry width="60" height="30" as="geometry">
            <mxRectangle width="60" height="30" as="alternateBounds" />
          </mxGeometry>
        </mxCell>
        <mxCell id="be3Qgi7hEzFIGp2nB2z0-660" value="fafsa_id" style="shape=partialRectangle;connectable=0;fillColor=none;top=0;left=0;bottom=0;right=0;align=left;spacingLeft=6;fontStyle=5;overflow=hidden;html=1;whiteSpace=wrap;strokeWidth=3;" vertex="1" parent="be3Qgi7hEzFIGp2nB2z0-658">
          <mxGeometry x="60" width="120" height="30" as="geometry">
            <mxRectangle width="120" height="30" as="alternateBounds" />
          </mxGeometry>
        </mxCell>
        <mxCell id="be3Qgi7hEzFIGp2nB2z0-661" value="" style="shape=tableRow;horizontal=0;startSize=0;swimlaneHead=0;swimlaneBody=0;fillColor=none;collapsible=0;dropTarget=0;points=[[0,0.5],[1,0.5]];portConstraint=eastwest;top=0;left=0;right=0;bottom=0;html=1;strokeWidth=3;" vertex="1" parent="be3Qgi7hEzFIGp2nB2z0-654">
          <mxGeometry y="90" width="180" height="30" as="geometry" />
        </mxCell>
        <mxCell id="be3Qgi7hEzFIGp2nB2z0-662" value="" style="shape=partialRectangle;connectable=0;fillColor=none;top=0;left=0;bottom=0;right=0;editable=1;overflow=hidden;html=1;whiteSpace=wrap;strokeWidth=3;" vertex="1" parent="be3Qgi7hEzFIGp2nB2z0-661">
          <mxGeometry width="60" height="30" as="geometry">
            <mxRectangle width="60" height="30" as="alternateBounds" />
          </mxGeometry>
        </mxCell>
        <mxCell id="be3Qgi7hEzFIGp2nB2z0-663" value="first_name" style="shape=partialRectangle;connectable=0;fillColor=none;top=0;left=0;bottom=0;right=0;align=left;spacingLeft=6;overflow=hidden;html=1;whiteSpace=wrap;strokeWidth=3;" vertex="1" parent="be3Qgi7hEzFIGp2nB2z0-661">
          <mxGeometry x="60" width="120" height="30" as="geometry">
            <mxRectangle width="120" height="30" as="alternateBounds" />
          </mxGeometry>
        </mxCell>
        <mxCell id="be3Qgi7hEzFIGp2nB2z0-664" value="" style="shape=tableRow;horizontal=0;startSize=0;swimlaneHead=0;swimlaneBody=0;fillColor=none;collapsible=0;dropTarget=0;points=[[0,0.5],[1,0.5]];portConstraint=eastwest;top=0;left=0;right=0;bottom=0;html=1;strokeWidth=3;" vertex="1" parent="be3Qgi7hEzFIGp2nB2z0-654">
          <mxGeometry y="120" width="180" height="30" as="geometry" />
        </mxCell>
        <mxCell id="be3Qgi7hEzFIGp2nB2z0-665" value="" style="shape=partialRectangle;connectable=0;fillColor=none;top=0;left=0;bottom=0;right=0;editable=1;overflow=hidden;html=1;whiteSpace=wrap;strokeWidth=3;" vertex="1" parent="be3Qgi7hEzFIGp2nB2z0-664">
          <mxGeometry width="60" height="30" as="geometry">
            <mxRectangle width="60" height="30" as="alternateBounds" />
          </mxGeometry>
        </mxCell>
        <mxCell id="be3Qgi7hEzFIGp2nB2z0-666" value="last_name" style="shape=partialRectangle;connectable=0;fillColor=none;top=0;left=0;bottom=0;right=0;align=left;spacingLeft=6;overflow=hidden;html=1;whiteSpace=wrap;strokeWidth=3;" vertex="1" parent="be3Qgi7hEzFIGp2nB2z0-664">
          <mxGeometry x="60" width="120" height="30" as="geometry">
            <mxRectangle width="120" height="30" as="alternateBounds" />
          </mxGeometry>
        </mxCell>
        <mxCell id="be3Qgi7hEzFIGp2nB2z0-667" value="" style="shape=tableRow;horizontal=0;startSize=0;swimlaneHead=0;swimlaneBody=0;fillColor=none;collapsible=0;dropTarget=0;points=[[0,0.5],[1,0.5]];portConstraint=eastwest;top=0;left=0;right=0;bottom=0;html=1;strokeWidth=3;" vertex="1" parent="be3Qgi7hEzFIGp2nB2z0-654">
          <mxGeometry y="150" width="180" height="30" as="geometry" />
        </mxCell>
        <mxCell id="be3Qgi7hEzFIGp2nB2z0-668" value="" style="shape=partialRectangle;connectable=0;fillColor=none;top=0;left=0;bottom=0;right=0;editable=1;overflow=hidden;html=1;whiteSpace=wrap;strokeWidth=3;" vertex="1" parent="be3Qgi7hEzFIGp2nB2z0-667">
          <mxGeometry width="60" height="30" as="geometry">
            <mxRectangle width="60" height="30" as="alternateBounds" />
          </mxGeometry>
        </mxCell>
        <mxCell id="be3Qgi7hEzFIGp2nB2z0-669" value="date_of_birth" style="shape=partialRectangle;connectable=0;fillColor=none;top=0;left=0;bottom=0;right=0;align=left;spacingLeft=6;overflow=hidden;html=1;whiteSpace=wrap;strokeWidth=3;" vertex="1" parent="be3Qgi7hEzFIGp2nB2z0-667">
          <mxGeometry x="60" width="120" height="30" as="geometry">
            <mxRectangle width="120" height="30" as="alternateBounds" />
          </mxGeometry>
        </mxCell>
      </root>
    </mxGraphModel>
  </diagram>
</mxfile>
